SplineFontDB: 1.0
FontName: URWPalladioL-BoldItal
FullName: URW Palladio L Bold Italic
FamilyName: URW Palladio L
Weight: Bold
Copyright: Copyright (URW)++,Copyright 1999 by (URW)++ Design & Development; Cyrillic glyphs added by Valek Filippov (C) 2001
Version: 1.06
ItalicAngle: -9.9
UnderlinePosition: -100
UnderlineWidth: 50
Ascent: 800
Descent: 200
NeedsXUIDChange: 1
UniqueID: 4239382
FSType: 0
OS2WinAscent: 0
OS2WinAOffset: 1
OS2WinDescent: 0
OS2WinDOffset: 1
HheadAscent: 0
HheadAOffset: 1
HheadDescent: 0
HheadDOffset: 1
ScriptLang: 2
 1 latn 1 dflt 
 1 DFLT 1 dflt 
Encoding: adobestandard
UnicodeInterp: none
DisplaySize: -36
AntiAlias: 1
FitToEm: 1
WinInfo: 360 30 14
BeginPrivate: 7
BlueValues 23 [-20 0 452 472 681 701]
BlueScale 8 0.039625
StdHW 4 [43]
StdVW 5 [114]
StemSnapH 206 [38 43 48 53 60 66 79 89] 
systemdict /internaldict known
{1183615869 systemdict /internaldict get exec
/StemSnapLength 2 copy known { get 8 lt } { pop pop true } ifelse }
{ true } ifelse { pop [43 48] } if
StemSnapV 2 []
ForceBold 5 false
EndPrivate
BeginChars: 767 660
StartChar: exclam
Encoding: 33 33 2
Width: 333
Flags: W
HStem: -17 152<122 135>
DStem: 310 695 310 695 183 666 322 686
Fore
179 218 m 1
 140 194 l 1
 127 203 l 1
 170 633 l 1
 170 666 l 1
 183 666 l 1
 310 695 l 1
 322 686 l 1
 212 340 l 1
 201 304 192 273 179 218 c 1
135 135 m 0
 173 135 197 110 197 71 c 0
 197 20 166 -17 123 -17 c 0
 84 -17 58 9 58 49 c 0
 58 99 91 135 135 135 c 0
EndSplineSet
EndChar
StartChar: quotedbl
Encoding: 34 34 3
Width: 500
Flags: W
HStem: 467 21G<137 171 327 361>
Fore
171 467 m 1
 137 467 l 1
 207 677 l 2
 216 705 234 720 257 720 c 0
 284 720 303 701 303 675 c 0
 303 662 299 647 293 639 c 2
 171 467 l 1
361 467 m 1
 327 467 l 1
 397 677 l 2
 406 705 424 720 447 720 c 0
 474 720 493 701 493 675 c 0
 493 662 489 647 483 639 c 2
 361 467 l 1
EndSplineSet
EndChar
StartChar: numbersign
Encoding: 35 35 4
Width: 500
Flags: W
HStem: 0 21G<75 150 258 333> 215 75<4 107 194 290 376 470> 397 75<32 135 221 317 403 496>
DStem: 107 215 182 215 75 0 150 0 135 397 210 397 119 290 194 290 176 673 251 673 146 472 221 472 290 215 365 215 258 0 333 0 317 397 392 397 301 290 376 290 357 673 432 673 328 472 403 472
Fore
470 290 m 1
 470 215 l 1
 365 215 l 1
 333 0 l 1
 258 0 l 1
 290 215 l 1
 182 215 l 1
 150 0 l 1
 75 0 l 1
 107 215 l 1
 4 215 l 1
 4 290 l 1
 119 290 l 1
 135 397 l 1
 32 397 l 1
 32 472 l 1
 146 472 l 1
 176 673 l 1
 251 673 l 1
 221 472 l 1
 328 472 l 1
 357 673 l 1
 432 673 l 1
 403 472 l 1
 496 472 l 1
 496 397 l 1
 392 397 l 1
 376 290 l 1
 470 290 l 1
317 397 m 1
 210 397 l 1
 194 290 l 1
 301 290 l 1
 317 397 l 1
EndSplineSet
EndChar
StartChar: dollar
Encoding: 36 36 5
Width: 500
Flags: W
VStem: 69 88<439 490> 361 99<174 228>
DStem: 174 -7 215 -8 155 -108 198 -108 227 285 265 275 183 41 223 39 287 620 326 620 247 399 286 389 306 737 344 737 295 669 334 672
Fore
46 183 m 1
 80 183 l 1
 77 123 l 1
 77 94 79 89 98 77 c 0
 127 59 142 53 183 41 c 1
 227 285 l 1
 117 304 69 351 69 439 c 0
 69 515 107 584 173 626 c 0
 208 649 236 659 295 669 c 1
 306 737 l 1
 344 737 l 1
 334 672 l 1
 383 671 407 665 456 640 c 0
 468 634 470 633 477 630 c 1
 466 597 459 564 450 495 c 1
 420 495 l 1
 420 566 l 2
 420 585 381 608 326 620 c 1
 286 389 l 1
 361 373 397 358 423 329 c 1
 448 304 460 269 460 228 c 0
 460 148 413 74 334 28 c 0
 296 6 269 -2 215 -8 c 1
 198 -108 l 1
 155 -108 l 1
 174 -7 l 1
 90 5 58 15 20 40 c 1
 34 87 40 121 46 183 c 1
265 275 m 1
 223 39 l 1
 255 39 272 43 294 56 c 0
 335 79 361 124 361 174 c 0
 361 228 335 256 265 275 c 1
247 399 m 1
 287 620 l 1
 255 618 239 614 218 602 c 0
 182 580 157 535 157 490 c 0
 157 445 185 417 247 399 c 1
EndSplineSet
EndChar
StartChar: percent
Encoding: 37 37 6
Width: 889
Flags: W
HStem: -4 28<599 617> 290 28<647 658> 350 28<185.047 200> 644 28<228 249> 677 20G<620 671>
VStem: 56 86<446 498> 292 86<525 576> 468 86<92 144> 704 86<171 222>
DStem: 620 697 671 697 176 -17 229 -17
Fore
244 672 m 0
 326 672 378 615 378 525 c 0
 378 422 303 350 198 350 c 0
 109 350 56 406 56 498 c 0
 56 601 133 672 244 672 c 0
239 644 m 0
 216 644 196 629 179 600 c 0
 159 566 142 495 142 446 c 0
 142 406 164 378 195 378 c 0
 218 378 239 393 255 422 c 0
 276 459 292 527 292 576 c 0
 292 616 270 644 239 644 c 0
656 318 m 0
 738 318 790 261 790 171 c 0
 790 68 715 -4 610 -4 c 0
 521 -4 468 52 468 144 c 0
 468 247 545 318 656 318 c 0
651 290 m 0
 628 290 608 275 591 246 c 0
 571 212 554 141 554 92 c 0
 554 52 576 24 607 24 c 0
 630 24 651 39 667 68 c 0
 688 105 704 173 704 222 c 0
 704 262 682 290 651 290 c 0
229 -17 m 1
 176 -17 l 1
 620 697 l 1
 671 697 l 1
 229 -17 l 1
EndSplineSet
EndChar
StartChar: ampersand
Encoding: 38 38 7
Width: 833
Flags: W
HStem: -17 53<314 385> 371 53<377 395> 640 55<397 438>
VStem: 74 117<174 203> 184 98<492 526> 587 91<195 220> 773 38<439 456>
Fore
531 539 m 1xee
 501 539 l 1
 501 599 l 1
 463 629 435 640 397 640 c 0
 331 640 282 592 282 526 c 0xee
 282 468 329 424 393 424 c 0
 394 424 399 424 406 425 c 2
 420 425 l 1
 406 368 l 1
 397 370 391 371 379 371 c 0
 268 371 191 303 191 203 c 0
 191 103 268 36 385 36 c 0
 501 36 587 104 587 195 c 0
 587 245 553 278 502 278 c 0
 465 278 443 259 431 214 c 2
 427 199 l 1
 403 199 l 1
 413 304 l 1
 434 328 488 353 537 360 c 2
 657 378 l 2
 740 391 773 412 773 454 c 0
 773 476 762 491 737 501 c 1
 751 526 l 1
 794 505 811 480 811 439 c 0
 811 373 768 325 695 312 c 2
 615 297 l 1
 656 287 678 261 678 220 c 0
 678 160 645 105 584 63 c 0
 515 14 409 -17 314 -17 c 0
 166 -17 74 57 74 174 c 0xf6
 74 225 92 269 128 304 c 0
 166 341 199 359 280 386 c 1
 219 396 184 434 184 492 c 0
 184 542 213 586 275 633 c 0
 334 676 384 695 438 695 c 0
 482 695 516 687 552 667 c 1
 537 610 532 581 531 539 c 1xee
EndSplineSet
EndChar
StartChar: quoteright
Encoding: 39 8217 8
Width: 278
Flags: W
Fore
288 720 m 1
 302 706 l 1
 242 591 199 524 142 459 c 1
 92 431 l 1
 76 442 l 1
 123 522 151 599 167 689 c 1
 194 691 197 692 252 709 c 2
 288 720 l 1
EndSplineSet
KernsSLIF: 119 9 1 0 118 13 1 0 116 -9 1 0 115 -24 1 0 114 -5 1 0 46 -44 1 0 111 -42 1 0 100 -49 1 0 44 -45 1 0 262 -83 1 0 256 -83 1 0 257 -83 1 0 225 -91 1 0 65 -83 1 0
EndChar
StartChar: parenleft
Encoding: 40 40 9
Width: 333
Flags: W
VStem: 58 110<185 251>
Fore
344 723 m 1
 368 698 l 1
 276 598 241 540 206 430 c 0
 180 350 168 272 168 185 c 0
 168 61 189 -10 252 -108 c 1
 226 -129 l 1
 165 -52 139 -15 114 33 c 0
 77 105 58 177 58 251 c 0
 58 397 130 540 260 651 c 2
 344 723 l 1
EndSplineSet
EndChar
StartChar: parenright
Encoding: 41 41 10
Width: 333
Flags: W
VStem: 188 110<342 409>
Fore
12 -129 m 1
 -12 -104 l 1
 80 -4 115 54 150 164 c 0
 176 243 188 323 188 409 c 0
 188 532 167 604 104 702 c 1
 130 723 l 1
 191 646 216 609 242 561 c 0
 279 489 298 416 298 342 c 0
 298 197 225 54 96 -57 c 2
 12 -129 l 1
EndSplineSet
EndChar
StartChar: asterisk
Encoding: 42 42 11
Width: 444
Flags: W
Fore
359 673 m 1
 364 659 l 1
 340 635 309 587 282 532 c 1
 305 537 313 538 327 541 c 0
 384 551 404 556 423 563 c 1
 429 560 l 1
 428 551 428 545 428 540 c 0
 428 521 432 499 439 473 c 1
 430 462 l 1
 385 480 339 490 276 496 c 1
 323 418 330 408 356 378 c 1
 354 366 l 1
 333 362 300 349 269 332 c 1
 254 339 l 1
 254 398 251 434 243 484 c 1
 211 461 171 420 142 379 c 1
 123 387 l 1
 114 413 99 440 84 457 c 1
 88 464 l 1
 131 475 176 492 225 517 c 1
 191 540 143 560 87 576 c 1
 84 583 l 1
 107 619 117 637 128 660 c 1
 144 660 l 1
 246 546 l 1
 256 597 259 633 259 688 c 1
 267 695 l 1
 300 683 323 678 359 673 c 1
EndSplineSet
EndChar
StartChar: plus
Encoding: 43 43 12
Width: 606
Flags: W
HStem: -5 21G<259 347> 204 88<50 259 347 556>
VStem: 259 88<-5 204 292 501>
Fore
259 292 m 1
 259 501 l 1
 347 501 l 1
 347 292 l 1
 556 292 l 1
 556 204 l 1
 347 204 l 1
 347 -5 l 1
 259 -5 l 1
 259 204 l 1
 50 204 l 1
 50 292 l 1
 259 292 l 1
EndSplineSet
EndChar
StartChar: comma
Encoding: 44 44 13
Width: 250
Flags: W
Fore
-33 -150 m 1
 8 -72 l 2
 30 -29 58 59 66 112 c 1
 127 125 155 133 192 147 c 1
 208 132 l 1
 171 59 157 33 144 11 c 0
 115 -35 45 -128 38 -128 c 1
 -15 -164 l 1
 -33 -150 l 1
EndSplineSet
KernsSLIF: 39 25 1 0 186 26 1 0 49 -3 1 0
EndChar
StartChar: hyphen
Encoding: 45 45 14
Width: 389
Flags: W
HStem: 203 91<116 230>
Fore
355 297 m 1
 362 288 l 1
 349 268 343 249 332 198 c 1
 307 199 280 200 274 200 c 0
 236 202 209 203 196 203 c 2
 120 203 l 2
 101 203 85 202 43 199 c 1
 37 208 l 1
 55 253 61 273 66 300 c 1
 96 295 116 294 158 294 c 2
 212 294 l 2
 232 294 275 295 355 297 c 1
EndSplineSet
KernsSLIF: 89 -50 1 0 87 -13 1 0 86 -25 1 0 84 -40 1 0 262 2 1 0 256 2 1 0 257 2 1 0 225 -8 1 0 65 2 1 0
EndChar
StartChar: period
Encoding: 46 46 15
Width: 250
Flags: W
HStem: -17 21G<93.5 134.5>
Fore
125 135 m 0
 163 135 187 110 187 71 c 0
 187 21 156 -17 113 -17 c 0
 74 -17 48 9 48 49 c 0
 48 99 81 135 125 135 c 0
EndSplineSet
KernsSLIF: 39 15 1 0 186 16 1 0 49 1 1 0
EndChar
StartChar: slash
Encoding: 47 47 16
Width: 315
Flags: W
HStem: -17 21G<1 91>
DStem: 225 720 315 720 1 -17 91 -17
Fore
225 720 m 1
 315 720 l 1
 91 -17 l 1
 1 -17 l 1
 225 720 l 1
EndSplineSet
EndChar
StartChar: zero
Encoding: 48 48 17
Width: 500
Flags: W
HStem: -17 37<208 222> 646 37<301 316>
VStem: 42 114<114 228> 376 114<437 553>
Fore
314 683 m 0
 428 683 490 597 490 437 c 0
 490 322 461 205 411 115 c 0
 361 26 299 -17 220 -17 c 0
 104 -17 42 68 42 228 c 0
 42 344 70 459 120 549 c 0
 172 642 232 683 314 683 c 0
208 470 m 1
 204 454 l 1
 204 453 201 439 199 431 c 0
 175 327 156 185 156 114 c 0
 156 56 180 20 219 20 c 0
 256 20 283 50 303 116 c 0
 338 228 376 456 376 553 c 0
 376 610 352 646 313 646 c 0
 264 646 234 596 208 470 c 1
EndSplineSet
KernsSLIF: 55 7 1 0 49 12 1 0 52 32 1 0
EndChar
StartChar: one
Encoding: 49 49 18
Width: 500
Flags: W
HStem: 0 21G<234 256>
DStem: 266 578 393 606 178 92 304 100
Fore
41 -3 m 1
 46 30 l 1
 100 33 l 2
 165 38 168 40 178 92 c 1
 266 578 l 1
 83 500 l 1
 74 509 l 1
 90 572 l 1
 286 632 l 2
 312 640 335 650 389 678 c 1
 406 669 l 1
 401 648 397 630 393 606 c 1
 304 100 l 1
 301 85 300 75 300 71 c 0
 300 43 312 35 357 33 c 2
 434 30 l 1
 428 -3 l 1
 331 -1 291 0 256 0 c 2
 234 0 l 2
 202 0 106 -1 41 -3 c 1
EndSplineSet
KernsSLIF: 48 -14 1 0 50 24 1 0 51 20 1 0 54 -17 1 0 55 -10 1 0 49 3 1 0 57 3 1 0 52 -25 1 0 53 17 1 0 56 -2 1 0 44 3 1 0
EndChar
StartChar: two
Encoding: 50 50 19
Width: 500
Flags: W
HStem: -3 101<138 386> 593 90<221 266>
VStem: 328 122<491 513>
Fore
1 -3 m 1
 1 22 l 1
 98 116 l 2
 250 263 328 391 328 491 c 0
 328 553 286 593 221 593 c 0
 171 593 145 574 108 511 c 2
 94 487 l 1
 64 496 l 1
 120 632 l 1
 171 669 212 683 266 683 c 0
 377 683 450 615 450 513 c 0
 450 448 417 378 359 320 c 2
 138 98 l 1
 364 98 l 2
 392 98 413 100 446 106 c 1
 454 100 l 1
 441 75 436 58 421 -3 c 1
 242 0 242 0 226 0 c 0
 189 0 68 -2 1 -3 c 1
EndSplineSet
KernsSLIF: 55 -7 1 0 52 6 1 0
EndChar
StartChar: three
Encoding: 51 51 20
Width: 500
Flags: W
HStem: -17 37<167 185> 340 38<177 214> 603 80<236 282>
VStem: 331 119<512 548>
Fore
8 24 m 1
 38 185 l 1
 72 183 l 1
 69 164 67 143 67 128 c 0
 67 64 110 20 175 20 c 0
 224 20 262 44 290 93 c 0
 310 128 320 169 320 211 c 0
 320 294 282 340 214 340 c 0
 196 340 179 337 138 325 c 1
 132 331 l 1
 148 382 l 1
 156 379 161 378 177 378 c 0
 219 378 243 383 267 397 c 0
 307 421 331 464 331 512 c 0
 331 569 296 603 236 603 c 0
 180 603 142 577 110 515 c 1
 81 526 l 1
 137 637 l 1
 183 670 224 683 282 683 c 0
 386 683 450 631 450 548 c 0
 450 510 436 477 408 447 c 0
 379 416 354 400 295 375 c 1
 294 371 l 1
 398 358 448 309 448 221 c 0
 448 87 326 -17 170 -17 c 0
 113 -17 71 -7 8 24 c 1
EndSplineSet
KernsSLIF: 55 -4 1 0 49 -6 1 0 52 29 1 0
EndChar
StartChar: four
Encoding: 52 52 21
Width: 500
Flags: W
HStem: 0 252<86 264> 176 76<86 249>
DStem: 325 597 453 673 264 252 376 252 483 255 483 255 376 252 487 253
Fore
249 176 m 1x40
 3 176 l 1
 8 214 l 1
 103 370 197 503 318 652 c 1
 364 656 394 664 440 683 c 1
 453 673 l 1
 376 252 l 1
 483 255 l 1
 487 253 l 1
 469 176 l 1
 362 176 l 1x40
 349 93 l 2
 347 80 346 70 346 61 c 0
 346 46 360 34 378 33 c 2
 459 30 l 1
 454 -3 l 1
 307 0 307 0 276 0 c 0x80
 245 0 245 0 98 -3 c 1
 103 30 l 1
 166 33 l 2
 220 36 225 41 235 95 c 1
 249 176 l 1x40
86 252 m 1x80
 264 252 l 1
 325 597 l 1
 220 463 153 367 86 252 c 1x80
EndSplineSet
KernsSLIF: 55 2 1 0 49 15 1 0 52 43 1 0
EndChar
StartChar: five
Encoding: 53 53 22
Width: 500
Flags: W
HStem: -17 37<172 191> 362 55<219 270> 566 102<276 349.236>
VStem: 328 128<222 256>
Fore
112 302 m 1
 81 314 l 1
 109 455 121 521 145 667 c 1
 150 675 l 1
 238 670 293 668 382 668 c 2
 475 668 l 1
 481 659 l 1
 435 570 l 1
 354 567 318 566 276 566 c 2
 174 566 l 1
 131 366 l 1
 176 404 212 417 270 417 c 0
 385 417 456 351 456 244 c 0
 456 97 335 -17 178 -17 c 0
 114 -17 65 -3 14 30 c 1
 25 76 31 110 41 178 c 1
 70 173 l 1
 69 161 68 152 68 144 c 0
 68 69 113 20 180 20 c 0
 232 20 271 49 299 108 c 0
 317 146 328 195 328 239 c 0
 328 315 286 362 219 362 c 0
 175 362 147 347 112 302 c 1
EndSplineSet
KernsSLIF: 55 2 1 0 49 -14 1 0 52 31 1 0
EndChar
StartChar: six
Encoding: 54 54 23
Width: 500
Flags: W
HStem: -17 46<214 244> 348 67<273 328> 631 52<373 415>
VStem: 39 120<151 206> 351 125<234 260>
Fore
488 669 m 1
 466 600 l 1
 458 596 l 1
 433 620 406 631 373 631 c 0
 318 631 270 594 234 522 c 0
 210 474 195 425 176 334 c 1
 232 393 274 415 328 415 c 0
 414 415 476 350 476 260 c 0
 476 112 354 -17 214 -17 c 0
 101 -17 39 62 39 206 c 0
 39 342 89 473 175 563 c 0
 248 639 335 683 415 683 c 0
 439 683 467 678 488 669 c 1
273 348 m 0
 202 348 159 273 159 151 c 0
 159 71 188 29 244 29 c 0
 275 29 296 42 315 75 c 0
 336 110 351 177 351 234 c 0
 351 308 324 348 273 348 c 0
EndSplineSet
KernsSLIF: 55 5 1 0 49 -14 1 0 52 41 1 0
EndChar
StartChar: seven
Encoding: 55 55 24
Width: 500
Flags: W
HStem: 0 21G<128 138> 557 111<228 439>
Fore
76 -3 m 1
 69 10 l 1
 177 178 312 382 360 448 c 2
 439 557 l 1
 170 557 l 2
 145 557 123 555 81 550 c 1
 73 556 l 1
 81 593 87 620 94 665 c 1
 100 674 l 1
 211 669 251 668 284 668 c 2
 544 668 l 1
 544 629 l 1
 486 548 l 1
 382 392 256 156 191 -3 c 1
 152 0 143 0 133 0 c 0
 123 0 121 0 76 -3 c 1
EndSplineSet
KernsSLIF: 50 20 1 0 51 13 1 0 54 -13 1 0 55 35 1 0 46 -62 1 0 49 17 1 0 52 -29 1 0 53 9 1 0 56 -2 1 0 44 -63 1 0 58 -43 1 0
EndChar
StartChar: eight
Encoding: 56 56 25
Width: 500
Flags: W
HStem: -17 46<196 220> 637 46<305 332>
VStem: 26 82<126 145> 97 97<469 522> 348 106<155 218> 404 80<533 554>
Fore
191 328 m 1xe8
 177 337 l 2
 121 373 97 413 97 469 c 0
 97 534 132 592 201 639 c 0
 243 669 287 683 332 683 c 0
 424 683 484 632 484 554 c 0xd4
 484 498 455 453 391 409 c 2
 338 373 l 1
 352 365 l 2
 421 325 454 279 454 218 c 0
 454 153 426 97 369 51 c 0
 314 7 254 -17 196 -17 c 0
 93 -17 26 41 26 130 c 0
 26 203 67 259 157 309 c 2
 191 328 l 1xe8
236 300 m 2
 218 309 l 1
 139 257 108 210 108 143 c 0
 108 75 153 29 220 29 c 0
 292 29 348 84 348 155 c 0xe8
 348 214 311 263 236 300 c 2
309 390 m 1
 382 446 404 479 404 533 c 0
 404 598 366 637 305 637 c 0
 240 637 194 589 194 522 c 0xd4
 194 468 220 439 309 390 c 1
EndSplineSet
KernsSLIF: 55 12 1 0 49 10 1 0 52 32 1 0
EndChar
StartChar: nine
Encoding: 57 57 26
Width: 500
Flags: W
HStem: -17 49<143 165> 246 71<201 259> 634 49<285 313>
VStem: 56 120<417 452> 366 125<456 503>
Fore
348 313 m 2
 352 331 l 1
 302 270 260 246 201 246 c 0
 112 246 56 312 56 417 c 0
 56 510 94 579 175 632 c 0
 229 667 272 683 313 683 c 0
 425 683 491 599 491 456 c 0
 491 218 318 -17 143 -17 c 0
 116 -17 94 -13 52 -2 c 1
 46 25 42 44 27 101 c 1
 50 111 l 1
 74 59 113 32 165 32 c 0
 222 32 267 70 299 146 c 0
 318 190 325 216 348 313 c 2
285 634 m 0
 218 634 176 564 176 452 c 0
 176 363 204 317 259 317 c 0
 326 317 366 386 366 503 c 0
 366 587 337 634 285 634 c 0
EndSplineSet
KernsSLIF: 55 9 1 0 49 14 1 0 52 23 1 0
EndChar
StartChar: colon
Encoding: 58 58 27
Width: 250
Flags: W
HStem: -17 152<102 115> 300 152<161 174>
Fore
174 452 m 0
 212 452 236 427 236 388 c 0
 236 337 205 300 162 300 c 0
 123 300 97 326 97 366 c 0
 97 416 129 452 174 452 c 0
115 135 m 0
 153 135 177 110 177 71 c 0
 177 21 146 -17 103 -17 c 0
 64 -17 38 9 38 49 c 0
 38 99 71 135 115 135 c 0
EndSplineSet
EndChar
StartChar: semicolon
Encoding: 59 59 28
Width: 250
Flags: W
HStem: 300 152<171 186>
Fore
-33 -150 m 1
 8 -72 l 2
 30 -29 58 59 66 112 c 1
 127 125 155 133 192 147 c 1
 208 132 l 1
 171 59 157 33 144 11 c 0
 115 -35 45 -128 38 -128 c 1
 -15 -164 l 1
 -33 -150 l 1
184 452 m 0
 223 452 247 428 247 388 c 0
 247 337 216 300 173 300 c 0
 135 300 108 326 108 364 c 0
 108 415 140 452 184 452 c 0
EndSplineSet
EndChar
StartChar: less
Encoding: 60 60 29
Width: 606
Flags: W
DStem: 49 210 172 252 558 -20 558 75 558 524 558 429 49 294 172 252
Fore
172 252 m 1
 558 75 l 1
 558 -20 l 1
 49 210 l 1
 49 294 l 1
 558 524 l 1
 558 429 l 1
 172 252 l 1
EndSplineSet
EndChar
StartChar: equal
Encoding: 61 61 30
Width: 606
Flags: W
HStem: 106 88<51 555> 302 88<51 555>
Fore
555 390 m 1
 555 302 l 1
 51 302 l 1
 51 390 l 1
 555 390 l 1
555 194 m 1
 555 106 l 1
 51 106 l 1
 51 194 l 1
 555 194 l 1
EndSplineSet
EndChar
StartChar: greater
Encoding: 62 62 31
Width: 606
Flags: W
DStem: 48 429 48 524 434 252 557 294 434 252 557 210 48 75 48 -20
Fore
434 252 m 1
 48 429 l 1
 48 524 l 1
 557 294 l 1
 557 210 l 1
 48 -20 l 1
 48 75 l 1
 434 252 l 1
EndSplineSet
EndChar
StartChar: question
Encoding: 63 63 32
Width: 444
Flags: W
HStem: -17 152<161 174> 615 80<233 274>
VStem: 97 139<49 71> 159 44<249 266> 324 126<524 545>
Fore
223 207 m 1xd8
 201 189 l 1
 171 214 159 237 159 266 c 0
 159 297 176 329 210 365 c 2
 273 431 l 2
 308 468 324 501 324 536 c 0
 324 585 289 615 233 615 c 0
 215 615 197 610 177 601 c 0
 158 591 146 575 131 539 c 2
 124 522 l 1
 91 526 l 1
 111 570 122 600 134 652 c 1
 194 686 225 695 274 695 c 0
 381 695 450 636 450 543 c 0
 450 488 427 445 376 408 c 2
 273 332 l 2
 217 291 203 274 203 249 c 0
 203 234 209 222 223 207 c 1xd8
174 135 m 0
 212 135 236 110 236 71 c 0
 236 20 205 -17 162 -17 c 0
 123 -17 97 9 97 49 c 0xe8
 97 99 130 135 174 135 c 0
EndSplineSet
EndChar
StartChar: at
Encoding: 64 64 33
Width: 833
Flags: W
HStem: -12 56<415 455> 143 29<334 354> 625 56<414 455>
VStem: 82 56<323 357> 210 95<242 278> 693 51<387 421>
Fore
675 173 m 1
 739 173 l 1
 710 123 694 102 663 75 c 0
 598 18 519 -12 432 -12 c 0
 235 -12 82 137 82 329 c 0
 82 527 235 681 431 681 c 0
 607 681 744 558 744 399 c 0
 744 329 717 261 671 213 c 0
 626 168 566 137 521 137 c 0
 482 137 458 166 452 219 c 1
 408 159 382 143 334 143 c 0
 260 143 210 198 210 278 c 0
 210 395 307 501 416 501 c 0
 460 501 487 477 497 429 c 1
 513 493 l 1
 607 493 l 1
 533 219 l 1
 531 210 529 200 529 194 c 0
 529 180 537 170 548 170 c 0
 570 170 599 190 628 225 c 0
 669 274 693 340 693 403 c 0
 693 528 581 625 436 625 c 0
 265 625 138 501 138 335 c 0
 138 167 267 44 443 44 c 0
 483 44 517 51 550 66 c 0
 602 89 630 113 675 173 c 1
432 471 m 0
 374 475 305 350 305 242 c 0
 305 201 325 172 354 172 c 0
 382 172 409 195 434 240 c 0
 460 285 478 353 478 403 c 0
 478 442 460 469 432 471 c 0
EndSplineSet
EndChar
StartChar: A
Encoding: 65 65 34
Width: 722
Flags: W
HStem: 0 21G<524 551.5> 267 40<245 366> 663 20G<414 510>
DStem: 400 573 518 612 438 307 594 90 414 683 400 573 51 70 245 307 414 683 222 264 51 70 136 112
Fore
414 683 m 1
 510 683 l 1
 512 663 514 647 515 640 c 0
 517 618 518 615 518 612 c 1
 594 90 l 1
 600 54 616 38 648 35 c 2
 685 32 l 1
 685 -3 l 1
 600 -1 564 0 539 0 c 0
 509 0 509 0 384 -3 c 1
 384 32 l 1
 426 35 l 2
 454 37 469 48 468 66 c 1
 443 264 l 1
 406 265 l 2
 372 266 354 267 343 267 c 2
 333 267 l 1
 222 264 l 1
 136 112 l 2
 122 87 117 72 117 55 c 0
 117 43 131 37 160 35 c 2
 204 32 l 1
 199 -3 l 1
 178 -2 150 -2 143 -1 c 0
 103 0 93 0 85 0 c 2
 -35 -3 l 1
 -30 32 l 1
 4 35 l 2
 22 36 37 48 51 70 c 1
 414 683 l 1
400 573 m 1
 245 307 l 1
 438 307 l 1
 400 573 l 1
EndSplineSet
KernsSLIF: 121 -14 0 0 119 -15 0 0 118 -14 0 0 117 9 0 0 116 -3 0 0 39 -49 0 0 186 -47 0 0 113 19 0 0 46 17 0 0 111 3 0 0 172 -40 0 0 171 -27 0 0 103 -23 0 0 101 17 0 0 100 15 0 0 44 19 0 0 332 12 0 0 99 12 0 0 98 10 0 0 97 13 0 0 89 -30 0 0 87 -63 0 0 86 -72 0 0 300 -24 0 0 298 -24 0 0 301 -24 0 0 299 -24 0 0 85 -24 0 0 84 -12 0 0 81 -37 0 0 286 -37 0 0 79 -37 0 0 71 -31 0 0 264 -29 0 0 67 -30 0 0
EndChar
StartChar: B
Encoding: 66 66 35
Width: 667
Flags: W
HStem: -3 43<295 334> 335 40<264 334> 639 43<367 439>
VStem: 469 132<204 222> 497 132<533 544>
DStem: 176 594 311 635 89 92 264 375 176 594 256 332 89 92 211 51
Fore
13 29 m 1xf0
 41 32 l 2
 72 35 81 47 89 92 c 1
 176 594 l 1
 177 601 178 609 178 615 c 0
 178 636 167 644 132 646 c 2
 86 649 l 1
 91 681 l 1
 222 678 222 678 249 678 c 0
 280 678 293 678 419 682 c 2
 439 682 l 2
 485 682 516 677 544 666 c 0
 598 644 629 598 629 542 c 0xe8
 629 502 611 460 582 434 c 0
 545 401 513 385 427 359 c 1
 492 353 520 344 551 322 c 0
 583 298 601 260 601 214 c 0
 601 131 544 56 454 18 c 0
 418 4 380 -3 332 -3 c 0
 329 -3 329 -3 276 -2 c 0
 245 -1 245 -1 190 0 c 2
 146 0 l 2
 113 0 110 0 8 -3 c 1
 13 29 l 1xf0
311 635 m 1
 264 375 l 1
 307 375 l 2
 432 375 497 430 497 535 c 0
 497 574 487 598 464 615 c 0
 445 629 403 639 367 639 c 0
 365 639 357 639 350 638 c 2
 311 635 l 1
256 332 m 1
 211 51 l 1
 224 49 226 49 236 48 c 0
 273 42 299 40 323 40 c 0
 414 40 469 104 469 208 c 0xf0
 469 249 460 276 439 296 c 0
 414 321 372 335 322 335 c 0
 311 335 293 334 275 333 c 2
 256 332 l 1
EndSplineSet
KernsSLIF: 89 8 0 0 87 -12 0 0 86 -12 0 0 233 -2 0 0 288 -5 0 0 286 -5 0 0 289 -5 0 0 287 -5 0 0 234 15 0 0 79 -5 0 0 261 -6 0 0 262 -6 0 0 256 -6 0 0 259 -6 0 0 257 -6 0 0 225 -14 0 0 65 -6 0 0
EndChar
StartChar: C
Encoding: 67 67 36
Width: 685
Flags: W
HStem: -17 65<340 399> 636 59<452 504>
VStem: 69 138<248 274>
Fore
622 484 m 1
 627 572 l 1
 629 605 544 636 452 636 c 0
 303 636 207 494 207 272 c 0
 207 119 268 48 399 48 c 0
 462 48 521 67 597 112 c 2
 619 125 l 1
 629 116 l 1
 616 77 l 1
 506 8 434 -17 340 -17 c 0
 264 -17 196 3 152 39 c 0
 97 84 69 154 69 250 c 0
 69 497 263 695 504 695 c 0
 573 695 630 682 695 652 c 1
 669 560 662 531 657 484 c 1
 622 484 l 1
EndSplineSet
KernsSLIF: 286 -9 0 0 287 -9 0 0 79 -9 0 0 75 18 0 0 72 18 0 0 262 20 0 0 256 20 0 0 257 20 0 0 225 12 0 0 65 20 0 0
EndChar
StartChar: D
Encoding: 68 68 37
Width: 778
Flags: W
HStem: -3 43<287 344> 640 40<363 401>
VStem: 609 138<412 446>
DStem: 168 594 303 635 81 92 203 51
Fore
5 29 m 1
 33 32 l 2
 63 35 73 47 81 92 c 1
 168 594 l 1
 169 601 170 609 170 614 c 0
 170 636 159 644 124 646 c 2
 78 649 l 1
 83 681 l 1
 214 678 214 678 243 678 c 0
 268 678 289 678 363 680 c 0
 406 681 434 682 451 682 c 0
 566 682 634 658 685 601 c 0
 725 556 747 494 747 422 c 0
 747 300 695 179 608 100 c 0
 535 33 438 -3 330 -3 c 2
 258 -2 l 2
 234 -1 159 0 141 0 c 0
 105 0 74 -1 0 -3 c 1
 5 29 l 1
303 635 m 1
 203 51 l 1
 266 42 286 40 314 40 c 0
 430 40 496 73 541 151 c 0
 582 225 609 336 609 434 c 0
 609 521 584 578 533 608 c 0
 499 627 435 640 376 640 c 0
 371 640 357 639 342 638 c 2
 303 635 l 1
EndSplineSet
KernsSLIF: 89 -7 0 0 88 -41 0 0 87 -27 0 0 86 -33 0 0 84 8 0 0 74 -15 0 0 261 -41 0 0 262 -41 0 0 258 -41 0 0 256 -41 0 0 259 -41 0 0 257 -41 0 0 65 -41 0 0
EndChar
StartChar: E
Encoding: 69 69 38
Width: 611
Flags: W
HStem: -3 53<275 312> 0 168<520 523> 330 48<270 364> 520 161<549 581> 634 47<377 409>
DStem: 179 594 315 630 92 92 270 378 179 594 262 330 92 92 214 56
Fore
16 29 m 1xa0
 44 32 l 2
 74 35 84 47 92 92 c 1
 179 594 l 1
 180 601 181 609 181 614 c 0
 181 636 170 644 135 646 c 2
 89 649 l 1
 94 681 l 1
 225 678 225 678 251 678 c 0
 275 678 304 678 406 681 c 2
 436 681 l 2xa8
 451 681 451 681 596 678 c 1
 606 672 l 1
 594 608 589 575 581 520 c 1
 549 520 l 1x30
 549 573 l 2
 549 606 547 616 537 619 c 0
 522 625 425 634 377 634 c 0
 371 634 362 634 354 633 c 2
 315 630 l 1
 270 378 l 1
 356 378 l 2
 407 378 441 379 496 381 c 1
 501 372 l 1
 487 325 l 1
 382 329 349 330 317 330 c 2
 262 330 l 1
 214 56 l 1
 238 51 251 50 275 50 c 2
 312 50 l 1xa8
 390 53 l 2
 473 56 485 61 498 98 c 1
 520 168 l 1
 556 168 l 1
 545 123 538 88 522 0 c 1x60
 378 -3 378 -3 355 -3 c 0xa0
 336 -3 312 -3 199 0 c 2
 150 0 l 2x60
 117 0 112 0 11 -3 c 1
 16 29 l 1xa0
EndSplineSet
EndChar
StartChar: F
Encoding: 70 70 39
Width: 556
Flags: W
HStem: 0 21G<137.5 157.5> 296 48<267 370> 520 158<409 568>
DStem: 182 594 317 630 100 132 267 344 182 594 259 296 100 132 223 100
Fore
317 630 m 1
 267 344 l 1
 353 344 l 2
 404 344 438 345 493 347 c 1
 498 338 l 1
 484 291 l 1
 379 295 346 296 314 296 c 2
 259 296 l 1
 223 100 l 1
 220 85 219 74 219 65 c 0
 219 44 228 36 255 35 c 2
 318 32 l 1
 313 -3 l 1
 167 0 167 0 148 0 c 0
 127 0 127 0 -6 -3 c 1
 -1 32 l 1
 42 35 l 2
 74 36 85 54 100 132 c 1
 182 594 l 1
 183 601 184 609 184 614 c 0
 184 637 174 644 138 646 c 2
 88 649 l 1
 93 681 l 1
 227 678 227 678 252 678 c 0
 277 678 277 678 409 681 c 1
 583 678 l 1
 593 672 l 1
 581 608 576 575 568 520 c 1
 536 520 l 1
 536 573 l 2
 536 601 534 611 529 617 c 1
 523 622 498 626 460 628 c 0
 443 629 426 631 410 632 c 0
 389 634 375 635 368 634 c 2
 356 633 l 1
 317 630 l 1
EndSplineSet
KernsSLIF: 117 12 0 0 114 13 0 0 46 -56 0 0 249 -20 0 0 250 -18 0 0 351 -20 0 0 352 -20 0 0 111 -20 0 0 106 6 0 0 105 11 0 0 45 7 0 0 335 -15 0 0 101 -15 0 0 44 -57 0 0 328 -29 0 0 241 -36 0 0 322 -29 0 0 323 -29 0 0 97 -29 0 0 286 -9 0 0 79 -9 0 0 74 23 0 0 261 -45 0 0 262 -45 0 0 258 -45 0 0 256 -45 0 0 259 -45 0 0 257 -45 0 0 65 -45 0 0
EndChar
StartChar: G
Encoding: 71 71 40
Width: 778
Flags: W
HStem: -17 47<368 398> 633 62<482 523>
VStem: 72 138<238 287>
Fore
517 59 m 1
 549 200 l 2
 551 208 552 217 552 223 c 0
 552 242 540 250 508 251 c 2
 448 253 l 1
 453 286 l 1
 578 283 578 283 602 283 c 0
 628 283 628 283 750 286 c 1
 745 253 l 1
 720 251 l 2
 693 248 683 238 675 206 c 1
 655 110 l 2
 651 91 649 77 649 64 c 1
 652 48 l 1
 508 -4 452 -17 368 -17 c 0
 269 -17 191 9 140 60 c 0
 94 105 72 170 72 256 c 0
 72 440 177 592 352 661 c 0
 411 684 466 695 523 695 c 0
 596 695 653 683 722 652 c 1
 696 560 689 531 684 484 c 1
 649 484 l 1
 653 562 l 1
 654 568 654 572 654 574 c 0
 654 605 574 633 482 633 c 0
 418 633 354 613 316 580 c 0
 253 526 210 395 210 259 c 0
 210 111 276 30 396 30 c 0
 443 30 483 40 517 59 c 1
EndSplineSet
KernsSLIF: 89 -1 0 0 87 -4 0 0 86 -4 0 0 84 -8 0 0 261 8 0 0 262 8 0 0 258 8 0 0 256 8 0 0 259 8 0 0 257 8 0 0 225 3 0 0 65 8 0 0
EndChar
StartChar: H
Encoding: 72 72 41
Width: 778
Flags: W
HStem: 0 21G<138 159 544.5 564> 338 48<268 552>
DStem: 168 541 307 588 96 132 268 386 168 541 261 338 96 132 220 102 552 338 726 588 515 132 639 102 587 541 726 588 562 386 639 102
Fore
402 646 m 1
 360 643 l 2
 326 642 316 631 307 588 c 1
 268 386 l 1
 562 386 l 1
 587 541 l 2
 592 572 595 600 595 617 c 0
 595 634 584 641 557 643 c 2
 506 646 l 1
 511 681 l 1
 638 678 638 678 663 678 c 0
 685 678 685 678 826 681 c 1
 821 646 l 1
 779 643 l 2
 744 641 735 632 726 588 c 1
 639 102 l 1
 636 88 635 74 635 64 c 0
 635 45 647 36 673 35 c 2
 728 32 l 1
 723 -3 l 1
 573 0 573 0 555 0 c 0
 534 0 534 0 407 -3 c 1
 412 32 l 1
 461 35 l 1
 495 39 499 45 515 132 c 1
 552 338 l 1
 261 338 l 1
 220 102 l 1
 217 87 216 73 216 63 c 0
 216 45 227 37 254 35 c 2
 303 32 l 1
 298 -3 l 1
 170 0 170 0 148 0 c 0
 128 0 128 0 -12 -3 c 1
 -7 32 l 1
 42 35 l 2
 76 38 80 45 96 132 c 1
 168 541 l 1
 173 572 176 596 176 614 c 0
 176 634 167 641 138 643 c 2
 87 646 l 1
 92 681 l 1
 228 678 228 678 249 678 c 0
 270 678 270 678 407 681 c 1
 402 646 l 1
EndSplineSet
EndChar
StartChar: I
Encoding: 73 73 42
Width: 389
Flags: W
HStem: 0 21G<147.5 163.5>
DStem: 178 541 317 599 106 132 230 100
Fore
408 646 m 1
 363 643 l 2
 330 641 324 636 317 599 c 1
 230 100 l 2
 228 89 227 77 227 66 c 0
 227 45 237 36 264 35 c 2
 323 32 l 1
 319 -3 l 1
 171 0 171 0 156 0 c 0
 139 0 139 0 -1 -3 c 1
 3 32 l 1
 52 35 l 2
 85 37 90 47 106 132 c 1
 178 541 l 2
 184 575 187 599 187 613 c 0
 187 632 175 641 149 643 c 2
 97 646 l 1
 101 681 l 1
 231 678 231 678 253 678 c 0
 275 678 275 678 412 681 c 1
 408 646 l 1
EndSplineSet
EndChar
StartChar: J
Encoding: 74 74 43
Width: 389
Flags: W
HStem: -207 37<7 23>
DStem: 180 541 320 599 84 -35 222 43
Fore
412 646 m 1
 366 643 l 2
 333 641 327 635 320 599 c 1
 222 43 l 2
 199 -88 104 -207 23 -207 c 0
 10 -207 -7 -204 -29 -197 c 1
 -29 -162 l 1
 -15 -168 -6 -170 7 -170 c 0
 32 -170 50 -157 63 -131 c 0
 70 -114 73 -101 84 -35 c 2
 180 541 l 2
 185 570 190 608 190 614 c 0
 190 632 178 641 152 643 c 2
 101 646 l 1
 106 681 l 1
 236 678 236 678 259 678 c 0
 281 678 281 678 417 681 c 1
 412 646 l 1
EndSplineSet
KernsSLIF: 262 -10 0 0 256 -10 0 0 225 -14 0 0 65 -10 0 0
EndChar
StartChar: K
Encoding: 75 75 44
Width: 722
Flags: W
HStem: 0 21G<140 161 574.5 609> 648 30<666 711>
VStem: 587 159<647 681>
DStem: 169 541 308 599 97 132 261 334 169 541 261 328 97 132 221 100 320 253 384 373 449 70 580 101 510 557 629 596 370 426 384 373
Fore
399 646 m 1
 354 643 l 2
 321 641 315 635 308 599 c 1
 261 334 l 1
 281 345 300 361 370 426 c 2
 510 557 l 1
 516 561 546 595 574 629 c 2
 577 632 l 2
 585 642 587 647 587 657 c 2
 587 681 l 1
 654 678 654 678 666 678 c 0
 679 678 679 678 746 681 c 1
 746 648 l 1
 711 648 l 2
 694 648 669 632 629 596 c 2
 384 373 l 1
 580 101 l 2
 620 46 627 40 648 36 c 2
 687 30 l 1
 684 -3 l 1
 648 -1 626 0 592 0 c 0
 557 0 534 -1 498 -3 c 1
 490 11 488 14 449 70 c 2
 320 253 l 2
 305 275 286 298 261 328 c 1
 221 100 l 2
 219 88 218 79 218 70 c 0
 218 45 226 37 255 35 c 2
 304 32 l 1
 300 -3 l 1
 172 0 172 0 150 0 c 0
 130 0 130 0 -10 -3 c 1
 -6 32 l 1
 43 35 l 2
 76 37 81 47 97 132 c 1
 169 541 l 2
 175 575 178 599 178 613 c 0
 178 632 166 641 140 643 c 2
 88 646 l 1
 92 681 l 1
 222 678 222 678 244 678 c 0
 266 678 266 678 403 681 c 1
 399 646 l 1
EndSplineSet
KernsSLIF: 121 -15 0 0 362 9 0 0 117 9 0 0 45 -46 0 0 101 15 0 0 328 13 0 0 241 10 0 0 322 13 0 0 97 13 0 0 84 30 0 0 83 13 0 0 286 -40 0 0 287 -40 0 0 234 -19 0 0 79 -40 0 0 71 -34 0 0 67 -33 0 0
EndChar
StartChar: L
Encoding: 76 76 45
Width: 611
Flags: W
HStem: -3 53<259 372> 0 174<542 545>
DStem: 186 541 325 599 104 92 226 56
Fore
416 646 m 1x80
 371 643 l 2
 338 641 332 635 325 599 c 1
 226 56 l 1
 251 51 263 50 294 50 c 0x80
 334 50 426 53 462 56 c 0
 496 59 510 70 519 98 c 1
 542 174 l 1
 578 174 l 1
 559 81 552 50 544 0 c 1x40
 402 -3 402 -3 372 -3 c 0x80
 360 -3 357 -3 258 -1 c 2
 171 0 l 2x40
 128 0 126 0 26 -3 c 1
 30 29 l 1
 58 32 l 2
 87 35 95 46 104 92 c 1
 186 541 l 2
 192 573 195 599 195 615 c 0
 195 632 183 642 157 643 c 2
 105 646 l 1
 109 681 l 1
 239 678 239 678 261 678 c 0
 283 678 283 678 420 681 c 1
 416 646 l 1x80
EndSplineSet
KernsSLIF: 121 -10 0 0 39 -75 0 0 186 -74 0 0 45 35 0 0 89 -43 0 0 87 -54 0 0 86 -69 0 0 298 -6 0 0 85 -6 0 0 84 -26 0 0 83 7 0 0 290 -1 0 0 288 -1 0 0 286 -1 0 0 289 -1 0 0 287 -1 0 0 79 -1 0 0 71 2 0 0 264 3 0 0 67 3 0 0 262 42 0 0 256 42 0 0 257 42 0 0 225 39 0 0 65 42 0 0
EndChar
StartChar: M
Encoding: 77 77 46
Width: 944
Flags: W
HStem: -17 21G<372 397>
VStem: 677 121<65 101>
DStem: 229 548 323 681 372 -17 450 174 759 586 885 577 677 101 805 110
Fore
372 -17 m 1
 229 548 l 1
 122 108 l 2
 114 76 114 75 114 64 c 0
 114 44 123 36 148 35 c 2
 199 32 l 1
 194 -3 l 1
 149 -1 105 0 86 0 c 0
 68 0 68 0 -23 -3 c 1
 -21 32 l 1
 21 35 l 2
 38 37 51 55 61 91 c 2
 186 552 l 2
 192 574 195 595 195 613 c 0
 195 634 179 644 142 646 c 2
 97 649 l 1
 102 681 l 1
 148 679 194 678 212 678 c 0
 230 678 230 678 323 681 c 1
 450 174 l 1
 620 441 679 538 758 681 c 1
 805 679 852 678 871 678 c 0
 890 678 890 678 985 681 c 1
 980 649 l 1
 941 646 l 2
 904 643 895 631 885 577 c 1
 805 110 l 1
 805 109 804 106 803 102 c 0
 800 83 798 72 798 65 c 0
 798 44 808 36 834 35 c 2
 889 32 l 1
 884 -3 l 1
 757 0 757 0 732 0 c 0
 708 0 708 0 577 -3 c 1
 582 32 l 1
 631 35 l 1
 662 40 666 44 673 81 c 1
 673 81 674 85 675 90 c 0
 676 94 677 99 677 101 c 1
 759 586 l 1
 468 108 l 1
 397 -17 l 1
 372 -17 l 1
EndSplineSet
EndChar
StartChar: N
Encoding: 78 78 47
Width: 778
Flags: W
HStem: -3 21G<535 620>
DStem: 185 578 225 534 88 91 152 138 225 534 282 681 535 -3 596 142 670 542 722 528 596 142 636 100
Fore
620 -3 m 1
 535 -3 l 1
 225 534 l 1
 152 138 l 2
 147 111 144 88 144 76 c 0
 144 50 156 36 180 35 c 2
 231 32 l 1
 226 -3 l 1
 133 0 133 0 114 0 c 0
 95 0 95 0 -2 -3 c 1
 0 32 l 1
 48 35 l 2
 70 36 80 50 88 91 c 2
 185 578 l 1
 186 582 l 2
 188 592 171 617 153 629 c 0
 139 638 119 645 103 646 c 2
 64 649 l 1
 67 681 l 1
 112 679 156 678 174 678 c 0
 192 678 192 678 282 681 c 1
 596 142 l 1
 670 542 l 1
 673 561 676 590 676 612 c 0
 676 633 661 644 630 646 c 2
 588 649 l 1
 593 681 l 1
 691 678 691 678 711 678 c 0
 731 678 731 678 829 681 c 1
 823 649 l 1
 786 646 l 2
 767 644 760 642 752 636 c 0
 744 629 739 612 722 528 c 2
 636 100 l 1
 629 67 625 37 620 -3 c 1
EndSplineSet
KernsSLIF: 362 -2 0 0 117 -2 0 0 46 -3 0 0 249 -15 0 0 351 -15 0 0 352 -15 0 0 111 -13 0 0 335 -8 0 0 101 -7 0 0 44 -4 0 0 328 -19 0 0 241 -22 0 0 322 -19 0 0 323 -19 0 0 97 -17 0 0 286 -9 0 0 287 -9 0 0 79 -9 0 0 71 -10 0 0 264 -8 0 0 67 -8 0 0 262 -3 0 0 256 -3 0 0 257 -3 0 0 225 -6 0 0 65 -3 0 0
EndChar
StartChar: O
Encoding: 79 79 48
Width: 833
Flags: W
HStem: -17 43<365 390> 652 43<475 495>
VStem: 76 138<238 272> 656 138<412 437>
Fore
493 695 m 0
 588 695 667 666 721 612 c 0
 770 563 794 499 794 414 c 0
 794 170 608 -17 365 -17 c 0
 182 -17 76 87 76 268 c 0
 76 518 249 695 493 695 c 0
480 652 m 0
 394 652 332 616 285 537 c 0
 243 467 214 346 214 239 c 0
 214 99 274 26 388 26 c 0
 473 26 541 69 589 153 c 0
 631 226 656 332 656 435 c 0
 656 579 596 652 480 652 c 0
EndSplineSet
KernsSLIF: 89 -12 0 0 88 -45 0 0 87 -29 0 0 86 -38 0 0 84 4 0 0 262 -39 0 0 256 -39 0 0 257 -39 0 0 225 -46 0 0 65 -39 0 0
EndChar
StartChar: P
Encoding: 80 80 49
Width: 667
Flags: W
HStem: 0 21G<159.5 175.5> 281 41<389 422> 638 40<273 399> 638 43<399 467>
VStem: 541 132<508 526>
DStem: 200 594 337 635 118 132 242 100
Fore
337 635 m 1xe8
 242 100 l 2
 240 89 239 77 239 66 c 0
 239 45 249 36 276 35 c 2
 335 32 l 1
 331 -3 l 1
 183 0 183 0 168 0 c 0
 151 0 151 0 11 -3 c 1
 15 32 l 1
 64 35 l 2
 97 37 102 47 118 132 c 1
 200 594 l 1
 201 601 202 609 202 614 c 0
 202 637 192 644 156 646 c 2
 100 649 l 1
 105 681 l 1xd8
 248 678 248 678 273 678 c 2xe8
 372 679 l 2
 391 680 460 681 467 681 c 0xd8
 604 681 673 626 673 518 c 0
 673 387 561 281 422 281 c 0
 389 281 361 286 325 299 c 1
 323 334 l 1
 347 326 366 322 389 322 c 0
 476 322 541 403 541 511 c 0
 541 599 497 638 399 638 c 0
 381 638 364 637 337 635 c 1xe8
EndSplineSet
KernsSLIF: 46 -84 0 0 249 -27 0 0 250 -24 0 0 351 -26 0 0 352 -26 0 0 111 -26 0 0 45 -13 0 0 335 -24 0 0 101 -24 0 0 44 -85 0 0 328 -38 0 0 241 -10 0 0 322 -38 0 0 323 -38 0 0 97 -38 0 0 74 -10 0 0 262 -68 0 0 256 -68 0 0 257 -68 0 0 225 -77 0 0 65 -68 0 0
EndChar
StartChar: Q
Encoding: 81 81 50
Width: 833
Flags: W
HStem: -222 89<610 657> -70 58<257 282> -17 43<365 390> 652 43<475 495>
VStem: 76 138<238 275> 150 29<-168 -152> 656 138<401 437>
DStem: 329 -89 420 -50 528 -196 514 -91
Fore
493 695 m 0xba
 588 695 667 666 721 612 c 0
 770 563 794 499 794 414 c 0
 794 170 608 -17 365 -17 c 0
 182 -17 76 87 76 268 c 0
 76 518 249 695 493 695 c 0xba
480 652 m 0
 394 652 332 616 285 537 c 0
 243 467 214 346 214 239 c 0
 214 99 274 26 388 26 c 0
 473 26 541 69 589 153 c 0
 631 226 656 332 656 435 c 0
 656 579 596 652 480 652 c 0
174 -170 m 1
 150 -154 l 1
 151 -64 199 -12 282 -12 c 0
 314 -12 365 -26 420 -50 c 2
 514 -91 l 2
 574 -117 628 -133 657 -133 c 0
 700 -133 726 -104 738 -43 c 1
 769 -53 l 1
 747 -161 690 -222 610 -222 c 0
 584 -222 566 -216 528 -196 c 2
 329 -89 l 2
 306 -77 281 -70 257 -70 c 0
 210 -70 180 -109 179 -168 c 1xd6
 174 -170 l 1
EndSplineSet
EndChar
StartChar: R
Encoding: 82 82 51
Width: 722
Flags: W
HStem: 0 21G<152.5 168.5> 638 40<277 390>
VStem: 527 132<524 542>
DStem: 192 594 328 635 111 132 235 100 370 258 454 353 515 -3 610 86
Fore
8 32 m 1
 57 35 l 2
 90 37 95 47 111 132 c 1
 192 594 l 1
 193 601 194 609 194 614 c 0
 194 637 184 644 148 646 c 2
 102 649 l 1
 107 681 l 1
 240 678 240 678 277 678 c 2
 377 679 l 2
 403 680 449 681 460 681 c 0
 592 681 659 633 659 538 c 0
 659 480 632 430 582 398 c 0
 548 376 518 365 454 353 c 1
 610 86 l 2
 624 61 649 35 660 34 c 2
 697 27 l 1
 697 -3 l 1
 660 -1 650 -1 599 0 c 1
 515 -3 l 1
 370 258 l 2
 363 270 347 296 322 334 c 0
 317 340 313 347 309 353 c 1
 314 370 l 1
 369 370 l 2
 461 370 527 437 527 529 c 0
 527 606 487 638 390 638 c 0
 371 638 354 637 328 635 c 1
 235 100 l 2
 233 89 232 77 232 66 c 0
 232 45 242 36 269 35 c 2
 328 32 l 1
 324 -3 l 1
 176 0 176 0 161 0 c 0
 144 0 144 0 4 -3 c 1
 8 32 l 1
EndSplineSet
KernsSLIF: 121 -9 0 0 362 15 0 0 363 15 0 0 117 15 0 0 250 6 0 0 351 6 0 0 352 6 0 0 111 6 0 0 45 -23 0 0 335 21 0 0 101 21 0 0 328 18 0 0 241 15 0 0 322 18 0 0 323 18 0 0 97 18 0 0 89 -4 0 0 87 -24 0 0 86 -24 0 0 298 -21 0 0 85 -21 0 0 84 -2 0 0 286 -26 0 0 287 -26 0 0 234 -5 0 0 79 -26 0 0 71 -27 0 0 264 -25 0 0 67 -25 0 0
EndChar
StartChar: S
Encoding: 83 83 52
Width: 556
Flags: W
HStem: -17 56<210 250> 639 56<331 370>
VStem: 104 92<450 526> 389 106<162 239> 465 30<504 533.654>
Fore
465 504 m 1xe8
 465 589 l 1xe8
 424 624 383 639 331 639 c 0
 252 639 196 592 196 526 c 0
 196 467 227 437 324 401 c 0
 407 370 428 359 457 333 c 0
 480 312 495 274 495 239 c 0
 495 163 453 85 384 35 c 0
 336 0 280 -17 210 -17 c 0
 141 -17 95 -6 50 23 c 1
 71 189 l 1
 98 189 l 1
 98 113 l 1
 124 64 175 39 250 39 c 0
 340 39 389 83 389 162 c 0xf0
 389 192 380 218 364 232 c 0
 345 250 334 255 266 280 c 0
 200 304 170 319 144 344 c 1
 118 367 104 406 104 450 c 0
 104 583 226 695 370 695 c 0
 424 695 474 680 517 651 c 1
 503 600 495 552 495 504 c 1
 465 504 l 1xe8
EndSplineSet
KernsSLIF: 116 -13 0 0 89 8 0 0 87 4 0 0 86 4 0 0 262 -1 0 0 256 -1 0 0 257 -1 0 0 225 -9 0 0 65 -1 0 0
EndChar
StartChar: T
Encoding: 84 84 53
Width: 611
Flags: W
HStem: 0 21G<249 268.5> 508 170<377 644> 630 48<436 525.439>
DStem: 81 676 108 566 56 508 94 508 304 630 436 630 219 132 341 100
Fore
436 630 m 1xa0
 341 100 l 2
 338 84 337 74 337 65 c 0
 337 44 347 36 373 35 c 2
 432 32 l 1
 427 -3 l 1
 278 0 278 0 259 0 c 0
 239 0 239 0 103 -3 c 1
 108 32 l 1
 161 35 l 2
 193 36 203 53 219 132 c 1
 304 630 l 1
 180 630 l 2xa0
 160 630 136 620 123 606 c 1
 118 599 113 587 108 566 c 2
 94 508 l 1
 56 508 l 1
 81 676 l 1
 87 681 l 1
 343 678 343 678 377 678 c 0
 411 678 411 678 667 681 c 1
 674 676 l 1
 644 508 l 1
 606 508 l 1xc0
 610 592 l 1
 611 618 594 630 553 630 c 2
 436 630 l 1xa0
EndSplineSet
KernsSLIF: 121 -64 0 0 119 -72 0 0 118 -69 0 0 117 -61 0 0 59 -53 0 0 115 -49 0 0 114 -60 0 0 46 -56 0 0 249 -61 0 0 111 -67 0 0 106 -17 0 0 105 -12 0 0 45 -48 0 0 172 -89 0 0 171 -77 0 0 103 -81 0 0 101 -53 0 0 44 -53 0 0 58 -51 0 0 99 -58 0 0 241 -59 0 0 97 -57 0 0 89 57 0 0 87 53 0 0 86 55 0 0 83 18 0 0 290 3 0 0 233 7 0 0 288 3 0 0 286 3 0 0 289 3 0 0 287 3 0 0 234 26 0 0 79 3 0 0 74 36 0 0 71 -1 0 0 261 -16 0 0 262 -16 0 0 258 -16 0 0 256 -16 0 0 259 -16 0 0 257 -16 0 0 225 -19 0 0 65 -16 0 0
EndChar
StartChar: U
Encoding: 85 85 54
Width: 778
Flags: W
HStem: -17 80<271 327>
VStem: 94 130<156 182>
DStem: 160 541 313 674 102 234 227 214 586 541 725 599 521 182 635 100
Fore
497 -3 m 1
 492 5 l 1
 501 45 506 68 519 133 c 1
 461 72 438 50 403 26 c 0
 364 -2 317 -17 271 -17 c 0
 209 -17 155 8 124 51 c 0
 104 77 94 112 94 156 c 0
 94 180 97 206 102 234 c 1
 160 541 l 1
 161 548 l 1
 162 550 162 552 162 555 c 0
 168 582 171 605 171 617 c 0
 171 633 159 642 134 643 c 2
 83 646 l 1
 88 681 l 1
 142 680 l 2
 182 679 209 678 220 678 c 0
 246 678 260 678 307 681 c 1
 313 674 l 1
 227 214 l 2
 225 203 224 192 224 178 c 0
 224 150 229 124 238 110 c 0
 255 81 290 63 327 63 c 0
 356 63 385 72 421 93 c 0
 469 121 518 164 521 182 c 1
 586 541 l 1
 586 543 587 546 588 550 c 0
 589 561 591 568 591 571 c 0
 595 590 597 606 597 617 c 0
 597 633 585 642 560 643 c 2
 509 646 l 1
 514 681 l 1
 644 678 644 678 666 678 c 0
 688 678 688 678 825 681 c 1
 820 646 l 1
 774 643 l 2
 739 641 732 635 725 599 c 1
 635 100 l 1
 632 85 631 74 631 65 c 0
 631 44 641 36 667 35 c 2
 726 32 l 1
 721 -3 l 1
 619 0 619 0 603 0 c 0
 585 0 585 0 497 -3 c 1
EndSplineSet
KernsSLIF: 114 4 0 0 46 10 0 0 112 4 0 0 110 11 0 0 109 5 0 0 44 11 0 0 261 47 0 0 262 47 0 0 256 47 0 0 259 47 0 0 257 47 0 0 225 43 0 0 65 47 0 0
EndChar
StartChar: V
Encoding: 86 86 55
Width: 667
Flags: W
HStem: -3 21G<249 332>
DStem: 154 585 284 594 249 -3 352 132
Fore
363 646 m 1
 313 643 l 2
 288 641 283 636 283 607 c 0
 283 602 283 600 284 594 c 2
 352 132 l 1
 585 567 l 2
 602 599 606 609 606 621 c 0
 606 635 596 642 573 643 c 2
 523 646 l 1
 528 681 l 1
 612 678 626 678 637 678 c 2
 745 681 l 1
 742 646 l 1
 716 643 l 2
 695 641 687 633 666 598 c 1
 332 -3 l 1
 249 -3 l 1
 154 585 l 1
 147 627 136 641 110 643 c 2
 67 646 l 1
 67 681 l 1
 189 678 189 678 215 678 c 0
 240 678 240 678 363 681 c 1
 363 646 l 1
EndSplineSet
KernsSLIF: 121 -18 0 0 117 -22 0 0 59 -52 0 0 114 -22 0 0 46 -69 0 0 249 -58 0 0 111 -58 0 0 105 -3 0 0 45 -24 0 0 172 -66 0 0 171 -53 0 0 103 -48 0 0 101 -51 0 0 44 -70 0 0 58 -46 0 0 241 -52 0 0 97 -62 0 0 84 57 0 0 83 -4 0 0 290 -33 0 0 233 -28 0 0 288 -33 0 0 286 -33 0 0 289 -33 0 0 287 -33 0 0 79 -33 0 0 71 -34 0 0 67 -33 0 0 261 -73 0 0 262 -73 0 0 258 -73 0 0 256 -73 0 0 259 -73 0 0 257 -73 0 0 225 -59 0 0 65 -73 0 0
EndChar
StartChar: W
Encoding: 87 87 56
Width: 1000
Flags: W
HStem: -3 21G<208 292 669 753> 669 20G<581 612>
DStem: 158 518 281 593 208 -3 316 145 538 491 612 689 669 -3 760 133 581 689 538 491 316 145 292 -3
Fore
538 491 m 1
 292 -3 l 1
 208 -3 l 1
 158 518 l 2
 157 528 156 535 156 539 c 0
 149 630 146 637 108 643 c 1
 67 646 l 1
 72 681 l 1
 192 678 192 678 217 678 c 0
 241 678 241 678 363 681 c 1
 363 646 l 1
 318 643 l 2
 289 640 281 628 281 593 c 1
 316 145 l 1
 581 689 l 1
 612 689 l 1
 760 133 l 1
 929 579 l 2
 939 605 940 609 940 619 c 0
 940 635 929 641 895 643 c 2
 850 646 l 1
 855 681 l 1
 945 678 945 678 964 678 c 0
 983 678 983 678 1073 681 c 1
 1068 646 l 1
 1034 643 l 2
 1016 642 1008 628 972 542 c 1
 753 -3 l 1
 669 -3 l 1
 538 491 l 1
EndSplineSet
KernsSLIF: 121 -2 0 0 117 -7 0 0 59 -30 0 0 114 -6 0 0 46 -34 0 0 249 -33 0 0 111 -32 0 0 105 -7 0 0 172 -42 0 0 171 -29 0 0 103 -32 0 0 101 -26 0 0 44 -35 0 0 58 -24 0 0 241 -41 0 0 97 -37 0 0 84 53 0 0 83 -7 0 0 290 -16 0 0 233 -12 0 0 288 -16 0 0 286 -16 0 0 289 -16 0 0 287 -16 0 0 79 -16 0 0 71 -18 0 0 67 -16 0 0 261 -42 0 0 262 -42 0 0 258 -42 0 0 256 -42 0 0 259 -42 0 0 257 -42 0 0 225 -46 0 0 65 -42 0 0
EndChar
StartChar: X
Encoding: 88 88 57
Width: 722
Flags: W
HStem: -3 37<380 442>
DStem: 178 614 332 593 330 323 421 418 330 323 353 280 88 61 185 88 353 280 443 377 454 81 594 82
Fore
330 323 m 1
 178 614 l 1
 171 629 147 641 122 643 c 2
 82 646 l 1
 82 681 l 1
 214 678 214 678 242 678 c 0
 270 678 270 678 402 681 c 1
 402 646 l 1
 362 643 l 2
 331 641 323 637 323 626 c 0
 323 616 326 605 332 593 c 2
 421 418 l 1
 573 590 l 1
 574 591 l 2
 588 607 594 616 594 624 c 0
 594 635 580 641 555 643 c 2
 507 646 l 1
 512 681 l 1
 619 678 619 678 642 678 c 0
 664 678 664 678 772 681 c 1
 770 646 l 1
 726 643 l 1
 712 644 675 619 648 590 c 2
 443 377 l 1
 594 82 l 2
 614 44 622 37 642 35 c 2
 689 32 l 1
 684 -3 l 1
 556 0 549 0 533 0 c 2
 380 -3 l 1
 380 32 l 1
 442 34 l 2
 453 34 461 41 461 50 c 0
 461 59 458 73 454 81 c 2
 353 280 l 1
 185 88 l 2
 175 77 170 64 170 52 c 0
 170 42 182 36 204 35 c 2
 259 32 l 1
 254 -3 l 1
 149 0 149 0 125 0 c 0
 103 0 103 0 -9 -3 c 1
 -4 32 l 1
 36 35 l 2
 53 36 76 48 88 61 c 2
 330 323 l 1
EndSplineSet
KernsSLIF: 121 -12 0 0 117 11 0 0 111 5 0 0 45 -30 0 0 101 19 0 0 97 15 0 0 81 -35 0 0 286 -35 0 0 79 -35 0 0 67 -28 0 0
EndChar
StartChar: Y
Encoding: 89 89 58
Width: 611
Flags: W
HStem: 0 21G<287.5 303.5> 597 98<102 172>
Fore
675 681 m 1
 669 593 l 1
 635 589 588 558 553 517 c 1
 486 443 401 283 392 217 c 1
 391 211 l 1
 390 206 l 1
 370 100 l 2
 368 89 367 78 367 67 c 0
 367 44 376 36 404 35 c 2
 463 32 l 1
 459 -3 l 1
 311 0 311 0 296 0 c 0
 279 0 279 0 139 -3 c 1
 143 32 l 1
 192 35 l 1
 226 39 226 39 246 132 c 2
 262 205 l 1
 264 213 266 235 266 245 c 0
 266 263 257 305 243 351 c 2
 211 456 l 2
 185 541 142 597 102 597 c 0
 85 597 67 593 57 587 c 1
 54 620 l 1
 79 637 91 646 144 690 c 1
 159 694 164 695 172 695 c 0
 197 695 225 684 245 666 c 0
 281 634 315 557 334 466 c 1
 370 297 l 1
 460 518 593 686 675 681 c 1
EndSplineSet
KernsSLIF: 118 -25 0 0 117 -37 0 0 59 -37 0 0 46 -40 0 0 112 -34 0 0 249 -45 0 0 111 -52 0 0 105 -10 0 0 45 -30 0 0 172 -68 0 0 171 -55 0 0 103 -57 0 0 101 -38 0 0 44 -37 0 0 58 -35 0 0 241 -43 0 0 97 -42 0 0 84 52 0 0 83 11 0 0 290 -16 0 0 233 -11 0 0 288 -16 0 0 286 -16 0 0 289 -16 0 0 287 -16 0 0 79 -16 0 0 71 -26 0 0 67 -23 0 0 225 -4 0 0
EndChar
StartChar: Z
Encoding: 90 90 59
Width: 667
Flags: W
HStem: -3 52<188 418> 629 50<257 496>
DStem: 496 629 671 646 1 24 188 49
Fore
1 -3 m 1
 1 24 l 1
 496 629 l 1
 332 629 l 2
 263 629 186 622 171 615 c 0
 164 612 158 603 153 586 c 2
 129 510 l 1
 94 510 l 1
 106 563 112 601 120 670 c 1
 127 681 l 1
 257 679 l 2
 315 678 361 678 397 678 c 0
 424 678 454 678 485 679 c 2
 676 681 l 1
 671 646 l 1
 188 49 l 1
 368 49 l 2
 442 49 497 53 553 64 c 1
 574 108 585 136 598 180 c 1
 634 180 l 1
 595 -3 l 1
 335 0 335 0 289 0 c 2
 70 -3 l 1
 1 -3 l 1
EndSplineSet
KernsSLIF: 121 -6 0 0
EndChar
StartChar: bracketleft
Encoding: 91 91 60
Width: 333
Flags: W
DStem: 165 645 247 603 81 86 161 56
Fore
376 684 m 1
 301 686 l 1
 261 685 261 684 247 603 c 1
 161 56 l 1
 155 15 152 -7 152 -21 c 0
 152 -49 161 -62 182 -63 c 2
 269 -67 l 1
 264 -102 l 1
 213 -100 165 -99 144 -99 c 0
 117 -99 113 -99 50 -102 c 1
 45 -94 l 1
 67 6 75 44 81 86 c 1
 165 645 l 1
 167 660 168 672 170 715 c 1
 177 723 l 1
 225 721 245 720 268 720 c 0
 288 720 311 721 381 723 c 1
 376 684 l 1
EndSplineSet
EndChar
StartChar: backslash
Encoding: 92 92 61
Width: 606
Flags: W
HStem: 0 21G<444 534>
DStem: 72 720 162 720 444 0 534 0
Fore
72 720 m 1
 162 720 l 1
 534 0 l 1
 444 0 l 1
 72 720 l 1
EndSplineSet
EndChar
StartChar: bracketright
Encoding: 93 93 62
Width: 333
Flags: W
DStem: 199 565 279 535 113 18 195 -24
Fore
-16 -63 m 1
 59 -65 l 1
 99 -64 99 -63 113 18 c 1
 199 565 l 1
 205 605 208 628 208 643 c 0
 208 670 198 683 178 684 c 2
 91 688 l 1
 96 723 l 1
 162 721 194 720 214 720 c 0
 240 720 260 721 310 723 c 1
 315 715 l 1
 294 620 286 579 279 535 c 1
 195 -24 l 1
 193 -39 192 -56 190 -94 c 1
 183 -102 l 1
 135 -100 114 -99 91 -99 c 0
 72 -99 49 -100 -21 -102 c 1
 -16 -63 l 1
EndSplineSet
EndChar
StartChar: asciicircum
Encoding: 94 94 63
Width: 606
Flags: W
DStem: 263 678 303 554 63 275 160 275 303 554 342 678 446 275 543 275
Fore
160 275 m 1
 63 275 l 1
 263 678 l 1
 342 678 l 1
 543 275 l 1
 446 275 l 1
 303 554 l 1
 160 275 l 1
EndSplineSet
EndChar
StartChar: underscore
Encoding: 95 95 64
Width: 500
Flags: W
HStem: -125 50<0 500>
Fore
500 -125 m 1
 0 -125 l 1
 0 -75 l 1
 500 -75 l 1
 500 -125 l 1
EndSplineSet
EndChar
StartChar: quoteleft
Encoding: 96 8216 65
Width: 278
Flags: W
Fore
79 431 m 1
 65 445 l 1
 124 560 168 627 225 692 c 1
 275 720 l 1
 291 709 l 1
 243 628 215 552 200 462 c 1
 172 459 169 459 115 442 c 2
 79 431 l 1
EndSplineSet
KernsSLIF: 89 19 1 0 87 21 1 0 86 22 1 0 84 15 1 0 262 -89 1 0 256 -89 1 0 257 -89 1 0 225 -98 1 0 65 -89 1 0
EndChar
StartChar: a
Encoding: 97 97 66
Width: 556
Flags: W
HStem: -17 82<98 174> 417 52<296 342>
VStem: 44 112<58 102>
DStem: 357 234 473 353 320 83 428 139
Fore
444 443 m 1
 489 470 l 1
 505 458 l 1
 487 409 480 384 473 353 c 1
 428 139 l 2
 422 110 418 90 418 89 c 0
 421 71 424 66 432 66 c 0
 440 66 469 82 487 96 c 2
 507 112 l 1
 519 82 l 1
 444 15 387 -17 345 -17 c 0
 325 -17 313 0 313 28 c 0
 313 45 315 64 320 83 c 1
 357 234 l 1
 264 71 173 -17 98 -17 c 0
 67 -17 44 14 44 58 c 0
 44 138 80 274 115 327 c 0
 131 353 200 411 253 446 c 0
 280 463 304 469 342 469 c 0
 374 469 397 463 444 443 c 1
377 395 m 1
 342 412 323 417 296 417 c 0
 253 417 225 387 203 318 c 0
 178 241 156 139 156 102 c 0
 156 82 164 65 174 65 c 0
 195 65 233 99 274 153 c 0
 330 228 363 305 377 395 c 1
EndSplineSet
KernsSLIF: 121 4 0 0 119 -5 0 0 118 -2 0 0 39 9 0 0 106 -8 0 0
EndChar
StartChar: b
Encoding: 98 98 67
Width: 537
Flags: W
HStem: -17 46<165 222> 449 20G<397 444>
VStem: 44 110<93 118> 380 114<319 353>
Fore
255 726 m 1
 265 717 l 1
 257 683 254 667 251 652 c 2
 180 304 l 1
 220 363 242 389 279 416 c 0
 327 451 374 469 420 469 c 0
 468 469 494 428 494 353 c 0
 494 206 436 96 324 31 c 0
 272 1 212 -17 165 -17 c 0
 90 -17 44 24 44 93 c 0
 44 109 45 120 53 165 c 1
 126 596 l 2
 128 608 129 618 129 627 c 0
 129 644 118 652 95 652 c 2
 50 652 l 1
 57 680 l 1
 157 695 206 706 255 726 c 1
341 403 m 0
 302 407 223 340 193 277 c 0
 169 226 154 163 154 118 c 0
 154 63 180 29 222 29 c 0
 263 29 301 61 331 121 c 0
 356 172 380 268 380 319 c 0
 380 369 366 400 341 403 c 0
EndSplineSet
KernsSLIF: 121 22 0 0 119 15 0 0 118 19 0 0
EndChar
StartChar: c
Encoding: 99 99 68
Width: 444
Flags: W
HStem: -17 67<159 225> 407 62<278 323>
VStem: 32 114<119 144>
Fore
391 120 m 1
 401 90 l 1
 283 8 227 -17 159 -17 c 0
 81 -17 32 36 32 119 c 0
 32 191 56 286 85 332 c 0
 103 360 137 389 190 420 c 0
 254 459 283 469 323 469 c 0
 357 469 383 464 436 445 c 1
 422 408 417 388 401 304 c 1
 368 304 l 1
 374 360 l 1
 370 374 l 1
 338 397 309 407 278 407 c 0
 238 407 206 383 186 339 c 0
 165 292 146 198 146 140 c 0
 146 85 177 50 225 50 c 0
 272 50 312 67 391 120 c 1
EndSplineSet
KernsSLIF: 104 4 0 0
EndChar
StartChar: d
Encoding: 100 100 69
Width: 556
Flags: W
HStem: -17 82<101 176> 419 50<299 331>
VStem: 38 114<70 96>
Fore
396 460 m 1
 414 572 l 1
 417 593 418 599 418 610 c 0
 418 639 407 652 380 652 c 2
 335 652 l 1
 342 680 l 1
 442 695 491 706 540 726 c 1
 550 717 l 1
 547 704 546 698 544 693 c 0
 544 690 542 684 536 652 c 1
 429 121 l 1
 426 105 424 91 424 81 c 0
 424 73 430 65 438 65 c 0
 443 65 453 71 487 93 c 2
 513 110 l 1
 522 82 l 1
 486 56 l 2
 428 13 372 -17 350 -17 c 0
 331 -17 315 1 315 24 c 0
 315 38 317 55 322 74 c 1
 362 238 l 1
 297 130 264 86 217 45 c 0
 168 3 132 -17 101 -17 c 0
 65 -17 38 20 38 70 c 0
 38 168 72 297 112 348 c 0
 137 381 199 426 256 452 c 0
 282 464 304 469 331 469 c 0
 351 469 367 467 396 460 c 1
360 306 m 2
 384 401 l 1
 347 415 327 419 299 419 c 0
 249 419 231 406 208 353 c 0
 179 287 152 159 152 92 c 0
 152 76 162 65 176 65 c 0
 195 65 225 87 254 124 c 0
 307 190 349 262 360 306 c 2
EndSplineSet
EndChar
StartChar: e
Encoding: 101 101 70
Width: 444
Flags: W
HStem: -17 64<149 215> 421 48<276 325>
VStem: 28 114<100 129> 324 94<366 381>
Fore
377 114 m 1
 387 86 l 1
 382 83 377 80 373 77 c 2
 358 68 l 2
 259 3 209 -17 149 -17 c 0
 74 -17 28 27 28 100 c 0
 28 168 55 273 88 331 c 0
 127 400 246 469 325 469 c 0
 382 469 418 435 418 381 c 0
 418 323 382 277 311 243 c 0
 269 223 232 212 147 193 c 1
 143 164 142 149 142 129 c 0
 142 77 169 47 215 47 c 0
 256 47 302 66 377 114 c 1
151 219 m 1
 192 231 l 2
 273 255 324 307 324 368 c 0
 324 401 306 421 276 421 c 0
 227 421 187 370 165 277 c 2
 151 219 l 1
EndSplineSet
KernsSLIF: 121 30 0 0 120 18 0 0 119 20 0 0 118 24 0 0 116 16 0 0 39 27 0 0
EndChar
StartChar: f
Encoding: 102 102 71
Width: 333
Flags: W
HStem: -271 75<-92 -30> 403 51<250 281.712> 646 80<333 402>
Fore
362 403 m 1
 239 403 l 1
 184 168 l 2
 136 -36 106 -111 44 -184 c 0
 4 -231 -58 -271 -92 -271 c 0
 -104 -271 -121 -267 -130 -262 c 1
 -119 -238 -103 -183 -98 -155 c 1
 -81 -152 l 1
 -67 -183 -52 -196 -30 -196 c 0
 6 -196 17 -168 46 -14 c 0
 47 -6 51 12 54 29 c 1
 125 403 l 1
 34 403 l 1
 39 428 l 1
 89 444 l 2
 114 452 129 458 139 463 c 1
 140 469 141 472 143 483 c 0
 155 542 166 561 210 602 c 1
 266 651 l 2
 281 664 316 689 345 707 c 0
 370 722 381 726 402 726 c 0
 416 726 427 724 449 718 c 1
 436 670 429 640 421 593 c 1
 406 590 l 1
 375 634 359 646 333 646 c 0
 294 646 279 615 256 483 c 0
 255 479 253 467 250 454 c 1
 293 455 324 457 373 462 c 1
 378 454 l 1
 372 440 369 429 362 403 c 1
EndSplineSet
KernsSLIF: 116 46 0 0 115 10 0 0 39 37 0 0 249 -7 0 0 250 -8 0 0 351 -4 0 0 352 -7 0 0 111 -7 0 0 108 50 0 0 106 16 0 0 105 20 0 0 102 50 0 0 335 -7 0 0 101 -7 0 0 328 -23 0 0 241 10 0 0 322 -4 0 0 323 -23 0 0 97 -23 0 0
EndChar
StartChar: g
Encoding: 103 103 72
Width: 500
Flags: W
HStem: -271 36<156 189> 137 35<212 230> 425 44<266 290>
VStem: -50 89<-146 -131> 54 103<254 274> 309 104<-144 -105> 334 108<320 354>
DStem: 524 449 524 449 453 446 529 440
Fore
519 390 m 1xfc
 431 394 l 1
 439 370 442 355 442 335 c 0xfa
 442 272 413 219 360 185 c 0
 342 173 321 163 285 149 c 0
 244 134 227 121 227 103 c 0
 227 92 236 79 250 69 c 2
 335 9 l 2
 390 -30 413 -63 413 -105 c 0
 413 -201 306 -271 159 -271 c 0
 33 -271 -50 -222 -50 -146 c 0
 -50 -109 -30 -75 9 -47 c 0
 39 -25 73 -10 142 12 c 1
 127 23 117 42 116 61 c 1
 120 81 l 1
 212 137 l 1
 148 138 117 146 90 169 c 0
 65 191 54 220 54 266 c 0
 54 326 76 371 120 404 c 0
 169 440 245 469 290 469 c 0
 317 469 352 461 380 449 c 1
 398 447 428 446 453 446 c 2
 524 449 l 1
 529 440 l 1
 519 390 l 1xfc
266 425 m 0
 232 425 205 409 187 379 c 0
 170 352 157 296 157 256 c 0
 157 204 185 172 230 172 c 0
 292 172 334 240 334 340 c 0
 334 394 310 425 266 425 c 0
163 -5 m 1
 135 -18 l 2
 69 -49 39 -84 39 -131 c 0
 39 -193 95 -235 178 -235 c 0
 252 -235 309 -196 309 -144 c 0xfc
 309 -114 292 -92 245 -60 c 2
 163 -5 l 1
EndSplineSet
KernsSLIF: 114 24 0 0 351 -12 0 0 352 -12 0 0 108 -6 0 0 335 -12 0 0 101 -12 0 0 328 -25 0 0 241 5 0 0 322 -25 0 0 97 -25 0 0
EndChar
StartChar: h
Encoding: 104 104 73
Width: 556
Flags: W
HStem: -17 82<337 436> 381 88<359 463>
VStem: 306 118<24 81>
Fore
269 652 m 1
 180 244 l 1
 264 378 378 469 463 469 c 0
 486 469 501 451 501 425 c 0
 501 401 496 376 481 325 c 0
 475 306 473 300 470 288 c 2
 432 144 l 2
 427 124 424 103 424 81 c 0
 424 71 428 65 436 65 c 0
 445 65 462 73 497 95 c 2
 513 105 l 1
 522 79 l 1
 418 8 371 -17 337 -17 c 0
 319 -17 306 1 306 24 c 0
 306 55 320 117 354 237 c 0
 371 295 379 333 379 352 c 0
 379 370 372 381 359 381 c 0
 315 381 240 302 194 208 c 0
 167 153 147 80 138 4 c 1
 102 2 54 -6 32 -13 c 1
 22 -2 l 1
 40 35 69 158 102 334 c 0
 131 488 150 604 150 627 c 0
 150 644 139 652 116 652 c 2
 71 652 l 1
 78 680 l 1
 178 695 227 706 276 726 c 1
 286 717 l 1
 283 706 280 693 279 689 c 0
 274 671 270 658 269 652 c 1
EndSplineSet
KernsSLIF: 121 12 0 0 39 12 0 0
EndChar
StartChar: i
Encoding: 105 105 74
Width: 333
Flags: W
HStem: -17 82<99 193> 370 99<130 238> 564 131<243 257>
VStem: 67 114<26 77>
DStem: 132 319 255 365 73 78 201 169
Fore
26 346 m 1
 89 393 l 2
 150 439 210 469 238 469 c 0
 253 469 264 454 264 432 c 0
 264 413 260 383 255 365 c 2
 201 169 l 2
 188 122 181 89 181 77 c 0
 181 71 187 65 193 65 c 0
 202 65 220 74 254 95 c 2
 281 112 l 1
 293 84 l 1
 282 76 278 74 265 64 c 0
 184 6 137 -17 99 -17 c 0
 80 -17 67 0 67 26 c 0
 67 41 70 64 73 78 c 1
 132 319 l 2
 138 343 140 354 140 359 c 0
 140 366 136 370 130 370 c 0
 121 370 80 350 61 336 c 2
 39 320 l 1
 26 346 l 1
257 695 m 0
 289 695 312 670 312 636 c 0
 312 595 283 564 243 564 c 0
 210 564 189 586 189 621 c 0
 189 662 219 695 257 695 c 0
EndSplineSet
KernsSLIF: 106 -7 0 0 84 7 0 0
EndChar
StartChar: j
Encoding: 106 106 75
Width: 333
Flags: W
HStem: -271 54<-30 4> 370 99<140 248> 564 131<254 268>
VStem: 200 123<621 636>
DStem: 136 269 265 365 50 -139 198 91
Fore
49 320 m 1
 36 346 l 1
 99 393 l 2
 160 439 220 469 248 469 c 0
 264 469 274 454 274 429 c 0
 274 411 271 389 265 365 c 2
 198 91 l 2
 165 -44 134 -123 91 -185 c 0
 50 -243 11 -271 -30 -271 c 0
 -40 -271 -48 -270 -64 -266 c 1
 -59 -238 -56 -219 -54 -187 c 1
 -40 -184 l 1
 -26 -206 -12 -217 4 -217 c 0
 24 -217 39 -193 50 -139 c 1
 136 269 l 1
 145 314 150 342 150 357 c 0
 150 366 147 370 140 370 c 0
 131 370 90 350 71 336 c 2
 49 320 l 1
268 695 m 0
 300 695 323 670 323 636 c 0
 323 595 294 564 254 564 c 0
 221 564 200 586 200 621 c 0
 200 662 230 695 268 695 c 0
EndSplineSet
EndChar
StartChar: k
Encoding: 107 107 76
Width: 556
Flags: W
HStem: -17 82<354 437> 398 71<459 485>
DStem: 231 235 313 318 288 80 378 145
Fore
286 726 m 1
 296 717 l 1
 292 703 290 695 289 689 c 0
 284 671 280 658 279 652 c 1
 184 221 l 1
 224 276 273 330 331 385 c 0
 394 445 438 469 485 469 c 0
 497 469 513 466 528 460 c 1
 508 390 l 1
 486 396 474 398 459 398 c 0
 407 398 359 372 313 318 c 1
 378 145 l 2
 396 98 420 65 437 65 c 0
 447 65 460 71 483 85 c 2
 510 102 l 1
 520 73 l 1
 476 42 l 2
 421 3 379 -17 354 -17 c 0
 331 -17 315 7 288 80 c 2
 231 235 l 1
 200 201 l 1
 179 176 177 170 165 110 c 0
 153 53 151 37 149 4 c 1
 120 2 104 -1 44 -14 c 1
 34 -5 l 1
 51 38 81 169 112 334 c 0
 141 488 160 604 160 627 c 0
 160 644 149 652 126 652 c 2
 81 652 l 1
 88 680 l 1
 188 695 237 706 286 726 c 1
EndSplineSet
KernsSLIF: 362 4 0 0 117 4 0 0 115 13 0 0 46 10 0 0 351 6 0 0 352 6 0 0 111 6 0 0 45 -47 0 0 103 -19 0 0 335 17 0 0 101 17 0 0 44 7 0 0 328 10 0 0 241 10 0 0 322 10 0 0 323 10 0 0 97 10 0 0
EndChar
StartChar: l
Encoding: 108 108 77
Width: 333
Flags: W
HStem: -17 82<96 194>
DStem: 179 596 301 652 80 146 194 170
Fore
277 114 m 1
 291 87 l 1
 175 2 139 -17 96 -17 c 0
 75 -17 64 1 64 36 c 0
 64 70 65 80 80 146 c 1
 179 596 l 1
 182 608 183 618 183 627 c 0
 183 643 171 652 148 652 c 2
 103 652 l 1
 110 680 l 1
 210 695 259 706 308 726 c 1
 318 717 l 1
 315 706 312 695 311 689 c 0
 306 671 302 658 301 652 c 1
 194 170 l 1
 186 136 182 102 182 79 c 0
 182 71 187 65 194 65 c 0
 204 65 229 77 247 91 c 2
 277 114 l 1
EndSplineSet
KernsSLIF: 121 -3 0 0 118 -10 0 0
EndChar
StartChar: m
Encoding: 109 109 78
Width: 833
Flags: W
HStem: -17 21G<603 624.5> 370 99<111 213>
VStem: 124 113<354 439> 389 113<343 423> 577 118<23 77>
DStem: 103 416 70 350 19 348 33 322
Fore
19 348 m 1
 103 416 l 2
 142 447 187 469 213 469 c 0
 228 469 237 457 237 439 c 0
 237 422 233 398 218 336 c 1
 189 212 l 1
 243 313 291 370 367 426 c 0
 411 458 436 469 463 469 c 0
 487 469 502 452 502 423 c 0
 502 402 497 376 483 327 c 2
 449 207 l 1
 485 284 524 338 582 388 c 0
 637 437 699 469 738 469 c 0
 760 469 775 451 775 422 c 0
 775 401 772 377 765 353 c 1
 715 169 l 2
 702 122 695 89 695 77 c 0
 695 71 701 65 706 65 c 0
 716 65 738 76 767 97 c 2
 791 114 l 1
 803 89 l 1
 750 45 729 30 695 12 c 0
 658 -9 635 -17 614 -17 c 0
 592 -17 577 -1 577 23 c 0
 577 61 591 121 631 263 c 0
 644 306 652 342 652 354 c 0
 652 363 645 370 636 370 c 0
 599 370 526 299 482 220 c 0
 446 156 425 85 419 4 c 1
 383 2 336 -6 315 -13 c 1
 305 -2 l 1
 347 125 389 298 389 343 c 0
 389 360 382 370 370 370 c 0
 333 370 292 333 242 255 c 0
 196 184 171 109 155 4 c 1
 119 2 72 -6 51 -13 c 1
 41 -2 l 1
 85 130 124 298 124 354 c 0
 124 364 119 370 111 370 c 0
 102 370 87 363 70 350 c 2
 33 322 l 1
 19 348 l 1
EndSplineSet
KernsSLIF: 121 12 0 0 119 1 0 0 118 5 0 0 112 9 0 0
EndChar
StartChar: n
Encoding: 110 110 79
Width: 556
Flags: W
HStem: -17 82<341 434> 370 99<103 203>
VStem: 114 116<353 439> 305 118<25 82>
Fore
30 331 m 1
 17 358 l 1
 101 420 l 2
 146 454 179 469 203 469 c 0
 220 469 230 458 230 439 c 0
 230 411 224 382 196 282 c 2
 179 222 l 1
 214 282 231 307 266 344 c 1
 333 418 414 469 461 469 c 0
 484 469 500 452 500 427 c 0
 500 414 494 382 484 344 c 2
 436 160 l 1
 428 128 423 100 423 82 c 0
 423 71 427 65 434 65 c 0
 444 65 455 71 479 87 c 2
 508 107 l 1
 521 80 l 1
 492 59 l 2
 417 3 377 -17 341 -17 c 0
 320 -17 305 1 305 25 c 0
 305 54 321 125 353 237 c 0
 368 288 378 333 378 349 c 0
 378 363 371 370 358 370 c 0
 310 370 219 260 181 154 c 0
 168 120 151 50 145 4 c 1
 109 2 61 -6 39 -13 c 1
 29 -2 l 1
 75 136 114 298 114 353 c 0
 114 364 110 370 103 370 c 0
 92 370 78 364 62 353 c 2
 30 331 l 1
EndSplineSet
KernsSLIF: 121 11 0 0 118 4 0 0 39 13 0 0 112 9 0 0 84 -38 0 0
EndChar
StartChar: o
Encoding: 111 111 80
Width: 556
Flags: W
HStem: -17 44<196 243> 425 44<308 350>
VStem: 48 114<124 160> 388 114<302 336>
Fore
350 469 m 0
 446 469 502 414 502 319 c 0
 502 256 483 174 456 126 c 0
 434 86 377 37 321 10 c 0
 281 -8 242 -17 196 -17 c 0
 98 -17 48 34 48 135 c 0
 48 176 56 223 72 272 c 0
 93 337 127 380 189 419 c 0
 241 452 297 469 350 469 c 0
308 425 m 0
 275 425 247 408 223 374 c 0
 188 324 162 220 162 130 c 0
 162 67 193 27 243 27 c 0
 275 27 303 44 327 78 c 0
 362 128 388 233 388 323 c 0
 388 385 356 425 308 425 c 0
EndSplineSet
KernsSLIF: 121 16 0 0 120 3 0 0 119 10 0 0 118 14 0 0 116 -4 0 0 39 9 0 0 84 -70 0 0
EndChar
StartChar: p
Encoding: 112 112 81
Width: 556
Flags: W
HStem: -17 49<205 255> 391 78<374 460>
VStem: 114 116<354 438> 402 114<333 370>
Fore
-11 -271 m 1
 -21 -264 l 1
 -9 -224 -2 -197 11 -142 c 2
 90 198 l 1
 114 324 114 324 114 354 c 0
 114 364 110 370 103 370 c 0
 92 370 78 364 62 353 c 2
 30 331 l 1
 17 358 l 1
 101 420 l 2
 146 454 179 469 203 469 c 0
 221 469 230 458 230 438 c 0
 230 417 224 381 210 321 c 0
 208 309 201 281 195 253 c 1
 242 332 268 366 312 403 c 0
 366 448 413 469 460 469 c 0
 497 469 516 436 516 370 c 0
 516 251 474 138 409 82 c 0
 371 50 318 13 291 0 c 0
 266 -11 238 -17 205 -17 c 0
 184 -17 170 -15 149 -10 c 1
 113 -152 105 -190 101 -250 c 1
 83 -252 64 -255 21 -264 c 0
 6 -268 2 -269 -11 -271 c 1
175 121 m 2
 161 59 l 1
 194 40 223 32 255 32 c 0
 287 32 316 52 335 86 c 0
 372 152 402 264 402 333 c 0
 402 371 392 391 374 391 c 0
 337 391 284 346 237 274 c 0
 203 222 191 191 175 121 c 2
EndSplineSet
KernsSLIF: 121 24 0 0 116 9 0 0
EndChar
StartChar: q
Encoding: 113 113 82
Width: 537
Flags: W
HStem: -17 82<83 168> 417 52<298 332>
VStem: 32 114<56 98> 260 99<-241 -173>
DStem: 345 194 472 315 262 -165 380 -113
Fore
448 443 m 1
 495 469 l 1
 513 458 l 1
 499 428 490 396 472 315 c 1
 380 -113 l 1
 379 -117 l 1
 378 -123 l 1
 366 -176 359 -217 359 -241 c 0
 359 -242 359 -246 360 -252 c 1
 315 -255 283 -259 228 -271 c 1
 219 -253 l 1
 234 -241 l 2
 242 -235 250 -212 260 -173 c 0
 260 -171 261 -169 261 -169 c 1
 262 -165 l 1
 345 194 l 1
 237 51 154 -17 83 -17 c 0
 54 -17 32 15 32 56 c 0
 32 137 68 276 103 328 c 0
 120 353 171 395 236 436 c 0
 281 464 294 469 332 469 c 0
 377 469 409 462 448 443 c 1
374 357 m 2
 382 396 l 1
 347 412 325 417 298 417 c 0
 262 417 240 406 223 379 c 0
 191 326 146 164 146 98 c 0
 146 78 155 65 168 65 c 0
 193 65 229 94 279 154 c 0
 331 218 356 271 374 357 c 2
EndSplineSet
KernsSLIF: 117 11 0 0
EndChar
StartChar: r
Encoding: 114 114 83
Width: 389
Flags: W
HStem: 339 130<327 384>
VStem: 121 113<354 437>
Fore
20 352 m 1
 101 416 l 2
 146 451 182 469 209 469 c 0
 225 469 234 458 234 437 c 0
 234 423 230 401 219 359 c 0
 215 343 211 323 203 290 c 1
 187 219 l 1
 264 375 280 404 307 432 c 0
 331 457 356 469 384 469 c 0
 394 469 401 467 411 463 c 1
 396 397 392 368 391 326 c 1
 379 320 l 1
 358 334 344 339 327 339 c 0
 281 339 242 291 204 188 c 0
 188 143 177 93 163 2 c 1
 105 -4 82 -8 55 -17 c 1
 44 -5 l 1
 58 38 65 62 71 87 c 1
 95 194 l 1
 121 328 121 328 121 354 c 0
 121 364 116 370 109 370 c 0
 100 370 85 362 67 350 c 2
 33 326 l 1
 20 352 l 1
EndSplineSet
KernsSLIF: 122 14 0 0 121 45 0 0 120 32 0 0 119 37 0 0 118 41 0 0 117 40 0 0 116 35 0 0 59 3 0 0 115 17 0 0 114 41 0 0 39 49 0 0 113 4 0 0 46 -51 0 0 112 43 0 0 249 7 0 0 353 7 0 0 250 9 0 0 351 7 0 0 354 7 0 0 352 7 0 0 111 7 0 0 110 43 0 0 109 41 0 0 108 -7 0 0 107 -2 0 0 106 33 0 0 105 39 0 0 45 17 0 0 104 2 0 0 103 22 0 0 102 39 0 0 336 11 0 0 337 11 0 0 335 11 0 0 101 11 0 0 100 5 0 0 44 -52 0 0 58 8 0 0 332 14 0 0 99 14 0 0 328 -1 0 0 324 -1 0 0 322 -1 0 0 325 -1 0 0 323 -1 0 0 97 -1 0 0
EndChar
StartChar: s
Encoding: 115 115 84
Width: 444
Flags: W
HStem: -17 55<162 206> 414 55<243 284>
VStem: 68 93<298 341> 294 100<110 160>
Fore
76 141 m 1
 76 94 l 1
 110 58 156 38 206 38 c 0
 260 38 294 66 294 110 c 0
 294 146 272 168 226 177 c 2
 182 186 l 2
 106 201 68 239 68 298 c 0
 68 343 85 372 131 405 c 0
 198 453 236 469 284 469 c 0
 330 469 365 460 406 438 c 1
 400 405 l 2
 391 357 389 346 389 322 c 1
 359 322 l 1
 353 370 l 1
 314 401 283 414 243 414 c 0
 194 414 161 385 161 341 c 0
 161 306 180 291 237 278 c 2
 296 265 l 2
 357 251 394 212 394 160 c 0
 394 123 381 97 348 66 c 0
 289 10 227 -17 162 -17 c 0
 124 -17 92 -11 25 10 c 1
 38 72 42 100 46 141 c 1
 76 141 l 1
EndSplineSet
KernsSLIF: 116 8 0 0 39 17 0 0
EndChar
StartChar: t
Encoding: 116 116 85
Width: 389
Flags: W
HStem: -17 81<133 221>
VStem: 79 117<44 92>
DStem: 151 401 256 401 89 108 205 164 330 125 343 99 274 85 266 42 403 457 403 457 269 452 409 452
Fore
151 401 m 1
 42 401 l 1
 49 428 l 1
 164 460 l 1
 178 537 180 556 180 582 c 2
 180 598 l 1
 202 601 218 605 237 612 c 2
 303 636 l 1
 313 624 l 1
 297 566 289 538 282 508 c 2
 269 452 l 1
 403 457 l 1
 409 452 l 1
 395 396 l 1
 363 400 342 401 303 401 c 2
 256 401 l 1
 205 164 l 2
 199 136 196 113 196 92 c 0
 196 71 202 64 221 64 c 0
 238 64 252 70 274 85 c 2
 330 125 l 1
 343 99 l 1
 266 42 l 2
 210 1 170 -17 133 -17 c 0
 98 -17 79 5 79 44 c 0
 79 59 80 64 89 108 c 1
 151 401 l 1
EndSplineSet
KernsSLIF: 59 1 0 0 39 25 0 0 351 1 0 0 352 1 0 0 111 1 0 0 104 1 0 0 335 12 0 0 101 12 0 0 58 7 0 0 328 3 0 0 241 3 0 0 322 3 0 0 323 3 0 0 97 3 0 0 83 11 0 0
EndChar
StartChar: u
Encoding: 117 117 86
Width: 556
Flags: W
HStem: -17 91<346 434> 370 99<104 217>
VStem: 53 117<40 84> 312 108<26 86>
Fore
22 365 m 1
 101 419 l 2
 146 450 191 469 217 469 c 0
 234 469 244 456 244 434 c 0
 244 405 240 386 215 287 c 2
 180 150 l 1
 174 125 170 101 170 84 c 0
 170 77 177 71 186 71 c 0
 215 71 269 125 317 202 c 0
 365 280 395 372 397 447 c 1
 430 446 464 452 507 465 c 1
 516 454 l 1
 492 374 483 345 474 313 c 0
 461 260 439 174 438 171 c 0
 436 165 435 160 435 158 c 0
 425 125 420 99 420 86 c 0
 420 79 426 74 434 74 c 0
 448 74 469 84 489 99 c 2
 511 116 l 1
 521 88 l 1
 508 79 492 66 486 62 c 0
 427 17 367 -17 346 -17 c 0
 326 -17 312 1 312 26 c 0
 312 42 317 68 328 107 c 2
 360 224 l 1
 261 68 168 -17 97 -17 c 0
 71 -17 53 6 53 40 c 0
 53 57 57 78 66 114 c 1
 71 130 l 1
 72 136 l 1
 87 193 l 2
 110 282 121 333 121 354 c 0
 121 364 115 370 104 370 c 0
 94 370 82 366 71 360 c 2
 35 339 l 1
 22 365 l 1
EndSplineSet
KernsSLIF: 39 15 0 0
EndChar
StartChar: v
Encoding: 118 118 87
Width: 556
Flags: W
HStem: -17 63<205 263> 392 69<98 132>
VStem: 87 110<123 147> 436 77<334 370>
DStem: 60 456 75 384 19 324 47 324
Fore
19 324 m 1
 60 456 l 1
 82 460 95 461 111 461 c 0
 128 461 147 460 231 456 c 0
 238 455 243 455 246 455 c 0
 270 455 298 461 310 469 c 1
 324 450 l 1
 265 380 240 338 217 269 c 0
 204 227 197 187 197 147 c 0
 197 82 220 46 263 46 c 0
 306 46 344 76 378 135 c 0
 412 195 436 278 436 334 c 0
 436 366 420 389 397 389 c 0
 383 389 370 385 361 377 c 1
 351 398 l 1
 370 412 385 428 417 465 c 1
 429 468 435 469 443 469 c 0
 480 469 513 423 513 370 c 0
 513 279 452 149 368 63 c 0
 319 12 260 -17 205 -17 c 0
 131 -17 87 35 87 123 c 0
 87 207 119 268 213 362 c 2
 254 403 l 1
 220 395 184 392 117 392 c 0
 89 392 77 390 75 384 c 1
 47 324 l 1
 19 324 l 1
EndSplineSet
KernsSLIF: 59 -20 0 0 115 -7 0 0 46 -28 0 0 249 -13 0 0 353 -12 0 0 351 -12 0 0 352 -12 0 0 111 -12 0 0 108 -19 0 0 45 20 0 0 103 -2 0 0 336 -6 0 0 337 -6 0 0 335 -6 0 0 101 -6 0 0 44 -28 0 0 58 -13 0 0 99 -6 0 0 327 -18 0 0 328 -18 0 0 324 -18 0 0 241 -24 0 0 322 -18 0 0 325 -18 0 0 323 -18 0 0 97 -18 0 0
EndChar
StartChar: w
Encoding: 119 119 88
Width: 833
Flags: W
HStem: -17 63<192 253> 392 69<106 140>
VStem: 91 114<120 146> 399 97<90 127> 725 77<335 371>
DStem: 68 456 83 384 27 324 55 324
Fore
27 324 m 1
 68 456 l 1
 90 460 103 461 119 461 c 0
 136 461 155 460 239 456 c 0
 246 455 251 455 254 455 c 0
 278 455 306 461 318 469 c 1
 332 450 l 1
 272 380 248 338 225 269 c 0
 212 227 205 186 205 146 c 0
 205 85 224 46 253 46 c 0
 309 46 386 154 411 269 c 2
 435 378 l 1
 440 403 442 413 445 442 c 1
 484 447 511 453 552 469 c 1
 564 460 l 1
 519 299 496 188 496 127 c 0
 496 79 519 46 553 46 c 0
 593 46 631 77 665 137 c 0
 700 198 725 282 725 335 c 0
 725 368 709 389 683 389 c 0
 670 389 658 386 647 381 c 1
 635 404 l 1
 669 427 685 441 706 465 c 1
 718 468 724 469 732 469 c 0
 769 469 802 423 802 371 c 0
 802 281 741 152 657 65 c 0
 606 13 546 -17 493 -17 c 0
 436 -17 399 25 399 90 c 0
 399 115 401 133 408 177 c 1
 365 94 333 53 282 17 c 0
 249 -7 222 -17 192 -17 c 0
 130 -17 91 36 91 120 c 0
 91 204 124 265 221 362 c 2
 262 403 l 1
 228 395 192 392 125 392 c 0
 97 392 85 390 83 384 c 1
 55 324 l 1
 27 324 l 1
EndSplineSet
KernsSLIF: 59 -14 0 0 115 -1 0 0 46 -24 0 0 249 -7 0 0 353 -7 0 0 351 -7 0 0 352 -7 0 0 111 -7 0 0 108 -13 0 0 45 26 0 0 103 3 0 0 336 -1 0 0 337 -1 0 0 335 -1 0 0 101 -1 0 0 44 -23 0 0 58 -8 0 0 327 -12 0 0 328 -12 0 0 324 -12 0 0 241 -19 0 0 322 -12 0 0 325 -12 0 0 323 -12 0 0 97 -12 0 0
EndChar
StartChar: x
Encoding: 120 120 89
Width: 500
Flags: W
HStem: -17 80<35 66> 381 88<426 461>
DStem: 206 197 214 160 154 124 129 46 351 386 334 312 288 299 296 261
Fore
8 98 m 1
 32 100 l 1
 38 69 l 1
 49 65 57 63 66 63 c 0
 96 63 125 83 154 124 c 2
 206 197 l 1
 190 285 l 2
 179 346 156 384 131 384 c 0
 107 384 74 361 59 335 c 1
 36 348 l 1
 50 366 64 389 85 429 c 0
 90 439 90 440 95 449 c 1
 136 465 151 469 171 469 c 0
 203 469 231 456 248 433 c 0
 264 412 274 381 284 322 c 2
 288 299 l 1
 351 386 l 2
 390 441 428 469 461 469 c 0
 473 469 488 465 500 459 c 1
 488 436 484 417 477 353 c 1
 456 348 l 1
 447 376 l 1
 437 380 432 381 426 381 c 0
 402 381 364 353 334 312 c 2
 296 261 l 1
 307 197 l 2
 315 152 328 107 339 84 c 0
 346 72 358 64 371 64 c 0
 381 64 390 68 418 88 c 2
 448 109 l 1
 464 86 l 1
 446 70 l 2
 369 5 333 -17 303 -17 c 0
 285 -17 266 -7 254 10 c 0
 240 28 233 53 224 102 c 1
 214 160 l 1
 129 46 l 2
 100 7 64 -17 35 -17 c 0
 22 -17 11 -13 -8 -3 c 1
 1 36 5 61 8 98 c 1
EndSplineSet
KernsSLIF: 113 15 0 0 111 6 0 0 335 17 0 0 101 17 0 0 99 14 0 0 97 9 0 0
EndChar
StartChar: y
Encoding: 121 121 90
Width: 556
Flags: W
HStem: -271 46<119 162> -17 21G<133.5 161> 449 20G<184.5 208>
VStem: 100 107<70 108>
DStem: 125 337 230 326 106 155 211 163
Fore
27 329 m 1
 13 357 l 1
 93 419 l 2
 132 449 173 469 196 469 c 0
 220 469 235 445 235 406 c 0
 235 382 233 354 230 326 c 1
 211 163 l 2
 208 138 207 123 207 108 c 0
 207 82 213 67 224 67 c 0
 254 67 305 123 347 202 c 0
 388 279 417 378 419 447 c 1
 452 446 486 452 529 465 c 1
 541 453 l 1
 522 412 500 340 457 185 c 0
 406 -4 392 -43 341 -122 c 0
 283 -214 198 -271 119 -271 c 0
 84 -271 51 -254 36 -227 c 0
 27 -213 24 -200 21 -174 c 1
 83 -134 l 1
 101 -140 l 1
 100 -147 100 -156 100 -159 c 0
 100 -201 123 -225 162 -225 c 0
 227 -225 275 -154 314 4 c 2
 355 170 l 1
 316 101 294 73 255 39 c 0
 215 4 175 -17 147 -17 c 0
 120 -17 100 20 100 70 c 0
 100 90 102 114 106 155 c 1
 125 337 l 1
 126 343 126 348 126 351 c 0
 126 363 119 370 108 370 c 0
 88 370 61 356 27 329 c 1
EndSplineSet
KernsSLIF: 59 -11 0 0 115 -1 0 0 46 -8 0 0 249 -6 0 0 353 -6 0 0 351 -6 0 0 352 -6 0 0 111 -6 0 0 108 -11 0 0 45 17 0 0 103 -6 0 0 44 -9 0 0 58 -5 0 0 327 -10 0 0 328 -10 0 0 324 -10 0 0 241 -15 0 0 322 -10 0 0 325 -10 0 0 323 -10 0 0 97 -10 0 0
EndChar
StartChar: z
Encoding: 122 122 91
Width: 500
Flags: W
HStem: -17 98<363 384> 367 102<148 176>
DStem: 119 459 126 369 74 320 103 317 377 379 456 411 31 25 128 74
Fore
31 25 m 1
 377 379 l 1
 341 362 318 356 288 356 c 0
 256 356 208 360 148 367 c 0
 142 367 138 368 126 369 c 1
 103 317 l 1
 74 320 l 1
 119 459 l 1
 140 465 160 469 176 469 c 0
 193 469 218 464 271 450 c 0
 321 437 354 432 383 432 c 0
 408 432 431 441 441 456 c 2
 450 469 l 1
 470 461 l 1
 456 411 l 1
 128 74 l 1
 176 91 200 97 226 97 c 0
 256 97 289 94 328 87 c 0
 351 83 367 81 382 81 c 0
 384 81 388 81 395 82 c 1
 423 140 l 1
 451 138 l 1
 440 108 424 51 422 33 c 0
 416 -8 407 -17 365 -17 c 0
 321 -17 273 -9 197 12 c 0
 173 19 149 22 124 22 c 0
 94 22 72 15 47 -5 c 1
 31 25 l 1
EndSplineSet
EndChar
StartChar: braceleft
Encoding: 123 123 92
Width: 333
Flags: W
VStem: 40 94<-33 -21> 79 93<226 240>
DStem: 75 198 166 171 47 39 137 3 143 591 242 609 112 411 211 429
Fore
242 609 m 1x40
 211 429 l 2
 197 349 171 319 104 306 c 1
 153 293 172 271 172 228 c 0x40
 172 214 170 192 166 171 c 1
 137 3 l 2
 135 -9 134 -20 134 -31 c 0
 134 -72 149 -91 191 -103 c 1
 191 -105 l 1
 117 -105 l 2
 79 -105 40 -63 40 -23 c 0x80
 40 -9 42 13 47 39 c 1
 75 198 l 1
 77 212 79 227 79 238 c 0
 79 275 64 291 18 305 c 1
 18 307 l 1
 76 317 101 344 112 411 c 1
 143 591 l 1
 152 641 163 665 187 686 c 0
 209 705 244 720 266 720 c 2
 334 720 l 1
 334 718 l 1
 275 701 254 675 242 609 c 1x40
EndSplineSet
EndChar
StartChar: bar
Encoding: 124 124 93
Width: 606
Flags: W
HStem: 0 21G<259 347>
VStem: 259 88<0 720>
Fore
259 0 m 1
 259 720 l 1
 347 720 l 1
 347 0 l 1
 259 0 l 1
EndSplineSet
EndChar
StartChar: braceright
Encoding: 125 125 94
Width: 333
Flags: W
VStem: 161 93<374 392> 199 94<630 648>
DStem: 122 186 221 204 91 6 190 24 196 612 286 576 167 444 258 417
Fore
91 6 m 1x80
 122 186 l 2
 136 266 162 296 229 309 c 1
 180 322 161 344 161 387 c 0x80
 161 401 163 422 167 444 c 1
 196 612 l 2
 198 623 199 635 199 646 c 0
 199 687 184 706 142 718 c 1
 142 720 l 1
 216 720 l 2
 255 720 293 678 293 635 c 0x40
 293 624 292 613 287 585 c 1
 287 580 l 1
 286 576 l 1
 258 417 l 1
 256 403 254 388 254 377 c 0
 254 340 269 324 315 310 c 1
 315 308 l 1
 257 298 232 270 221 204 c 1
 190 24 l 1
 181 -26 170 -50 146 -71 c 0
 124 -90 89 -105 67 -105 c 2
 -1 -105 l 1
 -1 -103 l 1
 58 -86 79 -60 91 6 c 1x80
EndSplineSet
EndChar
StartChar: asciitilde
Encoding: 126 126 95
Width: 606
Flags: W
Fore
494 326 m 1
 555 287 l 1
 508 207 467 174 413 174 c 0
 385 174 366 180 304 207 c 0
 237 236 216 243 195 243 c 0
 163 243 142 226 112 177 c 1
 51 216 l 1
 98 296 139 329 193 329 c 0
 221 329 240 323 302 296 c 0
 369 267 390 260 411 260 c 0
 443 260 464 277 494 326 c 1
EndSplineSet
EndChar
StartChar: exclamdown
Encoding: 161 161 96
Width: 333
Flags: W
HStem: 327 152<183 198>
Fore
196 479 m 0
 235 479 259 455 259 415 c 0
 259 364 228 327 185 327 c 0
 147 327 120 353 120 391 c 0
 120 442 152 479 196 479 c 0
145 252 m 1
 184 276 l 1
 197 267 l 1
 154 -163 l 1
 154 -196 l 1
 141 -196 l 1
 14 -225 l 1
 2 -216 l 1
 112 130 l 2
 123 164 131 196 145 252 c 1
EndSplineSet
EndChar
StartChar: cent
Encoding: 162 162 97
Width: 500
Flags: W
VStem: 52 115<129 153>
DStem: 157 -15 196 -17 123 -105 163 -105 317 405 353 394 190 71 222 50 369 547 411 547 340 469 381 465
Fore
369 547 m 1
 411 547 l 1
 381 465 l 1
 415 461 432 456 456 442 c 1
 420 303 l 1
 391 305 l 1
 391 367 l 2
 391 377 381 384 353 394 c 1
 222 50 l 1
 298 51 347 69 410 121 c 1
 421 90 l 1
 361 48 l 2
 307 11 262 -7 196 -17 c 1
 163 -105 l 1
 123 -105 l 1
 157 -15 l 1
 79 7 52 44 52 129 c 0
 52 226 94 339 143 374 c 2
 221 430 l 2
 254 453 292 465 340 469 c 1
 369 547 l 1
190 71 m 1
 317 405 l 1
 265 404 246 397 227 373 c 0
 195 331 167 228 167 151 c 0
 167 119 173 99 190 71 c 1
EndSplineSet
EndChar
StartChar: sterling
Encoding: 163 163 98
Width: 500
Flags: W
HStem: -4 107<371 400> 315 40<44 127 244 387> 627 56<373 403>
Fore
387 315 m 1
 236 315 l 1
 204 195 185 157 129 99 c 1
 168 109 192 112 242 112 c 0
 268 112 287 111 318 107 c 0
 337 105 363 103 382 103 c 0
 417 103 433 111 442 134 c 2
 465 192 l 1
 496 192 l 1
 449 18 l 2
 445 4 427 -4 400 -4 c 0
 356 -4 356 -4 196 31 c 0
 169 37 136 42 126 42 c 0
 111 42 94 33 71 13 c 0
 58 2 47 -5 41 -5 c 2
 30 -5 l 1
 23 17 21 32 21 54 c 1
 107 97 115 115 127 315 c 1
 39 315 l 1
 45 355 l 1
 130 355 l 1
 146 491 171 551 229 601 c 0
 283 646 361 683 403 683 c 0
 433 683 463 675 501 658 c 1
 467 529 l 1
 444 535 l 1
 444 574 l 2
 444 606 415 627 373 627 c 0
 324 627 291 597 281 544 c 1
 244 355 l 1
 393 355 l 1
 387 315 l 1
EndSplineSet
EndChar
StartChar: fraction
Encoding: 164 8260 99
Width: 167
Flags: W
HStem: 0 21G<-170 -101> 663 20G<269 338>
DStem: 269 683 338 683 -170 0 -101 0
Fore
-101 0 m 1
 -170 0 l 1
 269 683 l 1
 338 683 l 1
 -101 0 l 1
EndSplineSet
EndChar
StartChar: yen
Encoding: 165 165 100
Width: 500
Flags: W
HStem: 0 21G<209 224.5> 195 40<75 184 300 412> 310 40<87 182 344 424> 597 98<52 110>
Fore
538 681 m 1
 533 593 l 1
 471 581 397 485 344 350 c 1
 431 350 l 1
 424 310 l 1
 325 310 l 1
 300 235 l 1
 419 235 l 1
 412 195 l 1
 293 195 l 1
 278 100 l 1
 277 95 276 74 276 67 c 0
 276 45 284 36 307 35 c 2
 357 32 l 1
 354 -3 l 1
 232 0 232 0 217 0 c 0
 201 0 201 0 82 -3 c 1
 85 32 l 1
 127 35 l 2
 155 38 158 44 174 132 c 1
 184 195 l 1
 68 195 l 1
 76 235 l 1
 191 235 l 1
 190 258 189 266 182 310 c 1
 80 310 l 1
 88 350 l 1
 171 350 l 1
 144 456 l 2
 123 539 85 597 52 597 c 0
 37 597 22 593 13 587 c 1
 11 620 l 1
 32 637 49 652 87 690 c 1
 99 694 105 695 110 695 c 0
 144 695 175 673 197 633 c 0
 216 598 239 524 249 466 c 1
 279 296 l 1
 357 520 467 684 538 681 c 1
EndSplineSet
EndChar
StartChar: florin
Encoding: 166 402 101
Width: 500
Flags: W
HStem: -242 65<36 83> 368 40<109 206 331 433> 627 63<405 448>
Fore
110 408 m 1
 216 408 l 1
 234 478 l 2
 259 574 376 690 448 690 c 0
 453 690 458 689 479 686 c 1
 471 604 l 1
 460 601 l 1
 446 618 427 627 405 627 c 0
 380 627 360 604 355 570 c 2
 331 408 l 1
 443 408 l 1
 433 368 l 1
 325 368 l 1
 294 105 263 -14 199 -117 c 0
 148 -201 94 -242 36 -242 c 0
 27 -242 20 -241 8 -239 c 1
 14 -214 17 -195 17 -159 c 1
 34 -150 l 1
 51 -170 65 -177 83 -177 c 0
 117 -177 141 -133 152 -46 c 1
 206 368 l 1
 97 368 l 1
 110 408 l 1
EndSplineSet
EndChar
StartChar: section
Encoding: 167 167 102
Width: 556
Flags: W
HStem: -151 44<207 230> 646 49<311 336>
VStem: 81 83<286 325> 136 79<512 569> 354 84<-1 44> 411 75<243 291>
Fore
109 48 m 1xc8
 104 -37 l 1
 143 -85 183 -107 230 -107 c 0
 294 -107 354 -56 354 -1 c 0
 354 28 330 62 298 81 c 2
 163 159 l 2
 106 192 81 231 81 286 c 0xe8
 81 343 105 380 177 435 c 1
 149 461 136 486 136 512 c 0
 136 563 172 625 221 659 c 0
 257 683 294 695 336 695 c 0
 394 695 440 681 497 646 c 1
 470 518 l 1
 436 518 l 1
 439 591 l 1
 393 630 356 646 311 646 c 0
 255 646 215 614 215 569 c 0
 215 536 235 511 286 481 c 2
 403 412 l 2
 457 380 486 338 486 291 c 0xd4
 486 231 456 182 392 138 c 1
 424 110 438 80 438 44 c 0
 438 -2 409 -54 360 -96 c 0
 319 -131 263 -151 207 -151 c 0
 147 -151 98 -132 47 -87 c 1
 76 48 l 1
 109 48 l 1xc8
238 227 m 2
 355 161 l 1
 386 172 411 208 411 243 c 0xe4
 411 266 398 291 379 309 c 1
 371 315 354 326 327 342 c 2
 211 409 l 1
 178 379 164 354 164 325 c 0
 164 288 190 254 238 227 c 2
EndSplineSet
EndChar
StartChar: currency
Encoding: 168 164 103
Width: 500
Flags: W
HStem: 102 76<239 257> 447 77<251 257>
VStem: 39 77<303 321> 384 77<314 321>
DStem: 32 484 79 531 81 435 127 483 81 190 125 144 32 141 77 96 375 145 421 189 422 96 467 141
Fore
32 141 m 1
 81 190 l 1
 51 228 39 263 39 313 c 0
 39 365 51 401 81 435 c 1
 32 484 l 1
 79 531 l 1
 127 483 l 1
 164 511 204 524 251 524 c 0
 297 524 334 512 371 484 c 1
 419 533 l 1
 468 484 l 1
 422 436 l 1
 449 401 461 363 461 314 c 0
 461 265 449 227 421 189 c 1
 467 141 l 1
 422 96 l 1
 375 145 l 1
 338 115 301 102 250 102 c 0
 199 102 162 114 125 144 c 1
 77 96 l 1
 32 141 l 1
251 447 m 0
 177 447 116 386 116 312 c 0
 116 240 177 178 249 178 c 0
 324 178 384 239 384 314 c 0
 384 386 324 447 251 447 c 0
EndSplineSet
EndChar
StartChar: quotesingle
Encoding: 169 39 104
Width: 250
Flags: W
HStem: 467 21G<127 161>
Fore
161 467 m 1
 127 467 l 1
 197 677 l 2
 206 705 224 720 247 720 c 0
 274 720 293 701 293 675 c 0
 293 662 289 647 283 639 c 2
 161 467 l 1
EndSplineSet
EndChar
StartChar: quotedblleft
Encoding: 170 8220 105
Width: 500
Flags: W
Fore
79 431 m 1
 65 445 l 1
 124 560 168 627 225 692 c 1
 275 720 l 1
 291 709 l 1
 243 628 215 552 200 462 c 1
 172 459 169 459 115 442 c 2
 79 431 l 1
299 431 m 1
 285 445 l 1
 344 560 388 627 445 692 c 1
 495 720 l 1
 511 709 l 1
 463 628 435 552 420 462 c 1
 392 459 389 459 335 442 c 2
 299 431 l 1
EndSplineSet
KernsSLIF: 89 18 1 0 87 20 1 0 86 21 1 0 84 14 1 0 262 -90 1 0 256 -90 1 0 257 -90 1 0 225 -99 1 0 65 -90 1 0
EndChar
StartChar: guillemotleft
Encoding: 171 171 106
Width: 500
Flags: W
Fore
267 426 m 1
 141 243 l 1
 228 57 l 1
 203 43 l 1
 179 71 l 1
 134 124 l 1
 119 142 l 2
 105 159 110 153 104 159 c 2
 35 235 l 1
 35 256 l 1
 126 337 l 1
 245 446 l 1
 267 426 l 1
458 426 m 1
 332 243 l 1
 419 57 l 1
 394 43 l 1
 370 71 l 1
 325 124 l 1
 310 142 l 2
 296 159 301 153 295 159 c 2
 226 235 l 1
 226 256 l 1
 317 337 l 1
 436 446 l 1
 458 426 l 1
EndSplineSet
EndChar
StartChar: guilsinglleft
Encoding: 172 8249 107
Width: 333
Flags: W
Fore
292 426 m 1
 166 243 l 1
 253 57 l 1
 228 43 l 1
 204 71 l 1
 159 124 l 1
 144 142 l 2
 130 159 135 153 129 159 c 2
 60 235 l 1
 60 256 l 1
 151 337 l 1
 270 446 l 1
 292 426 l 1
EndSplineSet
EndChar
StartChar: guilsinglright
Encoding: 173 8250 108
Width: 333
Flags: W
Fore
35 60 m 1
 161 243 l 1
 74 429 l 1
 99 443 l 1
 105 436 111 429 117 423 c 1
 198 327 l 1
 267 251 l 1
 267 230 l 1
 176 149 l 1
 57 40 l 1
 35 60 l 1
EndSplineSet
KernsSLIF: 89 -93 1 0 87 -62 1 0 86 -75 1 0 84 -88 1 0 262 -45 1 0 256 -45 1 0 257 -45 1 0 225 -54 1 0 65 -45 1 0
EndChar
StartChar: fi
Encoding: 174 64257 109
Width: 611
Flags: W
HStem: -271 75<-92 -30> -17 82<368 462> 413 41<248 408> 572 132<521 535> 646 80<328 404>
VStem: 466 122<630 644>
DStem: 411 359 524 365 342 78 470 169
Fore
533 704 m 0xf4
 564 704 588 678 588 642 c 0
 588 602 561 572 523 572 c 0
 489 572 466 596 466 632 c 0
 466 671 496 704 533 704 c 0xf4
408 454 m 1
 468 465 l 2
 484 468 492 469 498 469 c 0
 522 469 535 455 535 429 c 0
 535 412 532 393 524 365 c 2
 470 169 l 2
 457 122 450 89 450 77 c 0
 450 71 456 65 462 65 c 0
 471 65 489 74 523 95 c 2
 550 112 l 1
 562 84 l 1
 551 76 547 74 534 64 c 0
 453 6 406 -17 368 -17 c 0
 349 -17 336 0 336 26 c 0
 336 41 339 65 342 78 c 2
 411 359 l 2
 416 379 417 386 417 397 c 0
 417 407 413 413 406 413 c 2
 342 413 l 2
 311 413 288 411 239 403 c 1
 184 168 l 2
 136 -36 106 -111 44 -184 c 0
 4 -231 -58 -271 -92 -271 c 0
 -104 -271 -121 -267 -130 -262 c 1
 -119 -238 -103 -183 -98 -155 c 1
 -81 -152 l 1
 -67 -183 -52 -196 -30 -196 c 0
 5 -196 17 -167 44 -22 c 0
 47 -8 51 12 54 29 c 1
 125 403 l 1
 34 403 l 1
 39 428 l 1
 89 444 l 2
 114 452 129 458 139 463 c 1
 141 470 141 473 143 483 c 0
 157 554 172 574 262 647 c 0
 339 710 368 726 404 726 c 0
 417 726 427 724 448 718 c 1
 435 669 429 639 421 593 c 1
 406 590 l 1
 382 625 352 646 328 646 c 0xec
 303 646 284 620 273 569 c 2
 248 454 l 1
 408 454 l 1
EndSplineSet
Ligature: 0 0 'liga' f i
EndChar
StartChar: fl
Encoding: 175 64258 110
Width: 611
Flags: W
HStem: -271 75<-92 -30> -26 82<409 507> 403 51<250 281.712> 646 80<328 404> 652 33<440 463>
VStem: 377 118<27 70>
DStem: 494 596 614 643 393 137 507 161
Fore
125 403 m 1xf4
 34 403 l 1
 39 428 l 1
 89 444 l 2
 114 452 129 458 139 463 c 1
 151 534 161 554 205 599 c 0
 230 624 284 667 325 695 c 0
 360 719 378 726 404 726 c 0xf4
 417 726 427 724 448 718 c 1
 444 708 443 700 440 685 c 1
 486 686 579 704 619 720 c 1
 631 708 l 1
 628 697 625 686 624 680 c 0
 619 662 615 649 614 643 c 1
 507 161 l 1
 499 127 495 93 495 70 c 0
 495 62 500 56 507 56 c 0
 517 56 542 68 560 82 c 2
 590 105 l 1
 604 78 l 1
 488 -7 452 -26 409 -26 c 0
 388 -26 377 -8 377 27 c 0
 377 61 378 71 393 137 c 1
 494 596 l 1
 497 608 498 618 498 627 c 0
 498 643 486 652 463 652 c 2
 433 652 l 1xec
 421 593 l 1
 406 590 l 1
 382 625 352 646 328 646 c 0
 302 646 285 621 274 569 c 2
 250 454 l 1
 293 455 324 457 373 462 c 1
 378 454 l 1
 372 440 369 429 362 403 c 1
 239 403 l 1
 184 168 l 2
 136 -36 106 -111 44 -184 c 0
 4 -231 -58 -271 -92 -271 c 0
 -104 -271 -121 -267 -130 -262 c 1
 -119 -238 -103 -183 -98 -155 c 1
 -81 -152 l 1
 -67 -183 -52 -196 -30 -196 c 0
 5 -196 17 -167 44 -22 c 0
 47 -8 51 12 54 29 c 1
 125 403 l 1xf4
EndSplineSet
Ligature: 0 0 'liga' f l
EndChar
StartChar: endash
Encoding: 177 8211 111
Width: 500
Flags: W
HStem: 214 68<-1 500>
Fore
512 282 m 1
 500 214 l 1
 -12 214 l 1
 0 282 l 1
 512 282 l 1
EndSplineSet
EndChar
StartChar: dagger
Encoding: 178 8224 112
Width: 556
Flags: W
HStem: 0 21G<203 211.5> 387 78<178 228 322 398.477> 662 20G<321 328.5>
Fore
242 465 m 1
 257 576 l 2
 261 606 265 652 265 681 c 1
 271 685 l 1
 317 682 317 682 325 682 c 0
 332 682 332 682 376 685 c 1
 381 682 l 1
 367 635 355 587 349 556 c 1
 334 465 l 1
 403 465 l 2
 438 465 462 467 495 473 c 1
 499 469 l 1
 489 428 486 408 485 386 c 1
 479 382 l 1
 416 386 378 387 322 387 c 1
 292 222 278 119 270 2 c 1
 265 -3 l 1
 216 0 216 0 207 0 c 0
 199 0 199 0 149 -3 c 1
 149 10 l 1
 190 175 209 264 228 387 c 1
 162 387 125 384 74 377 c 1
 67 381 l 1
 77 427 78 436 78 462 c 1
 78 462 78 465 77 469 c 1
 85 474 l 1
 104 467 127 465 193 465 c 2
 242 465 l 1
EndSplineSet
EndChar
StartChar: daggerdbl
Encoding: 179 8225 113
Width: 556
Flags: W
HStem: 45 77<117 194 301 372> 418 77<190 264 370 450> 418 272<356 370>
Fore
112 500 m 1xc0
 117 506 l 1
 152 498 171 495 192 495 c 2
 277 495 l 1xc0
 291 574 l 1
 297 610 300 634 300 658 c 0
 300 664 300 674 299 687 c 1
 304 693 l 1
 349 690 349 690 357 690 c 0xa0
 366 690 366 690 408 693 c 1
 414 687 l 1
 401 654 396 637 387 586 c 1
 370 495 l 1
 417 495 l 2
 455 495 483 497 530 503 c 1
 537 501 l 1
 527 469 523 446 524 417 c 1
 520 412 l 1
 461 417 436 418 409 418 c 2xc0
 356 418 l 1xa0
 345 362 l 1
 343 358 339 301 339 273 c 1
 325 237 317 209 311 177 c 2
 301 122 l 1
 348 122 l 2
 386 122 414 124 461 130 c 1
 468 128 l 1
 458 96 454 73 455 44 c 1
 451 39 l 1
 392 44 367 45 340 45 c 2
 287 45 l 1
 273 -34 l 1
 267 -70 264 -94 264 -117 c 0
 264 -124 264 -134 265 -147 c 1
 260 -153 l 1
 214 -150 214 -150 206 -150 c 0
 198 -150 197 -150 156 -153 c 1
 150 -147 l 1
 163 -114 168 -96 177 -46 c 1
 194 45 l 1
 148 45 l 2
 125 45 94 43 57 38 c 0
 48 37 47 37 39 36 c 1
 33 40 l 1
 41 71 43 86 43 106 c 0
 43 110 43 118 42 127 c 1
 47 133 l 1
 82 125 101 122 122 122 c 2
 207 122 l 1
 221 189 l 2
 227 217 229 242 229 270 c 1
 241 305 248 331 253 358 c 2
 264 418 l 1
 218 418 l 2
 195 418 164 416 127 411 c 0
 118 410 117 410 109 409 c 1
 103 413 l 1
 111 444 113 459 113 479 c 0
 113 483 113 491 112 500 c 1xc0
EndSplineSet
EndChar
StartChar: periodcentered
Encoding: 180 183 114
Width: 250
Flags: W
Fore
144 324 m 0
 182 324 206 299 206 260 c 0
 206 209 175 172 132 172 c 0
 93 172 67 198 67 238 c 0
 67 288 99 324 144 324 c 0
EndSplineSet
EndChar
StartChar: paragraph
Encoding: 182 182 115
Width: 556
Flags: W
HStem: -204 45<249 492> -201 32<83 132> -201 42<249 304> 634 44<389 457> 647 34<198 261>
VStem: 14 143<480 507>
DStem: 244 239 389 634 192 -59 249 -159 314 642 389 634 251 278 249 -159 457 634 528 606 317 -159 402 -103
Fore
80 -204 m 1x84
 83 -169 l 1
 116 -169 l 2
 141 -169 160 -162 168 -150 c 0
 178 -135 181 -123 192 -59 c 2
 244 239 l 1
 192 246 166 255 130 279 c 0
 57 328 14 412 14 505 c 0
 14 621 77 681 198 681 c 0x4c
 206 681 225 681 251 680 c 0
 273 679 373 678 400 678 c 2
 419 678 l 1x14
 629 681 l 1
 622 645 l 1
 558 642 l 2
 539 641 533 634 528 606 c 2
 402 -103 l 1
 402 -105 l 1
 401 -108 l 1
 400 -118 399 -126 399 -133 c 0
 399 -157 422 -169 466 -169 c 2
 495 -169 l 1x4c
 492 -204 l 1x84
 303 -201 l 2x24
 267 -201 152 -203 80 -204 c 1x84
457 634 m 1x94
 389 634 l 1
 249 -159 l 1
 317 -159 l 1
 457 634 l 1x94
251 278 m 1
 314 642 l 1
 289 646 277 647 261 647 c 0x0c
 191 647 157 593 157 480 c 0
 157 374 193 298 251 278 c 1
EndSplineSet
EndChar
StartChar: bullet
Encoding: 183 8226 116
Width: 606
Flags: W
Fore
303 516 m 0
 397 516 475 438 475 344 c 0
 475 250 397 172 304 172 c 0
 208 172 131 250 131 346 c 0
 131 438 210 516 303 516 c 0
EndSplineSet
EndChar
StartChar: quotesinglbase
Encoding: 184 8218 117
Width: 250
Flags: W
Fore
220 132 m 1
 168 36 l 2
 139 -18 81 -103 68 -110 c 2
 12 -144 l 1
 -3 -126 l 1
 42 -55 78 45 85 115 c 1
 113 121 139 128 148 130 c 0
 158 133 167 135 178 138 c 2
 207 145 l 1
 220 132 l 1
EndSplineSet
EndChar
StartChar: quotedblbase
Encoding: 185 8222 118
Width: 500
Flags: W
Fore
205 132 m 1
 153 36 l 2
 124 -18 66 -103 53 -110 c 2
 -3 -144 l 1
 -18 -126 l 1
 27 -55 63 45 70 115 c 1
 98 121 124 128 133 130 c 0
 143 133 152 135 163 138 c 2
 192 145 l 1
 205 132 l 1
424 132 m 1
 372 36 l 2
 343 -18 285 -103 272 -110 c 2
 216 -144 l 1
 201 -126 l 1
 246 -55 282 45 289 115 c 1
 317 121 343 128 352 130 c 0
 362 133 371 135 382 138 c 2
 411 145 l 1
 424 132 l 1
EndSplineSet
KernsSLIF: 89 -57 1 0 87 -43 1 0 86 -60 1 0 84 -42 1 0 225 17 1 0 65 23 1 0
EndChar
StartChar: quotedblright
Encoding: 186 8221 119
Width: 500
Flags: W
Fore
285 720 m 1
 299 706 l 1
 239 591 196 524 139 459 c 1
 89 431 l 1
 73 442 l 1
 120 522 148 599 164 689 c 1
 191 691 194 692 249 709 c 2
 285 720 l 1
505 720 m 1
 519 706 l 1
 459 591 416 524 359 459 c 1
 309 431 l 1
 293 442 l 1
 340 522 368 599 384 689 c 1
 411 691 414 692 469 709 c 2
 505 720 l 1
EndSplineSet
KernsSLIF: 89 23 1 0 87 25 1 0 86 26 1 0 84 20 1 0 262 -85 1 0 256 -85 1 0 257 -85 1 0 225 -94 1 0 65 -85 1 0
EndChar
StartChar: guillemotright
Encoding: 187 187 120
Width: 500
Flags: W
Fore
35 60 m 1
 161 243 l 1
 74 429 l 1
 99 443 l 1
 105 436 111 430 116 423 c 1
 195 330 l 1
 198 327 l 1
 267 251 l 1
 267 230 l 1
 176 149 l 1
 57 40 l 1
 35 60 l 1
226 60 m 1
 352 243 l 1
 265 429 l 1
 290 443 l 1
 296 436 302 430 307 423 c 1
 386 330 l 1
 389 327 l 1
 458 251 l 1
 458 230 l 1
 367 149 l 1
 248 40 l 1
 226 60 l 1
EndSplineSet
KernsSLIF: 89 -81 1 0 87 -50 1 0 86 -63 1 0 84 -76 1 0 262 -33 1 0 256 -33 1 0 257 -33 1 0 225 -42 1 0 65 -33 1 0
EndChar
StartChar: ellipsis
Encoding: 188 8230 121
Width: 1000
Flags: W
HStem: -17 21G<136.5 177.5 469.5 510.5 802.5 843.5>
VStem: 91 139<49 71> 424 139<49 71> 757 139<49 71>
CounterMasks: 1 00
Fore
168 135 m 0
 206 135 230 110 230 71 c 0
 230 21 199 -17 156 -17 c 0
 117 -17 91 9 91 49 c 0
 91 99 124 135 168 135 c 0
501 135 m 0
 539 135 563 110 563 71 c 0
 563 21 532 -17 489 -17 c 0
 450 -17 424 9 424 49 c 0
 424 99 457 135 501 135 c 0
834 135 m 0
 872 135 896 110 896 71 c 0
 896 21 865 -17 822 -17 c 0
 783 -17 757 9 757 49 c 0
 757 99 790 135 834 135 c 0
EndSplineSet
Ligature: 0 1 'liga' period period period
EndChar
StartChar: perthousand
Encoding: 189 8240 122
Width: 1000
Flags: W
HStem: -7 27<424 433 744 753> 268 25<474 484 794 804> 372 25<173 183> 647 25<224 233>
VStem: 65 76<451 495> 265 76<549 593> 316 76<73 116> 516 76<170 214> 636 76<71 116> 836 76<170 212>
DStem: 532 691 585 691 74 -17 130 -17
Fore
482 293 m 0xfbc0
 552 293 592 248 592 170 c 0
 592 72 518 -7 426 -7 c 0
 356 -7 316 38 316 116 c 0
 316 215 390 293 482 293 c 0xfbc0
476 268 m 0
 456 268 440 257 426 233 c 0
 407 201 392 129 392 73 c 0
 392 38 406 20 431 20 c 0
 455 20 473 35 488 66 c 0
 504 102 516 164 516 214 c 0
 516 248 501 268 476 268 c 0
802 293 m 0
 872 293 912 248 912 170 c 0
 912 72 838 -7 746 -7 c 0
 676 -7 636 37 636 116 c 0
 636 215 710 293 802 293 c 0
796 266 m 0
 776 266 760 255 746 231 c 0
 727 199 712 127 712 71 c 0
 712 36 726 18 751 18 c 0
 775 18 793 33 808 64 c 0
 824 100 836 162 836 212 c 0
 836 246 821 266 796 266 c 0
231 672 m 0
 301 672 341 627 341 549 c 0xfdc0
 341 451 267 372 175 372 c 0
 105 372 65 416 65 495 c 0
 65 594 139 672 231 672 c 0
226 647 m 0
 202 647 184 632 169 600 c 0
 153 565 141 501 141 451 c 0
 141 417 155 397 181 397 c 0
 204 397 222 412 236 444 c 0
 253 479 265 543 265 593 c 0
 265 627 250 647 226 647 c 0
130 -17 m 1
 74 -17 l 1
 532 691 l 1
 585 691 l 1
 130 -17 l 1
EndSplineSet
EndChar
StartChar: questiondown
Encoding: 191 191 123
Width: 444
Flags: W
HStem: -226 80<164 205> 327 152<267 282>
VStem: -12 126<-76 -55> 204 139<391 415> 235 44<203 220>
Fore
215 262 m 1xe8
 237 280 l 1
 267 254 279 232 279 203 c 0
 279 172 262 140 228 104 c 2
 165 38 l 2
 130 1 114 -32 114 -67 c 0
 114 -116 148 -146 205 -146 c 0
 223 -146 240 -142 261 -132 c 0
 280 -122 292 -106 307 -70 c 2
 314 -53 l 1
 347 -57 l 1
 327 -101 316 -131 304 -183 c 1
 244 -216 213 -226 164 -226 c 0
 57 -226 -12 -167 -12 -74 c 0
 -12 -19 11 24 62 61 c 2
 165 137 l 2
 220 178 235 195 235 220 c 0
 235 235 229 247 215 262 c 1xe8
280 479 m 0
 319 479 343 455 343 415 c 0
 343 364 312 327 269 327 c 0
 231 327 204 353 204 391 c 0xf0
 204 442 236 479 280 479 c 0
EndSplineSet
EndChar
StartChar: grave
Encoding: 193 96 124
Width: 333
Flags: W
HStem: 679 20G<145 166.5>
Fore
277 518 m 1
 154 600 l 2
 119 623 110 635 110 656 c 0
 110 678 133 699 157 699 c 0
 176 699 195 686 218 655 c 2
 322 518 l 1
 277 518 l 1
EndSplineSet
EndChar
StartChar: acute
Encoding: 194 180 125
Width: 333
Flags: W
HStem: 679 20G<337 358>
Fore
153 518 m 1
 294 669 l 2
 314 690 329 699 345 699 c 0
 371 699 392 679 392 654 c 0
 392 634 384 623 356 607 c 2
 202 518 l 1
 153 518 l 1
EndSplineSet
Ligature: 0 1 'liga' space acutecomb
EndChar
StartChar: circumflex
Encoding: 195 710 126
Width: 333
Flags: W
HStem: 664 20G<248 329>
Fore
329 684 m 1
 415 510 l 1
 364 510 l 1
 276 605 l 1
 145 510 l 1
 88 510 l 1
 248 684 l 1
 329 684 l 1
EndSplineSet
EndChar
StartChar: tilde
Encoding: 196 732 127
Width: 333
Flags: W
Fore
122 535 m 1
 82 535 l 1
 100 614 140 654 200 654 c 0
 226 654 243 650 276 635 c 0
 309 620 334 612 351 612 c 0
 373 612 386 623 400 654 c 1
 441 654 l 1
 420 573 383 535 326 535 c 0
 303 535 290 539 244 557 c 0
 202 574 185 579 168 579 c 0
 148 579 137 569 122 535 c 1
EndSplineSet
Ligature: 0 1 'liga' space tildecomb
EndChar
StartChar: macron
Encoding: 197 175 128
Width: 333
Flags: W
HStem: 538 70<92 402>
Fore
418 608 m 1
 402 538 l 1
 76 538 l 1
 93 608 l 1
 418 608 l 1
EndSplineSet
Ligature: 0 1 'liga' space uni0304
EndChar
StartChar: breve
Encoding: 198 728 129
Width: 333
Flags: W
HStem: 661 20G<96 139 373 412>
Fore
96 681 m 1
 139 681 l 1
 144 619 176 591 243 591 c 0
 307 591 344 617 373 681 c 1
 412 681 l 1
 402 633 393 610 374 585 c 0
 342 543 290 519 228 519 c 0
 181 519 149 532 127 561 c 0
 105 589 97 620 96 681 c 1
EndSplineSet
Ligature: 0 1 'liga' space uni0306
EndChar
StartChar: dotaccent
Encoding: 199 729 130
Width: 333
Flags: W
Fore
269 668 m 0
 302 668 325 643 325 608 c 0
 325 567 296 537 256 537 c 0
 223 537 202 559 202 594 c 0
 202 635 232 668 269 668 c 0
EndSplineSet
Ligature: 0 1 'liga' space uni0307
EndChar
StartChar: dieresis
Encoding: 200 168 131
Width: 333
Flags: W
VStem: 90 123<594 608> 303 123<594 608>
Fore
370 668 m 0
 403 668 426 643 426 608 c 0
 426 567 397 537 357 537 c 0
 324 537 303 559 303 594 c 0
 303 635 333 668 370 668 c 0
157 668 m 0
 190 668 213 643 213 608 c 0
 213 567 184 537 144 537 c 0
 111 537 90 559 90 594 c 0
 90 635 120 668 157 668 c 0
EndSplineSet
Ligature: 0 1 'liga' space uni0308
EndChar
StartChar: ring
Encoding: 202 730 132
Width: 556
Flags: W
HStem: 514 50<377 381> 664 50<372 381>
VStem: 277 50<609 617> 427 50<614 618>
Fore
379 714 m 0
 432 714 477 668 477 614 c 0
 477 559 432 514 377 514 c 0
 322 514 277 559 277 615 c 0
 277 670 322 714 379 714 c 0
378 664 m 0
 349 664 327 642 327 614 c 0
 327 586 349 564 377 564 c 0
 405 564 427 586 427 614 c 0
 427 641 405 664 378 664 c 0
EndSplineSet
Ligature: 0 1 'liga' space uni030A
EndChar
StartChar: cedilla
Encoding: 203 184 133
Width: 333
Flags: W
HStem: -218 41<99 125> -100 41<108 158>
VStem: 156 92<-139 -129>
DStem: 134 5 178 5 66 -92 132 -62
Fore
12 -193 m 1
 34 -160 l 1
 63 -173 79 -177 101 -177 c 0
 135 -177 156 -162 156 -137 c 0
 156 -113 139 -100 108 -100 c 0
 98 -100 91 -101 79 -104 c 1
 66 -92 l 1
 134 5 l 1
 178 5 l 1
 132 -62 l 1
 142 -60 149 -59 158 -59 c 0
 211 -59 248 -89 248 -131 c 0
 248 -182 196 -218 125 -218 c 0
 86 -218 57 -212 12 -193 c 1
EndSplineSet
Ligature: 0 1 'liga' space uni0327
EndChar
StartChar: hungarumlaut
Encoding: 205 733 134
Width: 333
Flags: W
HStem: 679 20G<159 179 356 376>
Fore
-28 518 m 1
 109 665 l 2
 130 688 150 699 168 699 c 0
 190 699 212 675 212 652 c 0
 212 635 197 618 163 599 c 2
 21 518 l 1
 -28 518 l 1
169 518 m 1
 306 665 l 2
 327 688 347 699 365 699 c 0
 387 699 409 675 409 652 c 0
 409 635 394 618 360 599 c 2
 218 518 l 1
 169 518 l 1
EndSplineSet
Ligature: 0 1 'liga' space uni030B
EndChar
StartChar: ogonek
Encoding: 206 731 135
Width: 333
Flags: W
HStem: -206 56<99 151> -37 20G<122 165>
VStem: 32 71<-141 -104>
Fore
214 -116 m 1
 238 -129 l 1
 184 -184 145 -206 99 -206 c 0
 58 -206 32 -180 32 -141 c 0
 32 -102 51 -76 122 -17 c 1
 165 -17 l 1
 114 -63 103 -78 103 -104 c 0
 103 -130 123 -150 151 -150 c 0
 173 -150 189 -141 214 -116 c 1
EndSplineSet
Ligature: 0 1 'liga' space uni0328
EndChar
StartChar: caron
Encoding: 207 711 136
Width: 333
Flags: W
HStem: 664 20G<113 163 389 445>
Fore
201 510 m 1
 113 684 l 1
 163 684 l 1
 254 587 l 1
 389 684 l 1
 445 684 l 1
 283 510 l 1
 201 510 l 1
EndSplineSet
EndChar
StartChar: emdash
Encoding: 208 8212 137
Width: 1000
Flags: W
HStem: 214 68<-1 1000>
Fore
1000 214 m 1
 -12 214 l 1
 0 282 l 1
 1012 282 l 1
 1000 214 l 1
EndSplineSet
EndChar
StartChar: AE
Encoding: 225 198 138
Width: 944
Flags: W
HStem: -2 52<592 610 610 708> 265 43<270 389> 330 48<602 691> 639 42<316 510>
DStem: 387 573 436 570 96 122 270 308 387 573 239 262 96 122 139 92 460 262 594 330 430 91 547 56 517 589 647 630 467 308 602 378
Fore
594 330 m 1
 547 56 l 1
 572 51 584 50 610 50 c 0
 623 50 634 50 645 51 c 2
 677 52 l 2
 805 54 817 58 831 98 c 1
 853 168 l 1
 889 168 l 1
 878 123 871 88 855 0 c 1
 758 -3 712 -4 683 -4 c 0
 667 -4 653 -4 596 -2 c 0
 555 -1 496 0 480 0 c 0
 448 0 447 0 348 -3 c 1
 354 29 l 1
 394 32 l 2
 414 33 421 45 430 91 c 1
 460 262 l 1
 423 263 l 2
 389 264 371 265 360 265 c 2
 350 265 l 1
 239 262 l 1
 139 92 l 1
 138 90 l 2
 127 73 124 66 124 57 c 0
 124 40 133 34 160 32 c 2
 210 29 l 1
 205 -3 l 1
 181 -3 l 2
 160 -3 142 -2 126 0 c 0
 117 1 110 1 108 1 c 2
 88 0 l 1
 -29 -3 l 1
 -24 29 l 1
 2 34 l 2
 31 40 59 66 96 122 c 1
 387 573 l 2
 408 605 414 617 414 624 c 0
 414 637 402 645 381 646 c 2
 311 649 l 1
 316 681 l 1
 550 678 550 678 572 678 c 0
 612 678 624 678 731 681 c 2
 768 681 l 2
 787 681 787 681 917 678 c 1
 927 672 l 1
 915 608 910 575 902 520 c 1
 870 520 l 1
 870 573 l 2
 870 607 867 617 856 619 c 0
 830 626 713 635 686 633 c 2
 647 630 l 1
 602 378 l 1
 688 378 l 2
 739 378 773 379 828 381 c 1
 833 372 l 1
 819 325 l 1
 714 329 681 330 649 330 c 2
 594 330 l 1
270 308 m 1
 467 308 l 1
 517 589 l 1
 520 603 521 616 521 625 c 0
 521 633 516 639 508 639 c 0
 489 639 466 617 436 570 c 2
 270 308 l 1
EndSplineSet
EndChar
StartChar: ordfeminine
Encoding: 227 170 139
Width: 333
Flags: W
HStem: 391 50<80 131> 652 31<211 239>
VStem: 47 73<443 463>
DStem: 252 548 326 613 226 451 296 485
Fore
307 667 m 1
 336 684 l 1
 346 676 l 1
 337 651 l 2
 334 642 331 634 330 630 c 0
 330 628 328 622 326 613 c 2
 296 485 l 1
 295 482 l 1
 295 480 294 477 293 473 c 0
 291 463 290 459 290 454 c 1
 299 441 l 1
 305 441 323 450 335 459 c 2
 348 469 l 1
 355 451 l 1
 307 411 270 391 242 391 c 0
 230 391 222 401 222 418 c 0
 222 427 224 444 226 451 c 2
 252 548 l 1
 191 445 133 391 80 391 c 0
 60 391 47 411 47 443 c 0
 47 495 77 589 100 613 c 1
 113 625 141 645 186 671 c 0
 201 679 217 683 239 683 c 0
 262 683 277 679 307 667 c 1
263 639 m 1
 241 648 227 652 211 652 c 0
 185 652 170 639 155 604 c 0
 140 569 120 489 120 463 c 0
 120 451 125 441 131 441 c 0
 149 441 188 478 216 522 c 0
 242 562 255 594 263 639 c 1
EndSplineSet
EndChar
StartChar: Lslash
Encoding: 232 321 140
Width: 611
Flags: W
HStem: -3 53<259 372> 0 174<542 545>
DStem: 140 287 281 357 104 92 226 56 149 337 140 287 6 266 24 230 186 541 325 599 149 337 290 407 424 473 442 437 290 407 281 357
Fore
281 357 m 1x80
 226 56 l 1
 251 51 263 50 294 50 c 0x80
 334 50 426 53 462 56 c 0
 496 59 510 70 519 98 c 1
 542 174 l 1
 578 174 l 1
 559 81 552 50 544 0 c 1x40
 402 -3 402 -3 372 -3 c 0x80
 360 -3 357 -3 258 -1 c 2
 171 0 l 2x40
 128 0 126 0 26 -3 c 1
 30 29 l 1
 58 32 l 2
 87 35 95 46 104 92 c 1
 140 287 l 1
 24 230 l 1
 6 266 l 1
 149 337 l 1
 186 541 l 2
 192 573 195 599 195 615 c 0
 195 632 183 642 157 643 c 2
 105 646 l 1
 109 681 l 1
 239 678 239 678 261 678 c 0
 283 678 283 678 420 681 c 1
 416 646 l 1
 371 643 l 2
 338 641 332 635 325 599 c 1
 290 407 l 1
 424 473 l 1
 442 437 l 1
 281 357 l 1x80
EndSplineSet
EndChar
StartChar: Oslash
Encoding: 233 216 141
Width: 833
Flags: W
HStem: -17 43<360 391> 652 43<472 500>
VStem: 76 138<233 267> 656 138<409 443>
DStem: 141 70 177 39 57 -20 89 -54 623 583 643 535 219 153 240 106 763 730 797 699 680 643 718 615
Fore
763 730 m 1
 797 699 l 1
 718 615 l 1
 771 560 794 501 794 416 c 0
 794 168 608 -17 360 -17 c 0
 291 -17 247 -4 177 39 c 1
 89 -54 l 1
 57 -20 l 1
 141 70 l 1
 94 118 76 173 76 261 c 0
 76 520 246 695 498 695 c 0
 570 695 612 683 680 643 c 1
 763 730 l 1
643 535 m 1
 240 106 l 1
 291 48 333 26 391 26 c 0
 473 26 542 70 589 153 c 0
 631 226 656 332 656 435 c 0
 656 473 653 497 643 535 c 1
219 153 m 1
 623 583 l 1
 580 633 540 652 476 652 c 0
 417 652 366 631 328 592 c 0
 256 519 214 386 214 235 c 0
 214 206 215 184 219 153 c 1
EndSplineSet
KernsSLIF: 65 -44 0 0
EndChar
StartChar: OE
Encoding: 234 338 142
Width: 944
Flags: W
HStem: -17 47<298 330> 0 50<630 705> 330 48<656 731> 632 46<787 801.787> 648 47<390 424>
VStem: 39 123<254 288>
DStem: 556 450 648 330 515 228 598 56
Fore
648 330 m 1x34
 598 56 l 1
 620 51 634 50 656 50 c 0
 714 50 800 55 817 59 c 0
 838 64 849 75 856 98 c 2
 878 168 l 1
 914 168 l 1
 901 115 894 80 880 -3 c 1
 762 -1 l 1
 652 0 l 1
 634 0 l 2x74
 623 0 623 0 480 -3 c 1
 495 63 l 1
 431 5 376 -17 298 -17 c 0
 209 -17 139 15 95 76 c 0
 60 125 39 201 39 281 c 0
 39 515 196 695 400 695 c 0xac
 439 695 476 688 508 676 c 0
 544 661 563 647 594 608 c 1
 606 681 l 1
 659 679 691 678 731 678 c 0
 745 678 795 679 864 680 c 2
 951 681 l 1
 961 672 l 1
 949 608 944 575 936 520 c 1
 904 520 l 1
 904 573 l 2
 904 601 902 611 897 617 c 0
 892 622 866 627 831 629 c 0
 811 630 792 632 787 632 c 0
 770 634 758 635 752 634 c 2
 742 633 l 1
 703 630 l 1
 656 378 l 1
 712 378 l 2
 763 378 797 379 852 381 c 1
 857 372 l 1
 843 325 l 1
 738 329 705 330 673 330 c 2
 648 330 l 1x34
515 228 m 2
 556 450 l 1
 559 464 560 479 560 493 c 0
 560 586 497 648 403 648 c 0
 336 648 280 618 239 559 c 0
 192 491 162 378 162 264 c 0
 162 114 222 30 330 30 c 0xac
 427 30 491 99 515 228 c 2
EndSplineSet
EndChar
StartChar: ordmasculine
Encoding: 235 186 143
Width: 333
Flags: W
HStem: 391 26<146 177> 657 26<220 247>
VStem: 51 74<470 501> 272 74<582 602>
Fore
247 683 m 0
 310 683 346 650 346 592 c 0
 346 564 339 531 327 499 c 0
 303 438 225 391 146 391 c 0
 83 391 51 422 51 482 c 0
 51 520 65 571 83 600 c 0
 110 644 187 683 247 683 c 0
220 657 m 0
 195 657 173 643 157 615 c 0
 139 585 125 525 125 480 c 0
 125 441 145 417 177 417 c 0
 206 417 230 436 247 472 c 0
 261 502 272 556 272 595 c 0
 272 632 251 657 220 657 c 0
EndSplineSet
EndChar
StartChar: ae
Encoding: 241 230 144
Width: 738
Flags: W
HStem: -17 73<149 208> 222 29<259 335> 421 48<571 617>
VStem: 44 105<80 113> 617 94<366 385>
Fore
670 114 m 1
 680 86 l 1
 668 78 663 75 651 68 c 0
 552 3 502 -17 443 -17 c 0
 379 -17 342 9 322 69 c 1
 237 -1 204 -17 149 -17 c 0
 85 -17 44 21 44 80 c 0
 44 131 71 184 109 210 c 0
 145 234 206 251 259 251 c 2
 339 251 l 1
 339 295 l 2
 339 369 300 408 226 408 c 0
 219 408 213 407 197 405 c 0
 185 404 179 403 166 402 c 1
 142 335 l 1
 123 339 l 1
 116 413 l 1
 172 455 208 469 266 469 c 0
 343 469 386 440 409 372 c 1
 501 443 557 469 617 469 c 0
 674 469 711 435 711 383 c 0
 711 291 627 240 439 218 c 1
 436 193 435 170 435 141 c 0
 435 77 458 47 508 47 c 0
 549 47 595 66 670 114 c 1
335 222 m 1
 291 222 l 2
 207 222 149 177 149 113 c 0
 149 75 169 56 208 56 c 0
 282 56 330 118 335 222 c 1
443 248 m 1
 468 251 481 252 492 255 c 0
 538 265 573 285 593 311 c 0
 608 332 617 354 617 373 c 0
 617 403 600 421 571 421 c 0
 536 421 508 400 486 358 c 0
 474 335 469 322 443 248 c 1
EndSplineSet
KernsSLIF: 121 30 0 0 119 19 0 0 118 23 0 0
EndChar
StartChar: dotlessi
Encoding: 245 305 145
Width: 333
Flags: W
HStem: -17 82<99 193> 370 99<130 238>
DStem: 132 319 255 365 73 78 201 169
Fore
26 346 m 1
 89 393 l 2
 150 439 210 469 238 469 c 0
 253 469 264 454 264 432 c 0
 264 413 260 383 255 365 c 2
 201 169 l 2
 188 122 181 89 181 77 c 0
 181 71 187 65 193 65 c 0
 202 65 220 74 254 95 c 2
 281 112 l 1
 293 84 l 1
 282 76 278 74 265 64 c 0
 184 6 137 -17 99 -17 c 0
 80 -17 67 0 67 26 c 0
 67 41 70 64 73 78 c 1
 132 319 l 2
 138 343 140 354 140 359 c 0
 140 366 136 370 130 370 c 0
 121 370 80 350 61 336 c 2
 39 320 l 1
 26 346 l 1
EndSplineSet
EndChar
StartChar: lslash
Encoding: 248 322 146
Width: 333
Flags: W
HStem: -17 82<96 194>
VStem: 64 118<36 79>
DStem: 117 316 241 381 80 146 194 170 127 362 117 316 13 301 23 266 179 596 301 652 127 362 251 427 355 482 365 447 251 427 241 381
Fore
127 362 m 1
 179 596 l 1
 182 608 183 618 183 627 c 0
 183 643 171 652 148 652 c 2
 103 652 l 1
 110 680 l 1
 210 695 259 706 308 726 c 1
 318 717 l 1
 315 707 312 694 311 689 c 0
 306 671 302 658 301 652 c 1
 251 427 l 1
 355 482 l 1
 365 447 l 1
 241 381 l 1
 194 170 l 1
 186 136 182 102 182 79 c 0
 182 71 187 65 194 65 c 0
 204 65 229 77 247 91 c 2
 277 114 l 1
 291 87 l 1
 175 2 139 -17 96 -17 c 0
 75 -17 64 1 64 36 c 0
 64 70 65 80 80 146 c 1
 117 316 l 1
 23 266 l 1
 13 301 l 1
 127 362 l 1
EndSplineSet
EndChar
StartChar: oslash
Encoding: 249 248 147
Width: 556
Flags: W
HStem: -17 44<201 242> 425 44<307 349>
DStem: 75 40 99 13 14 -28 42 -50 377 375 388 332 164 136 168 90 495 506 522 481 442 447 472 426
Fore
522 481 m 1
 472 426 l 1
 492 394 502 355 502 314 c 0
 502 254 481 169 455 123 c 0
 436 90 391 49 345 23 c 0
 299 -4 251 -17 201 -17 c 0
 156 -17 122 -7 99 13 c 1
 42 -50 l 1
 14 -28 l 1
 75 40 l 1
 56 72 48 101 48 141 c 0
 48 176 57 226 72 272 c 0
 93 337 127 379 190 419 c 0
 240 452 296 469 349 469 c 0
 385 469 408 463 442 447 c 1
 495 506 l 1
 522 481 l 1
388 332 m 1
 168 90 l 1
 187 46 209 27 242 27 c 0
 277 27 306 46 330 82 c 0
 367 140 383 209 388 332 c 1
164 136 m 1
 377 375 l 1
 358 412 340 425 307 425 c 0
 225 425 176 326 164 136 c 1
EndSplineSet
EndChar
StartChar: oe
Encoding: 250 339 148
Width: 778
Flags: W
HStem: -17 44<199 247> 421 48<612 656>
VStem: 48 114<118 160> 388 89<136 307> 661 94<372 385>
Fore
712 117 m 1
 725 89 l 1
 610 9 551 -17 489 -17 c 0
 440 -17 398 6 376 44 c 1
 300 -2 257 -17 199 -17 c 0
 100 -17 48 35 48 133 c 0
 48 217 72 306 107 350 c 0
 162 418 262 469 343 469 c 0
 390 469 434 455 462 430 c 0
 472 421 477 414 487 398 c 1
 562 450 607 469 656 469 c 0
 718 469 755 437 755 385 c 0
 755 329 721 280 660 247 c 0
 616 223 569 210 483 195 c 1
 479 177 477 158 477 136 c 0
 477 79 504 47 551 47 c 0
 583 47 622 60 654 80 c 2
 712 117 l 1
303 425 m 0
 253 425 226 401 201 333 c 0
 177 270 162 194 162 139 c 0
 162 70 195 27 247 27 c 0
 285 27 313 46 338 88 c 0
 366 136 388 231 388 307 c 0
 388 385 359 425 303 425 c 0
487 223 m 1
 542 236 l 2
 607 251 661 314 661 374 c 0
 661 402 641 421 612 421 c 0
 562 421 528 377 502 280 c 2
 487 223 l 1
EndSplineSet
EndChar
StartChar: germandbls
Encoding: 251 223 149
Width: 556
Flags: W
HStem: -271 77<-96 -30> -271 117<-101 -85> -13 54<311 353> 667 59<377 432>
VStem: 325 90<321 384> 429 90<110 182> 457 92<592 621>
DStem: 128 404 274 549 26 -106 197 210
Fore
128 404 m 1xba
 36 404 l 1
 40 430 l 1
 140 463 l 1
 156 552 168 572 234 624 c 0
 336 705 377 726 432 726 c 0
 503 726 549 685 549 621 c 0xba
 549 586 536 548 514 518 c 0
 501 501 499 499 462 461 c 0
 428 427 415 405 415 384 c 0
 415 364 435 328 468 290 c 0
 506 246 519 218 519 182 c 0
 519 148 504 114 471 76 c 0
 417 13 371 -13 311 -13 c 0
 291 -13 273 -9 243 0 c 0
 238 2 234 3 230 5 c 2
 225 6 l 1
 255 124 l 1
 280 124 l 1
 280 72 l 1
 298 52 323 41 353 41 c 0
 398 41 429 69 429 110 c 0xbc
 429 136 415 165 378 215 c 0
 337 270 325 294 325 321 c 0
 325 347 335 366 377 417 c 0
 408 454 423 474 430 487 c 0
 446 515 457 559 457 592 c 0
 457 637 425 667 377 667 c 0
 324 667 293 631 274 549 c 1
 197 210 l 2
 182 144 145 12 126 -45 c 0
 104 -109 61 -176 14 -216 c 0
 -25 -250 -67 -271 -96 -271 c 0xba
 -105 -271 -120 -267 -131 -262 c 1
 -117 -223 -109 -196 -100 -154 c 1
 -85 -154 l 1x7a
 -65 -184 -51 -194 -30 -194 c 0
 -4 -194 14 -167 26 -106 c 2
 128 404 l 1xba
EndSplineSet
EndChar
StartChar: Adieresis
Encoding: 256 196 150
Width: 722
Flags: W
HStem: 0 21G<524 551.5> 267 40<245 370> 663 20G<414 510> 749 131<367 380 580 593>
VStem: 313 123<806 820> 526 123<806 820>
DStem: 400 573 518 612 438 307 594 90 414 683 400 573 51 70 245 307 414 683 222 264 51 70 136 112
Fore
414 683 m 1
 510 683 l 1
 512 663 514 647 515 640 c 0
 517 618 518 615 518 612 c 1
 594 90 l 1
 600 54 616 38 648 35 c 2
 685 32 l 1
 685 -3 l 1
 600 -1 564 0 539 0 c 0
 509 0 509 0 384 -3 c 1
 384 32 l 1
 426 35 l 2
 454 37 469 48 468 66 c 1
 443 264 l 1
 406 265 l 2
 372 266 354 267 343 267 c 2
 333 267 l 1
 222 264 l 1
 136 112 l 2
 122 87 117 72 117 55 c 0
 117 43 131 37 160 35 c 2
 204 32 l 1
 199 -3 l 1
 178 -2 150 -2 143 -1 c 0
 103 0 93 0 85 0 c 2
 -35 -3 l 1
 -30 32 l 1
 4 35 l 2
 22 36 37 48 51 70 c 1
 414 683 l 1
400 573 m 1
 245 307 l 1
 438 307 l 1
 400 573 l 1
593 880 m 0
 626 880 649 855 649 820 c 0
 649 779 620 749 580 749 c 0
 547 749 526 771 526 806 c 0
 526 847 556 880 593 880 c 0
380 880 m 0
 413 880 436 855 436 820 c 0
 436 779 407 749 367 749 c 0
 334 749 313 771 313 806 c 0
 313 847 343 880 380 880 c 0
EndSplineSet
KernsSLIF: 121 -14 0 0 119 -15 0 0 118 -14 0 0 117 9 0 0 116 -3 0 0 39 -49 0 0 186 -47 0 0 113 19 0 0 46 17 0 0 111 3 0 0 172 -40 0 0 171 -27 0 0 103 -23 0 0 100 15 0 0 44 19 0 0 99 12 0 0 98 10 0 0 97 13 0 0 89 -30 0 0 87 -63 0 0 86 -72 0 0 85 -24 0 0 84 -12 0 0 81 -37 0 0 79 -37 0 0 71 -31 0 0 67 -30 0 0
Ligature: 0 0 'liga' A uni0308
EndChar
StartChar: Aacute
Encoding: 257 193 151
Width: 722
Flags: W
HStem: 0 21G<524 551.5> 267 40<245 371> 663 20G<414 510>
DStem: 400 573 518 612 438 307 594 90 414 683 400 573 51 70 245 307 414 683 222 264 51 70 136 112
Fore
414 683 m 1
 510 683 l 1
 512 663 514 647 515 640 c 0
 517 618 518 615 518 612 c 1
 594 90 l 1
 600 54 616 38 648 35 c 2
 685 32 l 1
 685 -3 l 1
 600 -1 564 0 539 0 c 0
 509 0 509 0 384 -3 c 1
 384 32 l 1
 426 35 l 2
 454 37 469 48 468 66 c 1
 443 264 l 1
 406 265 l 2
 372 266 354 267 343 267 c 2
 333 267 l 1
 222 264 l 1
 136 112 l 2
 122 87 117 72 117 55 c 0
 117 43 131 37 160 35 c 2
 204 32 l 1
 199 -3 l 1
 178 -2 150 -2 143 -1 c 0
 103 0 93 0 85 0 c 2
 -35 -3 l 1
 -30 32 l 1
 4 35 l 2
 22 36 37 48 51 70 c 1
 414 683 l 1
400 573 m 1
 245 307 l 1
 438 307 l 1
 400 573 l 1
369 730 m 1
 510 881 l 2
 530 902 545 911 561 911 c 0
 587 911 608 891 608 866 c 0
 608 846 600 835 572 819 c 2
 418 730 l 1
 369 730 l 1
EndSplineSet
KernsSLIF: 121 -14 0 0 119 -15 0 0 118 -14 0 0 117 9 0 0 116 -3 0 0 39 -49 0 0 113 19 0 0 46 17 0 0 111 3 0 0 172 -40 0 0 171 -27 0 0 103 -23 0 0 101 17 0 0 100 15 0 0 44 19 0 0 99 12 0 0 98 10 0 0 97 13 0 0 89 -30 0 0 87 -63 0 0 86 -72 0 0 85 -24 0 0 84 -12 0 0 81 -37 0 0 79 -37 0 0 71 -31 0 0 67 -30 0 0
Ligature: 0 0 'liga' A acutecomb
EndChar
StartChar: Agrave
Encoding: 258 192 152
Width: 722
Flags: W
HStem: 0 21G<524 551.5> 267 40<245 366> 663 20G<414 510>
DStem: 400 573 518 612 438 307 594 90 414 683 400 573 51 70 245 307 414 683 222 264 51 70 136 112
Fore
414 683 m 1
 510 683 l 1
 512 663 514 647 515 640 c 0
 517 618 518 615 518 612 c 1
 594 90 l 1
 600 54 616 38 648 35 c 2
 685 32 l 1
 685 -3 l 1
 600 -1 564 0 539 0 c 0
 509 0 509 0 384 -3 c 1
 384 32 l 1
 426 35 l 2
 454 37 469 48 468 66 c 1
 443 264 l 1
 406 265 l 2
 372 266 354 267 343 267 c 2
 333 267 l 1
 222 264 l 1
 136 112 l 2
 122 87 117 72 117 55 c 0
 117 43 131 37 160 35 c 2
 204 32 l 1
 199 -3 l 1
 178 -2 150 -2 143 -1 c 0
 103 0 93 0 85 0 c 2
 -35 -3 l 1
 -30 32 l 1
 4 35 l 2
 22 36 37 48 51 70 c 1
 414 683 l 1
400 573 m 1
 245 307 l 1
 438 307 l 1
 400 573 l 1
500 730 m 1
 377 812 l 2
 342 835 333 847 333 868 c 0
 333 890 356 911 380 911 c 0
 399 911 418 898 441 867 c 2
 545 730 l 1
 500 730 l 1
EndSplineSet
KernsSLIF: 46 17 0 0 44 19 0 0 89 -30 0 0 87 -63 0 0 86 -72 0 0 85 -24 0 0 84 -12 0 0 81 -37 0 0 79 -37 0 0 71 -31 0 0 67 -30 0 0
Ligature: 0 0 'liga' A gravecomb
EndChar
StartChar: Acircumflex
Encoding: 259 194 153
Width: 722
Flags: W
HStem: 0 21G<524 551.5> 267 40<245 366> 663 20G<414 510>
DStem: 400 573 518 612 438 307 594 90 414 683 400 573 51 70 245 307 414 683 222 264 51 70 136 112
Fore
414 683 m 1
 510 683 l 1
 512 663 514 647 515 640 c 0
 517 618 518 615 518 612 c 1
 594 90 l 1
 600 54 616 38 648 35 c 2
 685 32 l 1
 685 -3 l 1
 600 -1 564 0 539 0 c 0
 509 0 509 0 384 -3 c 1
 384 32 l 1
 426 35 l 2
 454 37 469 48 468 66 c 1
 443 264 l 1
 406 265 l 2
 372 266 354 267 343 267 c 2
 333 267 l 1
 222 264 l 1
 136 112 l 2
 122 87 117 72 117 55 c 0
 117 43 131 37 160 35 c 2
 204 32 l 1
 199 -3 l 1
 178 -2 150 -2 143 -1 c 0
 103 0 93 0 85 0 c 2
 -35 -3 l 1
 -30 32 l 1
 4 35 l 2
 22 36 37 48 51 70 c 1
 414 683 l 1
400 573 m 1
 245 307 l 1
 438 307 l 1
 400 573 l 1
536 896 m 1
 622 722 l 1
 571 722 l 1
 483 817 l 1
 352 722 l 1
 295 722 l 1
 455 896 l 1
 536 896 l 1
EndSplineSet
KernsSLIF: 46 17 0 0 44 19 0 0 89 -30 0 0 87 -62 0 0 86 -72 0 0 85 -24 0 0 84 -12 0 0 81 -37 0 0 79 -37 0 0 71 -31 0 0 67 -30 0 0
Ligature: 0 0 'liga' A uni0302
EndChar
StartChar: Abreve
Encoding: 260 258 154
Width: 722
Flags: W
HStem: 0 21G<524 551.5> 267 40<245 376> 663 20G<414 510> 730 72<460 480>
DStem: 400 573 518 612 438 307 594 90 414 683 400 573 51 70 245 307 414 683 222 264 51 70 136 112
Fore
414 683 m 1
 510 683 l 1
 512 663 514 647 515 640 c 0
 517 618 518 615 518 612 c 1
 594 90 l 1
 600 54 616 38 648 35 c 2
 685 32 l 1
 685 -3 l 1
 600 -1 564 0 539 0 c 0
 509 0 509 0 384 -3 c 1
 384 32 l 1
 426 35 l 2
 454 37 469 48 468 66 c 1
 443 264 l 1
 406 265 l 2
 372 266 354 267 343 267 c 2
 333 267 l 1
 222 264 l 1
 136 112 l 2
 122 87 117 72 117 55 c 0
 117 43 131 37 160 35 c 2
 204 32 l 1
 199 -3 l 1
 178 -2 150 -2 143 -1 c 0
 103 0 93 0 85 0 c 2
 -35 -3 l 1
 -30 32 l 1
 4 35 l 2
 22 36 37 48 51 70 c 1
 414 683 l 1
400 573 m 1
 245 307 l 1
 438 307 l 1
 400 573 l 1
331 892 m 1
 374 892 l 1
 379 830 411 802 478 802 c 0
 542 802 579 828 608 892 c 1
 647 892 l 1
 637 844 628 821 609 796 c 0
 577 754 525 730 463 730 c 0
 416 730 384 743 362 772 c 0
 340 800 332 831 331 892 c 1
EndSplineSet
Ligature: 0 0 'liga' A uni0306
EndChar
StartChar: Atilde
Encoding: 261 195 155
Width: 722
Flags: W
HStem: 0 21G<524 551.5> 267 40<245 375> 663 20G<414 510> 747 77<533 558> 791 75<375 407>
DStem: 400 573 518 612 438 307 594 90 414 683 400 573 51 70 245 307 414 683 222 264 51 70 136 112
Fore
414 683 m 1xe0
 510 683 l 1
 512 663 514 647 515 640 c 0
 517 618 518 615 518 612 c 1
 594 90 l 1
 600 54 616 38 648 35 c 2
 685 32 l 1
 685 -3 l 1
 600 -1 564 0 539 0 c 0
 509 0 509 0 384 -3 c 1
 384 32 l 1
 426 35 l 2
 454 37 469 48 468 66 c 1
 443 264 l 1
 406 265 l 2
 372 266 354 267 343 267 c 2
 333 267 l 1
 222 264 l 1
 136 112 l 2
 122 87 117 72 117 55 c 0
 117 43 131 37 160 35 c 2
 204 32 l 1
 199 -3 l 1
 178 -2 150 -2 143 -1 c 0
 103 0 93 0 85 0 c 2
 -35 -3 l 1
 -30 32 l 1
 4 35 l 2
 22 36 37 48 51 70 c 1
 414 683 l 1xe0
400 573 m 1
 245 307 l 1
 438 307 l 1
 400 573 l 1
329 747 m 1xf0
 289 747 l 1xf0
 307 826 347 866 407 866 c 0xe8
 433 866 450 862 483 847 c 0
 516 832 541 824 558 824 c 0xf0
 580 824 593 835 607 866 c 1
 648 866 l 1xe8
 627 785 590 747 533 747 c 0xf0
 510 747 497 751 451 769 c 0
 409 786 392 791 375 791 c 0xe8
 355 791 344 781 329 747 c 1xf0
EndSplineSet
KernsSLIF: 46 17 0 0 44 19 0 0 89 -30 0 0 87 -63 0 0 86 -72 0 0 85 -24 0 0 84 -12 0 0 81 -37 0 0 79 -37 0 0 71 -31 0 0 67 -30 0 0
Ligature: 0 0 'liga' A tildecomb
EndChar
StartChar: Aring
Encoding: 262 197 156
Width: 722
Flags: W
HStem: 0 21G<524 551.5> 267 40<245 374> 663 20G<414 510> 735 50<472 478> 885 50<466 478>
VStem: 372 50<828 846> 522 50<835 839>
DStem: 400 573 518 612 438 307 594 90 414 683 400 573 51 70 245 307 414 683 222 264 51 70 136 112
Fore
414 683 m 1
 510 683 l 1
 512 663 514 647 515 640 c 0
 517 618 518 615 518 612 c 1
 594 90 l 1
 600 54 616 38 648 35 c 2
 685 32 l 1
 685 -3 l 1
 600 -1 564 0 539 0 c 0
 509 0 509 0 384 -3 c 1
 384 32 l 1
 426 35 l 2
 454 37 469 48 468 66 c 1
 443 264 l 1
 406 265 l 2
 372 266 354 267 343 267 c 2
 333 267 l 1
 222 264 l 1
 136 112 l 2
 122 87 117 72 117 55 c 0
 117 43 131 37 160 35 c 2
 204 32 l 1
 199 -3 l 1
 178 -2 150 -2 143 -1 c 0
 103 0 93 0 85 0 c 2
 -35 -3 l 1
 -30 32 l 1
 4 35 l 2
 22 36 37 48 51 70 c 1
 414 683 l 1
400 573 m 1
 245 307 l 1
 438 307 l 1
 400 573 l 1
474 935 m 0
 527 935 572 889 572 835 c 0
 572 780 527 735 472 735 c 0
 417 735 372 780 372 836 c 0
 372 891 417 935 474 935 c 0
473 885 m 0
 444 885 422 863 422 835 c 0
 422 807 444 785 472 785 c 0
 500 785 522 807 522 835 c 0
 522 862 500 885 473 885 c 0
EndSplineSet
KernsSLIF: 121 -14 0 0 119 -15 0 0 118 -14 0 0 117 9 0 0 116 -3 0 0 39 -49 0 0 186 -47 0 0 113 19 0 0 46 17 0 0 111 3 0 0 172 -40 0 0 171 -27 0 0 103 -23 0 0 101 17 0 0 100 15 0 0 44 19 0 0 99 12 0 0 98 10 0 0 97 13 0 0 89 -30 0 0 87 -63 0 0 86 -72 0 0 85 -24 0 0 84 -12 0 0 81 -37 0 0 79 -37 0 0 71 -31 0 0 67 -30 0 0
Ligature: 0 0 'liga' A uni030A
EndChar
StartChar: Aogonek
Encoding: 263 260 157
Width: 722
Flags: W
HStem: -189 55<606 657> -3 35<672.667 685> 267 40<245 366> 663 20G<414 510>
VStem: 539 70<-124 -87>
DStem: 400 573 518 612 438 307 594 90 414 683 400 573 51 70 245 307 414 683 222 264 51 70 136 112
Fore
414 683 m 1
 510 683 l 1
 512 663 514 647 515 640 c 0
 517 618 518 615 518 612 c 1
 594 90 l 1
 600 54 616 38 648 35 c 2
 685 32 l 1
 685 -3 l 1
 676 -3 l 1
 674 -2 l 1
 636 -25 609 -61 609 -87 c 0
 609 -112 632 -134 657 -134 c 0
 679 -134 697 -124 721 -99 c 1
 745 -112 l 1
 691 -168 652 -189 606 -189 c 0
 566 -189 539 -163 539 -124 c 0
 539 -85 557 -60 627 -2 c 1
 570 0 562 0 538 0 c 0
 507 0 507 0 384 -3 c 1
 384 32 l 1
 426 35 l 2
 454 37 469 48 468 66 c 1
 443 264 l 1
 406 265 l 2
 372 266 354 267 343 267 c 2
 333 267 l 1
 222 264 l 1
 136 112 l 2
 122 87 117 72 117 55 c 0
 117 43 131 37 160 35 c 2
 204 32 l 1
 199 -3 l 1
 115 0 l 1
 85 0 l 1
 -35 -3 l 1
 -30 32 l 1
 4 35 l 2
 22 36 37 48 51 70 c 1
 414 683 l 1
400 573 m 1
 245 307 l 1
 438 307 l 1
 400 573 l 1
EndSplineSet
Ligature: 0 0 'liga' A uni0328
EndChar
StartChar: Ccedilla
Encoding: 264 199 158
Width: 685
Flags: W
HStem: -218 41<275 301> -100 41<284 334> -17 65<339 399> 636 59<452 504>
VStem: 69 138<245 279> 332 92<-139 -129>
DStem: 296 -15 339 -17 242 -92 308 -62
Fore
339 -17 m 1
 308 -62 l 1
 318 -60 325 -59 334 -59 c 0
 387 -59 424 -89 424 -131 c 0
 424 -182 372 -218 301 -218 c 0
 262 -218 233 -212 188 -193 c 1
 210 -160 l 1
 239 -173 255 -177 277 -177 c 0
 311 -177 332 -162 332 -137 c 0
 332 -113 315 -100 284 -100 c 0
 274 -100 267 -101 255 -104 c 1
 242 -92 l 1
 296 -15 l 1
 147 0 69 91 69 250 c 0
 69 497 263 695 504 695 c 0
 573 695 630 682 695 652 c 1
 669 560 662 531 657 484 c 1
 622 484 l 1
 627 572 l 1
 629 605 544 636 452 636 c 0
 303 636 207 494 207 272 c 0
 207 119 268 48 399 48 c 0
 462 48 521 67 597 112 c 2
 619 125 l 1
 629 116 l 1
 616 77 l 1
 514 11 432 -17 339 -17 c 1
EndSplineSet
KernsSLIF: 65 20 0 0
Ligature: 0 0 'liga' C uni0327
EndChar
StartChar: Cacute
Encoding: 265 262 159
Width: 685
Flags: W
HStem: -17 65<340 399> 636 59<452 504>
VStem: 69 138<248 274>
Fore
622 484 m 1
 627 572 l 1
 629 605 544 636 452 636 c 0
 303 636 207 494 207 272 c 0
 207 119 268 48 399 48 c 0
 462 48 521 67 597 112 c 2
 619 125 l 1
 629 116 l 1
 616 77 l 1
 506 8 434 -17 340 -17 c 0
 264 -17 196 3 152 39 c 0
 97 84 69 154 69 250 c 0
 69 497 263 695 504 695 c 0
 573 695 630 682 695 652 c 1
 669 560 662 531 657 484 c 1
 622 484 l 1
429 730 m 1
 570 881 l 2
 590 902 605 911 621 911 c 0
 647 911 668 891 668 866 c 0
 668 846 660 835 632 819 c 2
 478 730 l 1
 429 730 l 1
EndSplineSet
Ligature: 0 0 'liga' C acutecomb
EndChar
StartChar: Ccaron
Encoding: 266 268 160
Width: 685
Flags: W
HStem: -17 65<340 399> 636 59<452 504>
VStem: 69 138<248 274>
Fore
622 484 m 1
 627 572 l 1
 629 605 544 636 452 636 c 0
 303 636 207 494 207 272 c 0
 207 119 268 48 399 48 c 0
 462 48 521 67 597 112 c 2
 619 125 l 1
 629 116 l 1
 616 77 l 1
 506 8 434 -17 340 -17 c 0
 264 -17 196 3 152 39 c 0
 97 84 69 154 69 250 c 0
 69 497 263 695 504 695 c 0
 573 695 630 682 695 652 c 1
 669 560 662 531 657 484 c 1
 622 484 l 1
467 722 m 1
 379 896 l 1
 429 896 l 1
 520 799 l 1
 655 896 l 1
 711 896 l 1
 549 722 l 1
 467 722 l 1
EndSplineSet
Ligature: 0 0 'liga' C uni030C
EndChar
StartChar: Dcaron
Encoding: 267 270 161
Width: 778
Flags: W
HStem: -3 43<287 344> 640 40<363 401>
VStem: 609 138<412 446>
DStem: 168 594 303 635 81 92 203 51
Fore
5 29 m 1
 33 32 l 2
 63 35 73 47 81 92 c 1
 168 594 l 1
 169 601 170 609 170 614 c 0
 170 636 159 644 124 646 c 2
 78 649 l 1
 83 681 l 1
 214 678 214 678 243 678 c 0
 268 678 289 678 363 680 c 0
 406 681 434 682 451 682 c 0
 566 682 634 658 685 601 c 0
 725 556 747 494 747 422 c 0
 747 300 695 179 608 100 c 0
 535 33 438 -3 330 -3 c 2
 258 -2 l 2
 234 -1 159 0 141 0 c 0
 105 0 74 -1 0 -3 c 1
 5 29 l 1
303 635 m 1
 203 51 l 1
 266 42 286 40 314 40 c 0
 430 40 496 73 541 151 c 0
 582 225 609 336 609 434 c 0
 609 521 584 578 533 608 c 0
 499 627 435 640 376 640 c 0
 371 640 357 639 342 638 c 2
 303 635 l 1
424 722 m 1
 336 896 l 1
 386 896 l 1
 477 799 l 1
 612 896 l 1
 668 896 l 1
 506 722 l 1
 424 722 l 1
EndSplineSet
Ligature: 0 0 'liga' D uni030C
EndChar
StartChar: Edieresis
Encoding: 268 203 162
Width: 611
Flags: W
HStem: -3 53<275 312> 0 168<520 523> 330 48<270 364> 330 348<262 317> 520 161<549 581> 634 47<377 409> 749 131<261 274 474 487>
VStem: 207 123<806 820> 420 123<806 820>
DStem: 179 594 315 630 92 92 270 378 179 594 262 330 92 92 214 56
Fore
16 29 m 1x8380
 44 32 l 2
 74 35 84 47 92 92 c 1
 179 594 l 1
 180 601 181 609 181 614 c 0
 181 636 170 644 135 646 c 2
 89 649 l 1
 94 681 l 1x8780
 225 678 225 678 251 678 c 0x1380
 275 678 304 678 406 681 c 2
 436 681 l 2x0780
 451 681 451 681 596 678 c 1x1380
 606 672 l 1
 594 608 589 575 581 520 c 1
 549 520 l 1x0b80
 549 573 l 2
 549 606 547 616 537 619 c 0
 522 625 425 634 377 634 c 0
 371 634 362 634 354 633 c 2
 315 630 l 1
 270 378 l 1
 356 378 l 2
 407 378 441 379 496 381 c 1
 501 372 l 1
 487 325 l 1
 382 329 349 330 317 330 c 2x2780
 262 330 l 1
 214 56 l 1
 238 51 251 50 275 50 c 2
 312 50 l 1x9380
 390 53 l 2
 473 56 485 61 498 98 c 1
 520 168 l 1
 556 168 l 1
 545 123 538 88 522 0 c 1x4380
 378 -3 378 -3 355 -3 c 0x8380
 336 -3 312 -3 199 0 c 2
 150 0 l 2x4380
 117 0 112 0 11 -3 c 1
 16 29 l 1x8380
487 880 m 0
 520 880 543 855 543 820 c 0
 543 779 514 749 474 749 c 0
 441 749 420 771 420 806 c 0
 420 847 450 880 487 880 c 0
274 880 m 0
 307 880 330 855 330 820 c 0
 330 779 301 749 261 749 c 0
 228 749 207 771 207 806 c 0
 207 847 237 880 274 880 c 0
EndSplineSet
Ligature: 0 0 'liga' E uni0308
EndChar
StartChar: Eacute
Encoding: 269 201 163
Width: 611
Flags: W
HStem: -3 53<275 312> 0 168<520 523> 330 48<270 364> 330 348<262 317> 520 161<549 581> 634 47<377 409>
DStem: 179 594 315 630 92 92 270 378 179 594 262 330 92 92 214 56
Fore
16 29 m 1x80
 44 32 l 2
 74 35 84 47 92 92 c 1
 179 594 l 1
 180 601 181 609 181 614 c 0
 181 636 170 644 135 646 c 2
 89 649 l 1
 94 681 l 1x84
 225 678 225 678 251 678 c 0x10
 275 678 304 678 406 681 c 2
 436 681 l 2x04
 451 681 451 681 596 678 c 1x10
 606 672 l 1
 594 608 589 575 581 520 c 1
 549 520 l 1x08
 549 573 l 2
 549 606 547 616 537 619 c 0
 522 625 425 634 377 634 c 0
 371 634 362 634 354 633 c 2
 315 630 l 1
 270 378 l 1
 356 378 l 2
 407 378 441 379 496 381 c 1
 501 372 l 1
 487 325 l 1
 382 329 349 330 317 330 c 2x24
 262 330 l 1
 214 56 l 1
 238 51 251 50 275 50 c 2
 312 50 l 1x90
 390 53 l 2
 473 56 485 61 498 98 c 1
 520 168 l 1
 556 168 l 1
 545 123 538 88 522 0 c 1x40
 378 -3 378 -3 355 -3 c 0x80
 336 -3 312 -3 199 0 c 2
 150 0 l 2x40
 117 0 112 0 11 -3 c 1
 16 29 l 1x80
293 730 m 1
 434 881 l 2
 454 902 469 911 485 911 c 0
 511 911 532 891 532 866 c 0
 532 846 524 835 496 819 c 2
 342 730 l 1
 293 730 l 1
EndSplineSet
Ligature: 0 0 'liga' E acutecomb
EndChar
StartChar: Egrave
Encoding: 270 200 164
Width: 611
Flags: W
HStem: -3 53<275 312> 0 168<520 523> 330 48<270 364> 330 348<262 317> 634 47<377 411>
DStem: 179 594 315 630 92 92 270 378 179 594 262 330 92 92 214 56
Fore
16 29 m 1x80
 44 32 l 2
 74 35 84 47 92 92 c 1
 179 594 l 1
 180 601 181 609 181 614 c 0
 181 636 170 644 135 646 c 2
 89 649 l 1
 94 681 l 1x88
 225 678 225 678 251 678 c 0x10
 275 678 304 678 406 681 c 2
 436 681 l 2x08
 451 681 451 681 596 678 c 1x10
 606 672 l 1
 594 608 589 575 581 520 c 1
 549 520 l 1
 549 573 l 2
 549 606 547 616 537 619 c 0
 522 625 425 634 377 634 c 0
 371 634 362 634 354 633 c 2
 315 630 l 1
 270 378 l 1
 356 378 l 2
 407 378 441 379 496 381 c 1
 501 372 l 1
 487 325 l 1
 382 329 349 330 317 330 c 2x28
 262 330 l 1
 214 56 l 1
 238 51 251 50 275 50 c 2
 312 50 l 1x90
 390 53 l 2
 473 56 485 61 498 98 c 1
 520 168 l 1
 556 168 l 1
 545 123 538 88 522 0 c 1x40
 378 -3 378 -3 355 -3 c 0x80
 336 -3 312 -3 199 0 c 2
 150 0 l 2x40
 117 0 112 0 11 -3 c 1
 16 29 l 1x80
411 730 m 1
 288 812 l 2
 253 835 244 847 244 868 c 0
 244 890 267 911 291 911 c 0
 310 911 329 898 352 867 c 2
 456 730 l 1
 411 730 l 1
EndSplineSet
Ligature: 0 0 'liga' E gravecomb
EndChar
StartChar: Ecircumflex
Encoding: 271 202 165
Width: 611
Flags: W
HStem: -3 53<275 312> 0 168<520 523> 330 48<270 363> 330 348<262 317> 520 161<549 581> 634 47<377 409>
DStem: 179 594 315 630 92 92 270 378 179 594 262 330 92 92 214 56
Fore
16 29 m 1x80
 44 32 l 2
 74 35 84 47 92 92 c 1
 179 594 l 1
 180 601 181 609 181 614 c 0
 181 636 170 644 135 646 c 2
 89 649 l 1
 94 681 l 1x84
 225 678 225 678 251 678 c 0x10
 275 678 304 678 406 681 c 2
 436 681 l 2x04
 451 681 451 681 596 678 c 1x10
 606 672 l 1
 594 608 589 575 581 520 c 1
 549 520 l 1x08
 549 573 l 2
 549 606 547 616 537 619 c 0
 522 625 425 634 377 634 c 0
 371 634 362 634 354 633 c 2
 315 630 l 1
 270 378 l 1
 356 378 l 2
 407 378 441 379 496 381 c 1
 501 372 l 1
 487 325 l 1
 382 329 349 330 317 330 c 2x24
 262 330 l 1
 214 56 l 1
 238 51 251 50 275 50 c 2
 312 50 l 1x90
 390 53 l 2
 473 56 485 61 498 98 c 1
 520 168 l 1
 556 168 l 1
 545 123 538 88 522 0 c 1x40
 378 -3 378 -3 355 -3 c 0x80
 336 -3 312 -3 199 0 c 2
 150 0 l 2x40
 117 0 112 0 11 -3 c 1
 16 29 l 1x80
442 896 m 1
 528 722 l 1
 477 722 l 1
 389 817 l 1
 258 722 l 1
 201 722 l 1
 361 896 l 1
 442 896 l 1
EndSplineSet
Ligature: 0 0 'liga' E uni0302
EndChar
StartChar: Ecaron
Encoding: 272 282 166
Width: 611
Flags: W
HStem: -3 53<275 312> 0 168<520 523> 330 48<270 364> 330 348<262 317> 520 161<549 581> 634 47<377 409>
DStem: 179 594 315 630 92 92 270 378 179 594 262 330 92 92 214 56
Fore
16 29 m 1x80
 44 32 l 2
 74 35 84 47 92 92 c 1
 179 594 l 1
 180 601 181 609 181 614 c 0
 181 636 170 644 135 646 c 2
 89 649 l 1
 94 681 l 1x84
 225 678 225 678 251 678 c 0x10
 275 678 304 678 406 681 c 2
 436 681 l 2x04
 451 681 451 681 596 678 c 1x10
 606 672 l 1
 594 608 589 575 581 520 c 1
 549 520 l 1x08
 549 573 l 2
 549 606 547 616 537 619 c 0
 522 625 425 634 377 634 c 0
 371 634 362 634 354 633 c 2
 315 630 l 1
 270 378 l 1
 356 378 l 2
 407 378 441 379 496 381 c 1
 501 372 l 1
 487 325 l 1
 382 329 349 330 317 330 c 2x24
 262 330 l 1
 214 56 l 1
 238 51 251 50 275 50 c 2
 312 50 l 1x90
 390 53 l 2
 473 56 485 61 498 98 c 1
 520 168 l 1
 556 168 l 1
 545 123 538 88 522 0 c 1x40
 378 -3 378 -3 355 -3 c 0x80
 336 -3 312 -3 199 0 c 2
 150 0 l 2x40
 117 0 112 0 11 -3 c 1
 16 29 l 1x80
340 722 m 1
 252 896 l 1
 302 896 l 1
 393 799 l 1
 528 896 l 1
 584 896 l 1
 422 722 l 1
 340 722 l 1
EndSplineSet
Ligature: 0 0 'liga' E uni030C
EndChar
StartChar: Edotaccent
Encoding: 273 278 167
Width: 611
Flags: W
HStem: -3 53<275 312> 0 168<520 523> 330 48<270 364> 330 348<262 317> 634 47<377 411> 749 131<395 408>
VStem: 341 123<806 820>
DStem: 179 594 315 630 92 92 270 378 179 594 262 330 92 92 214 56
Fore
16 29 m 1x86
 44 32 l 2
 74 35 84 47 92 92 c 1
 179 594 l 1
 180 601 181 609 181 614 c 0
 181 636 170 644 135 646 c 2
 89 649 l 1
 94 681 l 1x8e
 225 678 225 678 251 678 c 0x16
 275 678 304 678 406 681 c 2
 436 681 l 2x0e
 451 681 451 681 596 678 c 1x16
 606 672 l 1
 594 608 589 575 581 520 c 1
 549 520 l 1
 549 573 l 2
 549 606 547 616 537 619 c 0
 522 625 425 634 377 634 c 0
 371 634 362 634 354 633 c 2
 315 630 l 1
 270 378 l 1
 356 378 l 2
 407 378 441 379 496 381 c 1
 501 372 l 1
 487 325 l 1
 382 329 349 330 317 330 c 2x2e
 262 330 l 1
 214 56 l 1
 238 51 251 50 275 50 c 2
 312 50 l 1x96
 390 53 l 2
 473 56 485 61 498 98 c 1
 520 168 l 1
 556 168 l 1
 545 123 538 88 522 0 c 1x46
 378 -3 378 -3 355 -3 c 0x86
 336 -3 312 -3 199 0 c 2
 150 0 l 2x46
 117 0 112 0 11 -3 c 1
 16 29 l 1x86
408 880 m 0
 441 880 464 855 464 820 c 0
 464 779 435 749 395 749 c 0
 362 749 341 771 341 806 c 0
 341 847 371 880 408 880 c 0
EndSplineSet
Ligature: 0 0 'liga' E uni0307
EndChar
StartChar: Eogonek
Encoding: 274 280 168
Width: 611
Flags: W
HStem: -189 56<438 490> -3 53<275 312> 330 48<270 373> 330 348<262 317> 520 161<549 581> 634 47<377 409>
VStem: 371 71<-124 -87>
DStem: 179 594 315 630 92 92 270 378 179 594 262 330 92 92 214 56
Fore
270 378 m 1xe6
 356 378 l 2
 407 378 441 379 496 381 c 1
 501 372 l 1
 487 325 l 1
 382 329 349 330 317 330 c 2xe6
 262 330 l 1xd2
 214 56 l 1
 238 51 251 50 275 50 c 2
 312 50 l 1
 390 53 l 2
 473 56 485 61 498 98 c 1
 520 168 l 1
 556 168 l 1
 545 123 538 88 522 0 c 1
 510 0 l 2
 504 0 499 -3 480 -22 c 0
 453 -48 442 -66 442 -87 c 0
 442 -113 462 -133 490 -133 c 0
 512 -133 528 -124 553 -99 c 1
 577 -112 l 1
 523 -167 484 -189 438 -189 c 0
 397 -189 371 -163 371 -124 c 0
 371 -86 391 -58 459 -1 c 1
 399 -2 365 -3 356 -3 c 0
 336 -3 314 -3 199 0 c 2
 150 0 l 2
 117 0 112 0 11 -3 c 1
 16 29 l 1
 44 32 l 2
 74 35 84 47 92 92 c 1
 179 594 l 1
 180 601 181 609 181 614 c 0
 181 636 170 644 135 646 c 2
 89 649 l 1
 94 681 l 1xc6
 225 678 225 678 251 678 c 0xd2
 275 678 304 678 406 681 c 2
 436 681 l 2xc6
 451 681 451 681 596 678 c 1xd2
 606 672 l 1
 594 608 589 575 581 520 c 1
 549 520 l 1xca
 549 573 l 2
 549 606 547 616 537 619 c 0
 522 625 425 634 377 634 c 0
 371 634 362 634 354 633 c 2
 315 630 l 1
 270 378 l 1xe6
EndSplineSet
Ligature: 0 0 'liga' E uni0328
EndChar
StartChar: Gbreve
Encoding: 275 286 169
Width: 778
Flags: W
HStem: -17 47<368 398> 633 62<482 523> 730 72<506 528>
VStem: 72 138<238 287>
Fore
517 59 m 1
 549 200 l 2
 551 208 552 217 552 223 c 0
 552 242 540 250 508 251 c 2
 448 253 l 1
 453 286 l 1
 578 283 578 283 602 283 c 0
 628 283 628 283 750 286 c 1
 745 253 l 1
 720 251 l 2
 693 248 683 238 675 206 c 1
 655 110 l 2
 651 91 649 77 649 64 c 1
 652 48 l 1
 508 -4 452 -17 368 -17 c 0
 269 -17 191 9 140 60 c 0
 94 105 72 170 72 256 c 0
 72 440 177 592 352 661 c 0
 411 684 466 695 523 695 c 0
 596 695 653 683 722 652 c 1
 696 560 689 531 684 484 c 1
 649 484 l 1
 653 562 l 1
 654 568 654 572 654 574 c 0
 654 605 574 633 482 633 c 0
 418 633 354 613 316 580 c 0
 253 526 210 395 210 259 c 0
 210 111 276 30 396 30 c 0
 443 30 483 40 517 59 c 1
379 892 m 1
 422 892 l 1
 427 830 459 802 526 802 c 0
 590 802 627 828 656 892 c 1
 695 892 l 1
 685 844 676 821 657 796 c 0
 625 754 573 730 511 730 c 0
 464 730 432 743 410 772 c 0
 388 800 380 831 379 892 c 1
EndSplineSet
Ligature: 0 0 'liga' G uni0306
EndChar
StartChar: Idieresis
Encoding: 276 207 170
Width: 389
Flags: W
HStem: 0 21G<147.5 163.5> 749 131<172 185 385 398>
VStem: 118 123<806 820> 331 123<806 820>
DStem: 178 541 317 599 106 132 230 100
Fore
408 646 m 1
 363 643 l 2
 330 641 324 636 317 599 c 1
 230 100 l 2
 228 89 227 77 227 66 c 0
 227 45 237 36 264 35 c 2
 323 32 l 1
 319 -3 l 1
 171 0 171 0 156 0 c 0
 139 0 139 0 -1 -3 c 1
 3 32 l 1
 52 35 l 2
 85 37 90 47 106 132 c 1
 178 541 l 2
 184 575 187 599 187 613 c 0
 187 632 175 641 149 643 c 2
 97 646 l 1
 101 681 l 1
 231 678 231 678 253 678 c 0
 275 678 275 678 412 681 c 1
 408 646 l 1
398 880 m 0
 431 880 454 855 454 820 c 0
 454 779 425 749 385 749 c 0
 352 749 331 771 331 806 c 0
 331 847 361 880 398 880 c 0
185 880 m 0
 218 880 241 855 241 820 c 0
 241 779 212 749 172 749 c 0
 139 749 118 771 118 806 c 0
 118 847 148 880 185 880 c 0
EndSplineSet
Ligature: 0 0 'liga' I uni0308
EndChar
StartChar: Iacute
Encoding: 277 205 171
Width: 389
Flags: W
HStem: 0 21G<147.5 163.5>
DStem: 178 541 317 599 106 132 230 100
Fore
408 646 m 1
 363 643 l 2
 330 641 324 636 317 599 c 1
 230 100 l 2
 228 89 227 77 227 66 c 0
 227 45 237 36 264 35 c 2
 323 32 l 1
 319 -3 l 1
 171 0 171 0 156 0 c 0
 139 0 139 0 -1 -3 c 1
 3 32 l 1
 52 35 l 2
 85 37 90 47 106 132 c 1
 178 541 l 2
 184 575 187 599 187 613 c 0
 187 632 175 641 149 643 c 2
 97 646 l 1
 101 681 l 1
 231 678 231 678 253 678 c 0
 275 678 275 678 412 681 c 1
 408 646 l 1
181 730 m 1
 322 881 l 2
 342 902 357 911 373 911 c 0
 399 911 420 891 420 866 c 0
 420 846 412 835 384 819 c 2
 230 730 l 1
 181 730 l 1
EndSplineSet
Ligature: 0 0 'liga' I acutecomb
EndChar
StartChar: Igrave
Encoding: 278 204 172
Width: 389
Flags: W
HStem: 0 21G<147.5 163.5>
DStem: 178 541 317 599 106 132 230 100
Fore
408 646 m 1
 363 643 l 2
 330 641 324 636 317 599 c 1
 230 100 l 2
 228 89 227 77 227 66 c 0
 227 45 237 36 264 35 c 2
 323 32 l 1
 319 -3 l 1
 171 0 171 0 156 0 c 0
 139 0 139 0 -1 -3 c 1
 3 32 l 1
 52 35 l 2
 85 37 90 47 106 132 c 1
 178 541 l 2
 184 575 187 599 187 613 c 0
 187 632 175 641 149 643 c 2
 97 646 l 1
 101 681 l 1
 231 678 231 678 253 678 c 0
 275 678 275 678 412 681 c 1
 408 646 l 1
319 730 m 1
 196 812 l 2
 161 835 152 847 152 868 c 0
 152 890 175 911 199 911 c 0
 218 911 237 898 260 867 c 2
 364 730 l 1
 319 730 l 1
EndSplineSet
Ligature: 0 0 'liga' I gravecomb
EndChar
StartChar: Icircumflex
Encoding: 279 206 173
Width: 389
Flags: W
HStem: 0 21G<147.5 163.5>
DStem: 178 541 317 599 106 132 230 100
Fore
408 646 m 1
 363 643 l 2
 330 641 324 636 317 599 c 1
 230 100 l 2
 228 89 227 77 227 66 c 0
 227 45 237 36 264 35 c 2
 323 32 l 1
 319 -3 l 1
 171 0 171 0 156 0 c 0
 139 0 139 0 -1 -3 c 1
 3 32 l 1
 52 35 l 2
 85 37 90 47 106 132 c 1
 178 541 l 2
 184 575 187 599 187 613 c 0
 187 632 175 641 149 643 c 2
 97 646 l 1
 101 681 l 1
 231 678 231 678 253 678 c 0
 275 678 275 678 412 681 c 1
 408 646 l 1
357 896 m 1
 443 722 l 1
 392 722 l 1
 304 817 l 1
 173 722 l 1
 116 722 l 1
 276 896 l 1
 357 896 l 1
EndSplineSet
Ligature: 0 0 'liga' I uni0302
EndChar
StartChar: Idotaccent
Encoding: 280 304 174
Width: 389
Flags: W
HStem: 0 21G<147.5 163.5> 749 131<284 297>
VStem: 230 123<806 820>
DStem: 178 541 317 599 106 132 230 100
Fore
408 646 m 1
 363 643 l 2
 330 641 324 636 317 599 c 1
 230 100 l 2
 228 89 227 77 227 66 c 0
 227 45 237 36 264 35 c 2
 323 32 l 1
 319 -3 l 1
 171 0 171 0 156 0 c 0
 139 0 139 0 -1 -3 c 1
 3 32 l 1
 52 35 l 2
 85 37 90 47 106 132 c 1
 178 541 l 2
 184 575 187 599 187 613 c 0
 187 632 175 641 149 643 c 2
 97 646 l 1
 101 681 l 1
 231 678 231 678 253 678 c 0
 275 678 275 678 412 681 c 1
 408 646 l 1
297 880 m 0
 330 880 353 855 353 820 c 0
 353 779 324 749 284 749 c 0
 251 749 230 771 230 806 c 0
 230 847 260 880 297 880 c 0
EndSplineSet
Ligature: 0 0 'liga' I uni0307
EndChar
StartChar: Lacute
Encoding: 281 313 175
Width: 611
Flags: W
HStem: -3 53<259 372> 0 174<542 545>
DStem: 186 541 325 599 104 92 226 56
Fore
416 646 m 1x80
 371 643 l 2
 338 641 332 635 325 599 c 1
 226 56 l 1
 251 51 263 50 294 50 c 0x80
 334 50 426 53 462 56 c 0
 496 59 510 70 519 98 c 1
 542 174 l 1
 578 174 l 1
 559 81 552 50 544 0 c 1x40
 402 -3 402 -3 372 -3 c 0x80
 360 -3 357 -3 258 -1 c 2
 171 0 l 2x40
 128 0 126 0 26 -3 c 1
 30 29 l 1
 58 32 l 2
 87 35 95 46 104 92 c 1
 186 541 l 2
 192 573 195 599 195 615 c 0
 195 632 183 642 157 643 c 2
 105 646 l 1
 109 681 l 1
 239 678 239 678 261 678 c 0
 283 678 283 678 420 681 c 1
 416 646 l 1x80
232 730 m 1
 373 881 l 2
 393 902 408 911 424 911 c 0
 450 911 471 891 471 866 c 0
 471 846 463 835 435 819 c 2
 281 730 l 1
 232 730 l 1
EndSplineSet
Ligature: 0 0 'liga' L acutecomb
EndChar
StartChar: Lcaron
Encoding: 282 317 176
Width: 611
Flags: W
HStem: -3 53<259 372> 0 174<542 545>
DStem: 186 541 325 599 104 92 226 56
Fore
416 646 m 1x80
 371 643 l 2
 338 641 332 635 325 599 c 1
 226 56 l 1
 251 51 263 50 294 50 c 0x80
 334 50 426 53 462 56 c 0
 496 59 510 70 519 98 c 1
 542 174 l 1
 578 174 l 1
 559 81 552 50 544 0 c 1x40
 402 -3 402 -3 372 -3 c 0x80
 360 -3 357 -3 258 -1 c 2
 171 0 l 2x40
 128 0 126 0 26 -3 c 1
 30 29 l 1
 58 32 l 2
 87 35 95 46 104 92 c 1
 186 541 l 2
 192 573 195 599 195 615 c 0
 195 632 183 642 157 643 c 2
 105 646 l 1
 109 681 l 1
 239 678 239 678 261 678 c 0
 283 678 283 678 420 681 c 1
 416 646 l 1x80
609 720 m 1
 621 707 l 1
 568 604 529 544 477 485 c 1
 432 460 l 1
 418 470 l 1
 460 542 486 611 500 692 c 1
 525 694 526 695 576 710 c 2
 609 720 l 1
EndSplineSet
Ligature: 0 0 'liga' L uni030C
EndChar
StartChar: Nacute
Encoding: 283 323 177
Width: 778
Flags: W
HStem: -3 21G<535 620>
DStem: 185 578 225 534 88 91 152 138 225 534 282 681 535 -3 596 142 670 542 722 528 596 142 636 100
Fore
620 -3 m 1
 535 -3 l 1
 225 534 l 1
 152 138 l 2
 147 111 144 88 144 76 c 0
 144 50 156 36 180 35 c 2
 231 32 l 1
 226 -3 l 1
 133 0 133 0 114 0 c 0
 95 0 95 0 -2 -3 c 1
 0 32 l 1
 48 35 l 2
 70 36 80 50 88 91 c 2
 185 578 l 1
 186 582 l 2
 188 592 171 617 153 629 c 0
 139 638 119 645 103 646 c 2
 64 649 l 1
 67 681 l 1
 112 679 156 678 174 678 c 0
 192 678 192 678 282 681 c 1
 596 142 l 1
 670 542 l 1
 673 561 676 590 676 612 c 0
 676 633 661 644 630 646 c 2
 588 649 l 1
 593 681 l 1
 691 678 691 678 711 678 c 0
 731 678 731 678 829 681 c 1
 823 649 l 1
 786 646 l 2
 767 644 760 642 752 636 c 0
 744 629 739 612 722 528 c 2
 636 100 l 1
 629 67 625 37 620 -3 c 1
376 730 m 1
 517 881 l 2
 537 902 552 911 568 911 c 0
 594 911 615 891 615 866 c 0
 615 846 607 835 579 819 c 2
 425 730 l 1
 376 730 l 1
EndSplineSet
Ligature: 0 0 'liga' N acutecomb
EndChar
StartChar: Ncaron
Encoding: 284 327 178
Width: 778
Flags: W
HStem: -3 21G<535 620>
DStem: 185 578 225 534 88 91 152 138 225 534 282 681 535 -3 596 142 670 542 722 528 596 142 636 100
Fore
620 -3 m 1
 535 -3 l 1
 225 534 l 1
 152 138 l 2
 147 111 144 88 144 76 c 0
 144 50 156 36 180 35 c 2
 231 32 l 1
 226 -3 l 1
 133 0 133 0 114 0 c 0
 95 0 95 0 -2 -3 c 1
 0 32 l 1
 48 35 l 2
 70 36 80 50 88 91 c 2
 185 578 l 1
 186 582 l 2
 188 592 171 617 153 629 c 0
 139 638 119 645 103 646 c 2
 64 649 l 1
 67 681 l 1
 112 679 156 678 174 678 c 0
 192 678 192 678 282 681 c 1
 596 142 l 1
 670 542 l 1
 673 561 676 590 676 612 c 0
 676 633 661 644 630 646 c 2
 588 649 l 1
 593 681 l 1
 691 678 691 678 711 678 c 0
 731 678 731 678 829 681 c 1
 823 649 l 1
 786 646 l 2
 767 644 760 642 752 636 c 0
 744 629 739 612 722 528 c 2
 636 100 l 1
 629 67 625 37 620 -3 c 1
424 722 m 1
 336 896 l 1
 386 896 l 1
 477 799 l 1
 612 896 l 1
 668 896 l 1
 506 722 l 1
 424 722 l 1
EndSplineSet
Ligature: 0 0 'liga' N uni030C
EndChar
StartChar: Ntilde
Encoding: 285 209 179
Width: 778
Flags: W
HStem: -3 21G<535 620> 747 77<561 586> 791 75<403 435>
DStem: 185 578 225 534 88 91 152 138 225 534 282 681 535 -3 596 142 670 542 722 528 596 142 636 100
Fore
620 -3 m 1x80
 535 -3 l 1
 225 534 l 1
 152 138 l 2
 147 111 144 88 144 76 c 0
 144 50 156 36 180 35 c 2
 231 32 l 1
 226 -3 l 1
 133 0 133 0 114 0 c 0
 95 0 95 0 -2 -3 c 1
 0 32 l 1
 48 35 l 2
 70 36 80 50 88 91 c 2
 185 578 l 1
 186 582 l 2
 188 592 171 617 153 629 c 0
 139 638 119 645 103 646 c 2
 64 649 l 1
 67 681 l 1
 112 679 156 678 174 678 c 0
 192 678 192 678 282 681 c 1
 596 142 l 1
 670 542 l 1
 673 561 676 590 676 612 c 0
 676 633 661 644 630 646 c 2
 588 649 l 1
 593 681 l 1
 691 678 691 678 711 678 c 0
 731 678 731 678 829 681 c 1
 823 649 l 1
 786 646 l 2
 767 644 760 642 752 636 c 0
 744 629 739 612 722 528 c 2
 636 100 l 1
 629 67 625 37 620 -3 c 1x80
357 747 m 1xc0
 317 747 l 1xc0
 335 826 375 866 435 866 c 0xa0
 461 866 478 862 511 847 c 0
 544 832 569 824 586 824 c 0xc0
 608 824 621 835 635 866 c 1
 676 866 l 1xa0
 655 785 618 747 561 747 c 0xc0
 538 747 525 751 479 769 c 0
 437 786 420 791 403 791 c 0xa0
 383 791 372 781 357 747 c 1xc0
EndSplineSet
Ligature: 0 0 'liga' N tildecomb
EndChar
StartChar: Odieresis
Encoding: 286 214 180
Width: 833
Flags: W
HStem: -17 43<365 396> 652 43<461 495> 749 131<394 407 607 620>
VStem: 76 138<238 272> 340 123<806 820> 553 123<806 820> 656 138<412 437>
Fore
493 695 m 0xfa
 588 695 667 666 721 612 c 0
 770 563 794 499 794 414 c 0
 794 170 608 -17 365 -17 c 0
 182 -17 76 87 76 268 c 0
 76 518 249 695 493 695 c 0xfa
480 652 m 0
 394 652 332 616 285 537 c 0
 243 467 214 346 214 239 c 0
 214 99 274 26 388 26 c 0
 473 26 541 69 589 153 c 0
 631 226 656 332 656 435 c 0
 656 579 596 652 480 652 c 0
620 880 m 0
 653 880 676 855 676 820 c 0
 676 779 647 749 607 749 c 0
 574 749 553 771 553 806 c 0xfc
 553 847 583 880 620 880 c 0
407 880 m 0
 440 880 463 855 463 820 c 0
 463 779 434 749 394 749 c 0
 361 749 340 771 340 806 c 0
 340 847 370 880 407 880 c 0
EndSplineSet
KernsSLIF: 89 -12 0 0 88 -45 0 0 87 -29 0 0 86 -38 0 0 84 4 0 0 65 -39 0 0
Ligature: 0 0 'liga' O uni0308
EndChar
StartChar: Oacute
Encoding: 287 211 181
Width: 833
Flags: W
HStem: -17 43<365 390> 652 43<475 495>
VStem: 76 138<238 272> 656 138<412 437>
Fore
493 695 m 0
 588 695 667 666 721 612 c 0
 770 563 794 499 794 414 c 0
 794 170 608 -17 365 -17 c 0
 182 -17 76 87 76 268 c 0
 76 518 249 695 493 695 c 0
480 652 m 0
 394 652 332 616 285 537 c 0
 243 467 214 346 214 239 c 0
 214 99 274 26 388 26 c 0
 473 26 541 69 589 153 c 0
 631 226 656 332 656 435 c 0
 656 579 596 652 480 652 c 0
430 730 m 1
 571 881 l 2
 591 902 606 911 622 911 c 0
 648 911 669 891 669 866 c 0
 669 846 661 835 633 819 c 2
 479 730 l 1
 430 730 l 1
EndSplineSet
KernsSLIF: 89 -12 0 0 87 -29 0 0 86 -38 0 0 84 4 0 0 65 -39 0 0
Ligature: 0 0 'liga' O acutecomb
EndChar
StartChar: Ograve
Encoding: 288 210 182
Width: 833
Flags: W
HStem: -17 43<365 390> 652 43<473 495>
VStem: 76 138<238 272> 656 138<412 437>
Fore
493 695 m 0
 588 695 667 666 721 612 c 0
 770 563 794 499 794 414 c 0
 794 170 608 -17 365 -17 c 0
 182 -17 76 87 76 268 c 0
 76 518 249 695 493 695 c 0
480 652 m 0
 394 652 332 616 285 537 c 0
 243 467 214 346 214 239 c 0
 214 99 274 26 388 26 c 0
 473 26 541 69 589 153 c 0
 631 226 656 332 656 435 c 0
 656 579 596 652 480 652 c 0
534 730 m 1
 411 812 l 2
 376 835 367 847 367 868 c 0
 367 890 390 911 414 911 c 0
 433 911 452 898 475 867 c 2
 579 730 l 1
 534 730 l 1
EndSplineSet
KernsSLIF: 89 -12 0 0 86 -38 0 0 84 4 0 0
Ligature: 0 0 'liga' O gravecomb
EndChar
StartChar: Ocircumflex
Encoding: 289 212 183
Width: 833
Flags: W
HStem: -17 43<365 396> 652 43<475 501>
VStem: 76 138<238 272> 656 138<412 437>
Fore
493 695 m 0
 588 695 667 666 721 612 c 0
 770 563 794 499 794 414 c 0
 794 170 608 -17 365 -17 c 0
 182 -17 76 87 76 268 c 0
 76 518 249 695 493 695 c 0
480 652 m 0
 394 652 332 616 285 537 c 0
 243 467 214 346 214 239 c 0
 214 99 274 26 388 26 c 0
 473 26 541 69 589 153 c 0
 631 226 656 332 656 435 c 0
 656 579 596 652 480 652 c 0
580 896 m 1
 666 722 l 1
 615 722 l 1
 527 817 l 1
 396 722 l 1
 339 722 l 1
 499 896 l 1
 580 896 l 1
EndSplineSet
KernsSLIF: 89 -12 0 0 86 -38 0 0 84 4 0 0
Ligature: 0 0 'liga' O uni0302
EndChar
StartChar: Otilde
Encoding: 290 213 184
Width: 833
Flags: W
HStem: -17 43<365 390> 652 43<475 497> 747 77<577 602> 791 75<419 451>
VStem: 76 138<238 272> 656 138<412 437>
Fore
493 695 m 0xcc
 588 695 667 666 721 612 c 0
 770 563 794 499 794 414 c 0
 794 170 608 -17 365 -17 c 0
 182 -17 76 87 76 268 c 0
 76 518 249 695 493 695 c 0xcc
480 652 m 0
 394 652 332 616 285 537 c 0
 243 467 214 346 214 239 c 0
 214 99 274 26 388 26 c 0
 473 26 541 69 589 153 c 0
 631 226 656 332 656 435 c 0
 656 579 596 652 480 652 c 0
373 747 m 1xec
 333 747 l 1xec
 351 826 391 866 451 866 c 0xdc
 477 866 494 862 527 847 c 0
 560 832 585 824 602 824 c 0xec
 624 824 637 835 651 866 c 1
 692 866 l 1xdc
 671 785 634 747 577 747 c 0xec
 554 747 541 751 495 769 c 0
 453 786 436 791 419 791 c 0xdc
 399 791 388 781 373 747 c 1xec
EndSplineSet
KernsSLIF: 89 -12 0 0 86 -38 0 0 84 4 0 0
Ligature: 0 0 'liga' O tildecomb
EndChar
StartChar: Ohungarumlaut
Encoding: 291 336 185
Width: 833
Flags: W
HStem: -17 43<365 390> 652 43<475 495>
VStem: 76 138<238 272> 656 138<412 437>
Fore
493 695 m 0
 588 695 667 666 721 612 c 0
 770 563 794 499 794 414 c 0
 794 170 608 -17 365 -17 c 0
 182 -17 76 87 76 268 c 0
 76 518 249 695 493 695 c 0
480 652 m 0
 394 652 332 616 285 537 c 0
 243 467 214 346 214 239 c 0
 214 99 274 26 388 26 c 0
 473 26 541 69 589 153 c 0
 631 226 656 332 656 435 c 0
 656 579 596 652 480 652 c 0
322 730 m 1
 459 877 l 2
 480 900 500 911 518 911 c 0
 540 911 562 887 562 864 c 0
 562 847 547 830 513 811 c 2
 371 730 l 1
 322 730 l 1
519 730 m 1
 656 877 l 2
 677 900 697 911 715 911 c 0
 737 911 759 887 759 864 c 0
 759 847 744 830 710 811 c 2
 568 730 l 1
 519 730 l 1
EndSplineSet
Ligature: 0 0 'liga' O uni030B
EndChar
StartChar: Racute
Encoding: 292 340 186
Width: 722
Flags: W
HStem: 0 21G<152.5 168.5> 638 40<277 390>
VStem: 527 132<524 542>
DStem: 192 594 328 635 111 132 235 100 370 258 454 353 515 -3 610 86
Fore
8 32 m 1
 57 35 l 2
 90 37 95 47 111 132 c 1
 192 594 l 1
 193 601 194 609 194 614 c 0
 194 637 184 644 148 646 c 2
 102 649 l 1
 107 681 l 1
 240 678 240 678 277 678 c 2
 377 679 l 2
 403 680 449 681 460 681 c 0
 592 681 659 633 659 538 c 0
 659 480 632 430 582 398 c 0
 548 376 518 365 454 353 c 1
 610 86 l 2
 624 61 649 35 660 34 c 2
 697 27 l 1
 697 -3 l 1
 660 -1 650 -1 599 0 c 1
 515 -3 l 1
 370 258 l 2
 363 270 347 296 322 334 c 0
 317 340 313 347 309 353 c 1
 314 370 l 1
 369 370 l 2
 461 370 527 437 527 529 c 0
 527 606 487 638 390 638 c 0
 371 638 354 637 328 635 c 1
 235 100 l 2
 233 89 232 77 232 66 c 0
 232 45 242 36 269 35 c 2
 328 32 l 1
 324 -3 l 1
 176 0 176 0 161 0 c 0
 144 0 144 0 4 -3 c 1
 8 32 l 1
348 730 m 1
 489 881 l 2
 509 902 524 911 540 911 c 0
 566 911 587 891 587 866 c 0
 587 846 579 835 551 819 c 2
 397 730 l 1
 348 730 l 1
EndSplineSet
Ligature: 0 0 'liga' R acutecomb
EndChar
StartChar: Rcaron
Encoding: 293 344 187
Width: 722
Flags: W
HStem: 0 21G<152.5 168.5> 638 40<277 390>
VStem: 527 132<524 542>
DStem: 192 594 328 635 111 132 235 100 370 258 454 353 515 -3 610 86
Fore
8 32 m 1
 57 35 l 2
 90 37 95 47 111 132 c 1
 192 594 l 1
 193 601 194 609 194 614 c 0
 194 637 184 644 148 646 c 2
 102 649 l 1
 107 681 l 1
 240 678 240 678 277 678 c 2
 377 679 l 2
 403 680 449 681 460 681 c 0
 592 681 659 633 659 538 c 0
 659 480 632 430 582 398 c 0
 548 376 518 365 454 353 c 1
 610 86 l 2
 624 61 649 35 660 34 c 2
 697 27 l 1
 697 -3 l 1
 660 -1 650 -1 599 0 c 1
 515 -3 l 1
 370 258 l 2
 363 270 347 296 322 334 c 0
 317 340 313 347 309 353 c 1
 314 370 l 1
 369 370 l 2
 461 370 527 437 527 529 c 0
 527 606 487 638 390 638 c 0
 371 638 354 637 328 635 c 1
 235 100 l 2
 233 89 232 77 232 66 c 0
 232 45 242 36 269 35 c 2
 328 32 l 1
 324 -3 l 1
 176 0 176 0 161 0 c 0
 144 0 144 0 4 -3 c 1
 8 32 l 1
396 722 m 1
 308 896 l 1
 358 896 l 1
 449 799 l 1
 584 896 l 1
 640 896 l 1
 478 722 l 1
 396 722 l 1
EndSplineSet
Ligature: 0 0 'liga' R uni030C
EndChar
StartChar: Sacute
Encoding: 294 346 188
Width: 556
Flags: W
HStem: -17 56<210 250> 639 56<331 370>
VStem: 104 92<450 526> 389 106<162 239> 465 30<504 533.654>
Fore
465 504 m 1xe8
 465 589 l 1xe8
 424 624 383 639 331 639 c 0
 252 639 196 592 196 526 c 0
 196 467 227 437 324 401 c 0
 407 370 428 359 457 333 c 0
 480 312 495 274 495 239 c 0
 495 163 453 85 384 35 c 0
 336 0 280 -17 210 -17 c 0
 141 -17 95 -6 50 23 c 1
 71 189 l 1
 98 189 l 1
 98 113 l 1
 124 64 175 39 250 39 c 0
 340 39 389 83 389 162 c 0xf0
 389 192 380 218 364 232 c 0
 345 250 334 255 266 280 c 0
 200 304 170 319 144 344 c 1
 118 367 104 406 104 450 c 0
 104 583 226 695 370 695 c 0
 424 695 474 680 517 651 c 1
 503 600 495 552 495 504 c 1
 465 504 l 1xe8
305 730 m 1
 446 881 l 2
 466 902 481 911 497 911 c 0
 523 911 544 891 544 866 c 0
 544 846 536 835 508 819 c 2
 354 730 l 1
 305 730 l 1
EndSplineSet
Ligature: 0 0 'liga' S acutecomb
EndChar
StartChar: Scaron
Encoding: 295 352 189
Width: 556
Flags: W
HStem: -17 56<210 250> 639 56<331 370>
VStem: 104 92<450 526> 389 106<162 239> 465 30<504 533.654>
Fore
465 504 m 1xe8
 465 589 l 1xe8
 424 624 383 639 331 639 c 0
 252 639 196 592 196 526 c 0
 196 467 227 437 324 401 c 0
 407 370 428 359 457 333 c 0
 480 312 495 274 495 239 c 0
 495 163 453 85 384 35 c 0
 336 0 280 -17 210 -17 c 0
 141 -17 95 -6 50 23 c 1
 71 189 l 1
 98 189 l 1
 98 113 l 1
 124 64 175 39 250 39 c 0
 340 39 389 83 389 162 c 0xf0
 389 192 380 218 364 232 c 0
 345 250 334 255 266 280 c 0
 200 304 170 319 144 344 c 1
 118 367 104 406 104 450 c 0
 104 583 226 695 370 695 c 0
 424 695 474 680 517 651 c 1
 503 600 495 552 495 504 c 1
 465 504 l 1xe8
318 722 m 1
 230 896 l 1
 280 896 l 1
 371 799 l 1
 506 896 l 1
 562 896 l 1
 400 722 l 1
 318 722 l 1
EndSplineSet
Ligature: 0 0 'liga' S uni030C
EndChar
StartChar: Scedilla
Encoding: 296 350 190
Width: 556
Flags: W
HStem: -218 41<177 203> -100 41<186 236> 639 56<331 370>
VStem: 104 92<450 526> 234 92<-139 -129> 389 106<162 239> 465 30<504 533.654>
DStem: 197 -17 242 -16 144 -92 210 -62
Fore
465 504 m 1xfa
 465 589 l 1xfa
 424 624 383 639 331 639 c 0
 252 639 196 592 196 526 c 0
 196 467 227 437 324 401 c 0
 407 370 428 359 457 333 c 0
 480 312 495 274 495 239 c 0
 495 153 441 66 360 19 c 0
 323 -2 290 -12 242 -16 c 1
 210 -62 l 1
 221 -60 227 -59 236 -59 c 0
 289 -59 326 -89 326 -131 c 0
 326 -182 275 -218 203 -218 c 0
 164 -218 135 -212 90 -193 c 1
 112 -160 l 1
 141 -173 157 -177 179 -177 c 0
 213 -177 234 -162 234 -137 c 0
 234 -113 217 -100 186 -100 c 0
 176 -100 169 -101 157 -104 c 1
 144 -92 l 1
 197 -17 l 1
 133 -15 87 -2 50 23 c 1
 71 189 l 1
 98 189 l 1
 98 113 l 1
 124 64 175 39 250 39 c 0
 340 39 389 83 389 162 c 0xfc
 389 192 380 218 364 232 c 0
 345 250 334 255 266 280 c 0
 200 304 170 319 144 344 c 1
 118 367 104 406 104 450 c 0
 104 583 226 695 370 695 c 0
 424 695 474 680 517 651 c 1
 503 600 495 552 495 504 c 1
 465 504 l 1xfa
EndSplineSet
Ligature: 0 0 'liga' S uni0327
EndChar
StartChar: Tcaron
Encoding: 297 356 191
Width: 611
Flags: W
HStem: 0 21G<249 268.5> 508 170<377 644> 630 48<436 525.439>
DStem: 81 676 108 566 56 508 94 508 304 630 436 630 219 132 341 100
Fore
436 630 m 1xa0
 341 100 l 2
 338 84 337 74 337 65 c 0
 337 44 347 36 373 35 c 2
 432 32 l 1
 427 -3 l 1
 278 0 278 0 259 0 c 0
 239 0 239 0 103 -3 c 1
 108 32 l 1
 161 35 l 2
 193 36 203 53 219 132 c 1
 304 630 l 1
 180 630 l 2xa0
 160 630 136 620 123 606 c 1
 118 599 113 587 108 566 c 2
 94 508 l 1
 56 508 l 1
 81 676 l 1
 87 681 l 1
 343 678 343 678 377 678 c 0
 411 678 411 678 667 681 c 1
 674 676 l 1
 644 508 l 1
 606 508 l 1xc0
 610 592 l 1
 611 618 594 630 553 630 c 2
 436 630 l 1xa0
340 722 m 1
 252 896 l 1
 302 896 l 1
 393 799 l 1
 528 896 l 1
 584 896 l 1
 422 722 l 1
 340 722 l 1
EndSplineSet
Ligature: 0 0 'liga' T uni030C
EndChar
StartChar: Udieresis
Encoding: 298 220 192
Width: 778
Flags: W
HStem: -17 80<271 327> 749 131<367 380 580 593>
VStem: 94 130<156 182> 313 123<806 820> 526 123<806 820>
DStem: 160 541 313 674 102 234 227 214 586 541 725 599 521 182 635 100
Fore
497 -3 m 1
 492 5 l 1
 501 45 506 68 519 133 c 1
 461 72 438 50 403 26 c 0
 364 -2 317 -17 271 -17 c 0
 209 -17 155 8 124 51 c 0
 104 77 94 112 94 156 c 0
 94 180 97 206 102 234 c 1
 160 541 l 1
 161 548 l 1
 162 550 162 552 162 555 c 0
 168 582 171 605 171 617 c 0
 171 633 159 642 134 643 c 2
 83 646 l 1
 88 681 l 1
 142 680 l 2
 182 679 209 678 220 678 c 0
 246 678 260 678 307 681 c 1
 313 674 l 1
 227 214 l 2
 225 203 224 192 224 178 c 0
 224 150 229 124 238 110 c 0
 255 81 290 63 327 63 c 0
 356 63 385 72 421 93 c 0
 469 121 518 164 521 182 c 1
 586 541 l 1
 586 543 587 546 588 550 c 0
 589 561 591 568 591 571 c 0
 595 590 597 606 597 617 c 0
 597 633 585 642 560 643 c 2
 509 646 l 1
 514 681 l 1
 644 678 644 678 666 678 c 0
 688 678 688 678 825 681 c 1
 820 646 l 1
 774 643 l 2
 739 641 732 635 725 599 c 1
 635 100 l 1
 632 85 631 74 631 65 c 0
 631 44 641 36 667 35 c 2
 726 32 l 1
 721 -3 l 1
 619 0 619 0 603 0 c 0
 585 0 585 0 497 -3 c 1
593 880 m 0
 626 880 649 855 649 820 c 0
 649 779 620 749 580 749 c 0
 547 749 526 771 526 806 c 0
 526 847 556 880 593 880 c 0
380 880 m 0
 413 880 436 855 436 820 c 0
 436 779 407 749 367 749 c 0
 334 749 313 771 313 806 c 0
 313 847 343 880 380 880 c 0
EndSplineSet
KernsSLIF: 114 4 0 0 46 10 0 0 112 4 0 0 110 11 0 0 109 5 0 0 44 11 0 0 98 51 0 0 65 47 0 0
Ligature: 0 0 'liga' U uni0308
EndChar
StartChar: Uacute
Encoding: 299 218 193
Width: 778
Flags: W
HStem: -17 80<271 327>
VStem: 94 130<156 182>
DStem: 160 541 313 674 102 234 227 214 586 541 725 599 521 182 635 100
Fore
497 -3 m 1
 492 5 l 1
 501 45 506 68 519 133 c 1
 461 72 438 50 403 26 c 0
 364 -2 317 -17 271 -17 c 0
 209 -17 155 8 124 51 c 0
 104 77 94 112 94 156 c 0
 94 180 97 206 102 234 c 1
 160 541 l 1
 161 548 l 1
 162 550 162 552 162 555 c 0
 168 582 171 605 171 617 c 0
 171 633 159 642 134 643 c 2
 83 646 l 1
 88 681 l 1
 142 680 l 2
 182 679 209 678 220 678 c 0
 246 678 260 678 307 681 c 1
 313 674 l 1
 227 214 l 2
 225 203 224 192 224 178 c 0
 224 150 229 124 238 110 c 0
 255 81 290 63 327 63 c 0
 356 63 385 72 421 93 c 0
 469 121 518 164 521 182 c 1
 586 541 l 1
 586 543 587 546 588 550 c 0
 589 561 591 568 591 571 c 0
 595 590 597 606 597 617 c 0
 597 633 585 642 560 643 c 2
 509 646 l 1
 514 681 l 1
 644 678 644 678 666 678 c 0
 688 678 688 678 825 681 c 1
 820 646 l 1
 774 643 l 2
 739 641 732 635 725 599 c 1
 635 100 l 1
 632 85 631 74 631 65 c 0
 631 44 641 36 667 35 c 2
 726 32 l 1
 721 -3 l 1
 619 0 619 0 603 0 c 0
 585 0 585 0 497 -3 c 1
408 730 m 1
 549 881 l 2
 569 902 584 911 600 911 c 0
 626 911 647 891 647 866 c 0
 647 846 639 835 611 819 c 2
 457 730 l 1
 408 730 l 1
EndSplineSet
KernsSLIF: 114 4 0 0 46 10 0 0 112 4 0 0 110 11 0 0 109 5 0 0 44 11 0 0 65 47 0 0
Ligature: 0 0 'liga' U acutecomb
EndChar
StartChar: Ugrave
Encoding: 300 217 194
Width: 778
Flags: W
HStem: -17 80<271 327>
VStem: 94 130<156 182>
DStem: 160 541 313 674 102 234 227 214 586 541 725 599 521 182 635 100
Fore
497 -3 m 1
 492 5 l 1
 501 45 506 68 519 133 c 1
 461 72 438 50 403 26 c 0
 364 -2 317 -17 271 -17 c 0
 209 -17 155 8 124 51 c 0
 104 77 94 112 94 156 c 0
 94 180 97 206 102 234 c 1
 160 541 l 1
 161 548 l 1
 162 550 162 552 162 555 c 0
 168 582 171 605 171 617 c 0
 171 633 159 642 134 643 c 2
 83 646 l 1
 88 681 l 1
 142 680 l 2
 182 679 209 678 220 678 c 0
 246 678 260 678 307 681 c 1
 313 674 l 1
 227 214 l 2
 225 203 224 192 224 178 c 0
 224 150 229 124 238 110 c 0
 255 81 290 63 327 63 c 0
 356 63 385 72 421 93 c 0
 469 121 518 164 521 182 c 1
 586 541 l 1
 586 543 587 546 588 550 c 0
 589 561 591 568 591 571 c 0
 595 590 597 606 597 617 c 0
 597 633 585 642 560 643 c 2
 509 646 l 1
 514 681 l 1
 644 678 644 678 666 678 c 0
 688 678 688 678 825 681 c 1
 820 646 l 1
 774 643 l 2
 739 641 732 635 725 599 c 1
 635 100 l 1
 632 85 631 74 631 65 c 0
 631 44 641 36 667 35 c 2
 726 32 l 1
 721 -3 l 1
 619 0 619 0 603 0 c 0
 585 0 585 0 497 -3 c 1
500 730 m 1
 377 812 l 2
 342 835 333 847 333 868 c 0
 333 890 356 911 380 911 c 0
 399 911 418 898 441 867 c 2
 545 730 l 1
 500 730 l 1
EndSplineSet
KernsSLIF: 65 47 0 0
Ligature: 0 0 'liga' U gravecomb
EndChar
StartChar: Ucircumflex
Encoding: 301 219 195
Width: 778
Flags: W
HStem: -17 80<271 327>
VStem: 94 130<156 182>
DStem: 160 541 313 674 102 234 227 214 586 541 725 599 521 182 635 100
Fore
497 -3 m 1
 492 5 l 1
 501 45 506 68 519 133 c 1
 461 72 438 50 403 26 c 0
 364 -2 317 -17 271 -17 c 0
 209 -17 155 8 124 51 c 0
 104 77 94 112 94 156 c 0
 94 180 97 206 102 234 c 1
 160 541 l 1
 161 548 l 1
 162 550 162 552 162 555 c 0
 168 582 171 605 171 617 c 0
 171 633 159 642 134 643 c 2
 83 646 l 1
 88 681 l 1
 142 680 l 2
 182 679 209 678 220 678 c 0
 246 678 260 678 307 681 c 1
 313 674 l 1
 227 214 l 2
 225 203 224 192 224 178 c 0
 224 150 229 124 238 110 c 0
 255 81 290 63 327 63 c 0
 356 63 385 72 421 93 c 0
 469 121 518 164 521 182 c 1
 586 541 l 1
 586 543 587 546 588 550 c 0
 589 561 591 568 591 571 c 0
 595 590 597 606 597 617 c 0
 597 633 585 642 560 643 c 2
 509 646 l 1
 514 681 l 1
 644 678 644 678 666 678 c 0
 688 678 688 678 825 681 c 1
 820 646 l 1
 774 643 l 2
 739 641 732 635 725 599 c 1
 635 100 l 1
 632 85 631 74 631 65 c 0
 631 44 641 36 667 35 c 2
 726 32 l 1
 721 -3 l 1
 619 0 619 0 603 0 c 0
 585 0 585 0 497 -3 c 1
547 896 m 1
 633 722 l 1
 582 722 l 1
 494 817 l 1
 363 722 l 1
 306 722 l 1
 466 896 l 1
 547 896 l 1
EndSplineSet
KernsSLIF: 65 47 0 0
Ligature: 0 0 'liga' U uni0302
EndChar
StartChar: Uring
Encoding: 302 366 196
Width: 778
Flags: W
HStem: -17 80<271 327> 726 50<488 499> 876 50<482 499>
VStem: 94 130<156 182> 388 50<815.788 832> 538 50<815.788 832>
DStem: 160 541 313 674 102 234 227 214 586 541 725 599 521 182 635 100
Fore
497 -3 m 1
 492 5 l 1
 501 45 506 68 519 133 c 1
 461 72 438 50 403 26 c 0
 364 -2 317 -17 271 -17 c 0
 209 -17 155 8 124 51 c 0
 104 77 94 112 94 156 c 0
 94 180 97 206 102 234 c 1
 160 541 l 1
 161 548 l 1
 162 550 162 552 162 555 c 0
 168 582 171 605 171 617 c 0
 171 633 159 642 134 643 c 2
 83 646 l 1
 88 681 l 1
 142 680 l 2
 182 679 209 678 220 678 c 0
 246 678 260 678 307 681 c 1
 313 674 l 1
 227 214 l 2
 225 203 224 192 224 178 c 0
 224 150 229 124 238 110 c 0
 255 81 290 63 327 63 c 0
 356 63 385 72 421 93 c 0
 469 121 518 164 521 182 c 1
 586 541 l 1
 586 543 587 546 588 550 c 0
 589 561 591 568 591 571 c 0
 595 590 597 606 597 617 c 0
 597 633 585 642 560 643 c 2
 509 646 l 1
 514 681 l 1
 644 678 644 678 666 678 c 0
 688 678 688 678 825 681 c 1
 820 646 l 1
 774 643 l 2
 739 641 732 635 725 599 c 1
 635 100 l 1
 632 85 631 74 631 65 c 0
 631 44 641 36 667 35 c 2
 726 32 l 1
 721 -3 l 1
 619 0 619 0 603 0 c 0
 585 0 585 0 497 -3 c 1
490 926 m 0
 543 926 588 880 588 826 c 0
 588 771 543 726 488 726 c 0
 433 726 388 771 388 827 c 0
 388 882 433 926 490 926 c 0
489 876 m 0
 460 876 438 854 438 826 c 0
 438 798 460 776 488 776 c 0
 516 776 538 798 538 826 c 0
 538 853 516 876 489 876 c 0
EndSplineSet
Ligature: 0 0 'liga' U uni030A
EndChar
StartChar: Uhungarumlaut
Encoding: 303 368 197
Width: 778
Flags: W
HStem: -17 80<271 327>
VStem: 94 130<156 182>
DStem: 160 541 313 674 102 234 227 214 586 541 725 599 521 182 635 100
Fore
497 -3 m 1
 492 5 l 1
 501 45 506 68 519 133 c 1
 461 72 438 50 403 26 c 0
 364 -2 317 -17 271 -17 c 0
 209 -17 155 8 124 51 c 0
 104 77 94 112 94 156 c 0
 94 180 97 206 102 234 c 1
 160 541 l 1
 161 548 l 1
 162 550 162 552 162 555 c 0
 168 582 171 605 171 617 c 0
 171 633 159 642 134 643 c 2
 83 646 l 1
 88 681 l 1
 142 680 l 2
 182 679 209 678 220 678 c 0
 246 678 260 678 307 681 c 1
 313 674 l 1
 227 214 l 2
 225 203 224 192 224 178 c 0
 224 150 229 124 238 110 c 0
 255 81 290 63 327 63 c 0
 356 63 385 72 421 93 c 0
 469 121 518 164 521 182 c 1
 586 541 l 1
 586 543 587 546 588 550 c 0
 589 561 591 568 591 571 c 0
 595 590 597 606 597 617 c 0
 597 633 585 642 560 643 c 2
 509 646 l 1
 514 681 l 1
 644 678 644 678 666 678 c 0
 688 678 688 678 825 681 c 1
 820 646 l 1
 774 643 l 2
 739 641 732 635 725 599 c 1
 635 100 l 1
 632 85 631 74 631 65 c 0
 631 44 641 36 667 35 c 2
 726 32 l 1
 721 -3 l 1
 619 0 619 0 603 0 c 0
 585 0 585 0 497 -3 c 1
275 730 m 1
 412 877 l 2
 433 900 453 911 471 911 c 0
 493 911 515 887 515 864 c 0
 515 847 500 830 466 811 c 2
 324 730 l 1
 275 730 l 1
472 730 m 1
 609 877 l 2
 630 900 650 911 668 911 c 0
 690 911 712 887 712 864 c 0
 712 847 697 830 663 811 c 2
 521 730 l 1
 472 730 l 1
EndSplineSet
Ligature: 0 0 'liga' U uni030B
EndChar
StartChar: Yacute
Encoding: 304 221 198
Width: 611
Flags: W
HStem: 0 21G<287.5 303.5> 597 98<102 172>
Fore
675 681 m 1
 669 593 l 1
 635 589 588 558 553 517 c 1
 486 443 401 283 392 217 c 1
 391 211 l 1
 390 206 l 1
 370 100 l 2
 368 89 367 78 367 67 c 0
 367 44 376 36 404 35 c 2
 463 32 l 1
 459 -3 l 1
 311 0 311 0 296 0 c 0
 279 0 279 0 139 -3 c 1
 143 32 l 1
 192 35 l 1
 226 39 226 39 246 132 c 2
 262 205 l 1
 264 213 266 235 266 245 c 0
 266 263 257 305 243 351 c 2
 211 456 l 2
 185 541 142 597 102 597 c 0
 85 597 67 593 57 587 c 1
 54 620 l 1
 79 637 91 646 144 690 c 1
 159 694 164 695 172 695 c 0
 197 695 225 684 245 666 c 0
 281 634 315 557 334 466 c 1
 370 297 l 1
 460 518 593 686 675 681 c 1
366 730 m 1
 507 881 l 2
 527 902 542 911 558 911 c 0
 584 911 605 891 605 866 c 0
 605 846 597 835 569 819 c 2
 415 730 l 1
 366 730 l 1
EndSplineSet
Ligature: 0 0 'liga' Y acutecomb
EndChar
StartChar: Zacute
Encoding: 305 377 199
Width: 667
Flags: W
HStem: -3 52<188 418> 629 50<257 496>
DStem: 496 629 671 646 1 24 188 49
Fore
1 -3 m 1
 1 24 l 1
 496 629 l 1
 332 629 l 2
 263 629 186 622 171 615 c 0
 164 612 158 603 153 586 c 2
 129 510 l 1
 94 510 l 1
 106 563 112 601 120 670 c 1
 127 681 l 1
 257 679 l 2
 315 678 361 678 397 678 c 0
 424 678 454 678 485 679 c 2
 676 681 l 1
 671 646 l 1
 188 49 l 1
 368 49 l 2
 442 49 497 53 553 64 c 1
 574 108 585 136 598 180 c 1
 634 180 l 1
 595 -3 l 1
 335 0 335 0 289 0 c 2
 70 -3 l 1
 1 -3 l 1
320 730 m 1
 461 881 l 2
 481 902 496 911 512 911 c 0
 538 911 559 891 559 866 c 0
 559 846 551 835 523 819 c 2
 369 730 l 1
 320 730 l 1
EndSplineSet
Ligature: 0 0 'liga' Z acutecomb
EndChar
StartChar: Zcaron
Encoding: 306 381 200
Width: 667
Flags: W
HStem: -3 52<188 418> 629 50<257 496>
DStem: 496 629 671 646 1 24 188 49
Fore
1 -3 m 1
 1 24 l 1
 496 629 l 1
 332 629 l 2
 263 629 186 622 171 615 c 0
 164 612 158 603 153 586 c 2
 129 510 l 1
 94 510 l 1
 106 563 112 601 120 670 c 1
 127 681 l 1
 257 679 l 2
 315 678 361 678 397 678 c 0
 424 678 454 678 485 679 c 2
 676 681 l 1
 671 646 l 1
 188 49 l 1
 368 49 l 2
 442 49 497 53 553 64 c 1
 574 108 585 136 598 180 c 1
 634 180 l 1
 595 -3 l 1
 335 0 335 0 289 0 c 2
 70 -3 l 1
 1 -3 l 1
369 722 m 1
 281 896 l 1
 331 896 l 1
 422 799 l 1
 557 896 l 1
 613 896 l 1
 451 722 l 1
 369 722 l 1
EndSplineSet
Ligature: 0 0 'liga' Z uni030C
EndChar
StartChar: Zdotaccent
Encoding: 307 379 201
Width: 667
Flags: W
HStem: -3 52<188 418> 629 50<257 496> 749 131<423 436>
VStem: 369 123<806 820>
DStem: 496 629 671 646 1 24 188 49
Fore
1 -3 m 1
 1 24 l 1
 496 629 l 1
 332 629 l 2
 263 629 186 622 171 615 c 0
 164 612 158 603 153 586 c 2
 129 510 l 1
 94 510 l 1
 106 563 112 601 120 670 c 1
 127 681 l 1
 257 679 l 2
 315 678 361 678 397 678 c 0
 424 678 454 678 485 679 c 2
 676 681 l 1
 671 646 l 1
 188 49 l 1
 368 49 l 2
 442 49 497 53 553 64 c 1
 574 108 585 136 598 180 c 1
 634 180 l 1
 595 -3 l 1
 335 0 335 0 289 0 c 2
 70 -3 l 1
 1 -3 l 1
436 880 m 0
 469 880 492 855 492 820 c 0
 492 779 463 749 423 749 c 0
 390 749 369 771 369 806 c 0
 369 847 399 880 436 880 c 0
EndSplineSet
Ligature: 0 0 'liga' Z uni0307
EndChar
StartChar: Amacron
Encoding: 308 256 202
Width: 722
Flags: W
HStem: 0 21G<524 551.5> 267 40<245 366> 663 20G<414 510> 750 70<317 627>
DStem: 400 573 518 612 438 307 594 90 414 683 400 573 51 70 245 307 414 683 222 264 51 70 136 112
Fore
414 683 m 1
 510 683 l 1
 512 663 514 647 515 640 c 0
 517 618 518 615 518 612 c 1
 594 90 l 1
 600 54 616 38 648 35 c 2
 685 32 l 1
 685 -3 l 1
 600 -1 564 0 539 0 c 0
 509 0 509 0 384 -3 c 1
 384 32 l 1
 426 35 l 2
 454 37 469 48 468 66 c 1
 443 264 l 1
 406 265 l 2
 372 266 354 267 343 267 c 2
 333 267 l 1
 222 264 l 1
 136 112 l 2
 122 87 117 72 117 55 c 0
 117 43 131 37 160 35 c 2
 204 32 l 1
 199 -3 l 1
 178 -2 150 -2 143 -1 c 0
 103 0 93 0 85 0 c 2
 -35 -3 l 1
 -30 32 l 1
 4 35 l 2
 22 36 37 48 51 70 c 1
 414 683 l 1
400 573 m 1
 245 307 l 1
 438 307 l 1
 400 573 l 1
643 820 m 1
 627 750 l 1
 301 750 l 1
 318 820 l 1
 643 820 l 1
EndSplineSet
Ligature: 0 0 'liga' A uni0304
EndChar
StartChar: Tcommaaccent
Encoding: 309 354 203
Width: 611
Flags: W
HStem: -20 20G<249 268.5> 508 170<377 644> 630 48<436 525.439>
DStem: 81 676 108 566 56 508 94 508 304 630 436 630 219 132 341 100
Fore
436 630 m 1xa0
 341 100 l 2
 338 84 337 74 337 65 c 0
 337 44 347 36 373 35 c 2
 432 32 l 1
 427 -3 l 1
 278 0 278 0 259 0 c 0
 239 0 239 0 103 -3 c 1
 108 32 l 1
 161 35 l 2
 193 36 203 53 219 132 c 1
 304 630 l 1
 180 630 l 2xa0
 160 630 136 620 123 606 c 1
 118 599 113 587 108 566 c 2
 94 508 l 1
 56 508 l 1
 81 676 l 1
 87 681 l 1
 343 678 343 678 377 678 c 0
 411 678 411 678 667 681 c 1
 674 676 l 1
 644 508 l 1
 606 508 l 1xc0
 610 592 l 1
 611 618 594 630 553 630 c 2
 436 630 l 1xa0
309 -40 m 1
 321 -53 l 1
 268 -156 229 -216 177 -275 c 1
 132 -300 l 1
 118 -290 l 1
 160 -218 186 -149 200 -68 c 1
 225 -66 226 -65 276 -50 c 2
 309 -40 l 1
EndSplineSet
Ligature: 0 0 'liga' T uni0327
EndChar
StartChar: Ydieresis
Encoding: 310 376 204
Width: 611
Flags: W
HStem: 0 21G<287.5 303.5> 597 98<102 172> 749 131<322 335 535 548>
VStem: 268 123<806 820> 481 123<806 820>
Fore
675 681 m 1
 669 593 l 1
 635 589 588 558 553 517 c 1
 486 443 401 283 392 217 c 1
 391 211 l 1
 390 206 l 1
 370 100 l 2
 368 89 367 78 367 67 c 0
 367 44 376 36 404 35 c 2
 463 32 l 1
 459 -3 l 1
 311 0 311 0 296 0 c 0
 279 0 279 0 139 -3 c 1
 143 32 l 1
 192 35 l 1
 226 39 226 39 246 132 c 2
 262 205 l 1
 264 213 266 235 266 245 c 0
 266 263 257 305 243 351 c 2
 211 456 l 2
 185 541 142 597 102 597 c 0
 85 597 67 593 57 587 c 1
 54 620 l 1
 79 637 91 646 144 690 c 1
 159 694 164 695 172 695 c 0
 197 695 225 684 245 666 c 0
 281 634 315 557 334 466 c 1
 370 297 l 1
 460 518 593 686 675 681 c 1
548 880 m 0
 581 880 604 855 604 820 c 0
 604 779 575 749 535 749 c 0
 502 749 481 771 481 806 c 0
 481 847 511 880 548 880 c 0
335 880 m 0
 368 880 391 855 391 820 c 0
 391 779 362 749 322 749 c 0
 289 749 268 771 268 806 c 0
 268 847 298 880 335 880 c 0
EndSplineSet
Ligature: 0 0 'liga' Y uni0308
EndChar
StartChar: Emacron
Encoding: 311 274 205
Width: 611
Flags: W
HStem: -3 53<275 312> 0 168<520 523> 330 48<270 364> 520 161<549 581> 634 47<377 409> 750 70<231 541>
DStem: 179 594 315 630 92 92 270 378 179 594 262 330 92 92 214 56
Fore
16 29 m 1xa4
 44 32 l 2
 74 35 84 47 92 92 c 1
 179 594 l 1
 180 601 181 609 181 614 c 0
 181 636 170 644 135 646 c 2
 89 649 l 1
 94 681 l 1
 225 678 225 678 251 678 c 0
 275 678 304 678 406 681 c 2
 436 681 l 2xac
 451 681 451 681 596 678 c 1
 606 672 l 1
 594 608 589 575 581 520 c 1
 549 520 l 1x34
 549 573 l 2
 549 606 547 616 537 619 c 0
 522 625 425 634 377 634 c 0
 371 634 362 634 354 633 c 2
 315 630 l 1
 270 378 l 1
 356 378 l 2
 407 378 441 379 496 381 c 1
 501 372 l 1
 487 325 l 1
 382 329 349 330 317 330 c 2
 262 330 l 1
 214 56 l 1
 238 51 251 50 275 50 c 2
 312 50 l 1xac
 390 53 l 2
 473 56 485 61 498 98 c 1
 520 168 l 1
 556 168 l 1
 545 123 538 88 522 0 c 1x64
 378 -3 378 -3 355 -3 c 0xa4
 336 -3 312 -3 199 0 c 2
 150 0 l 2x64
 117 0 112 0 11 -3 c 1
 16 29 l 1xa4
557 820 m 1
 541 750 l 1
 215 750 l 1
 232 820 l 1
 557 820 l 1
EndSplineSet
Ligature: 0 0 'liga' E uni0304
EndChar
StartChar: Imacron
Encoding: 312 298 206
Width: 389
Flags: W
HStem: 0 21G<147.5 163.5> 750 70<120 430>
DStem: 178 541 317 599 106 132 230 100
Fore
408 646 m 1
 363 643 l 2
 330 641 324 636 317 599 c 1
 230 100 l 2
 228 89 227 77 227 66 c 0
 227 45 237 36 264 35 c 2
 323 32 l 1
 319 -3 l 1
 171 0 171 0 156 0 c 0
 139 0 139 0 -1 -3 c 1
 3 32 l 1
 52 35 l 2
 85 37 90 47 106 132 c 1
 178 541 l 2
 184 575 187 599 187 613 c 0
 187 632 175 641 149 643 c 2
 97 646 l 1
 101 681 l 1
 231 678 231 678 253 678 c 0
 275 678 275 678 412 681 c 1
 408 646 l 1
446 820 m 1
 430 750 l 1
 104 750 l 1
 121 820 l 1
 446 820 l 1
EndSplineSet
Ligature: 0 0 'liga' I uni0304
EndChar
StartChar: Iogonek
Encoding: 313 302 207
Width: 389
Flags: W
HStem: -189 55<234 285> -3 21G<304 319>
VStem: 167 70<-124 -88>
DStem: 178 541 317 599 106 132 230 100
Fore
97 646 m 1
 101 681 l 1
 231 678 231 678 253 678 c 0
 275 678 275 678 412 681 c 1
 408 646 l 1
 363 643 l 2
 330 641 324 636 317 599 c 1
 230 100 l 2
 228 89 227 77 227 66 c 0
 227 45 237 36 264 35 c 2
 323 32 l 1
 319 -3 l 1
 304 -3 l 1
 300 -2 l 2
 298 -2 291 -8 276 -22 c 0
 249 -48 237 -68 237 -88 c 0
 237 -112 260 -134 285 -134 c 0
 306 -134 324 -124 349 -99 c 1
 373 -112 l 1
 319 -168 280 -189 234 -189 c 0
 193 -189 167 -163 167 -124 c 0
 167 -85 184 -61 255 -2 c 1
 193 0 167 0 156 0 c 0
 141 0 141 0 -1 -3 c 1
 3 32 l 1
 52 35 l 2
 85 37 90 47 106 132 c 1
 178 541 l 2
 184 575 187 599 187 613 c 0
 187 632 175 641 149 643 c 2
 97 646 l 1
EndSplineSet
Ligature: 0 0 'liga' I uni0328
EndChar
StartChar: Kcommaaccent
Encoding: 314 310 208
Width: 722
Flags: W
HStem: -20 20G<140 161 574.5 609> 648 30<666 711>
VStem: 587 159<647 681>
DStem: 169 541 308 599 97 132 261 334 169 541 261 328 97 132 221 100 320 253 384 373 449 70 580 101 510 557 629 596 370 426 384 373
Fore
399 646 m 1
 354 643 l 2
 321 641 315 635 308 599 c 1
 261 334 l 1
 281 345 300 361 370 426 c 2
 510 557 l 1
 516 561 546 595 574 629 c 2
 577 632 l 2
 585 642 587 647 587 657 c 2
 587 681 l 1
 654 678 654 678 666 678 c 0
 679 678 679 678 746 681 c 1
 746 648 l 1
 711 648 l 2
 694 648 669 632 629 596 c 2
 384 373 l 1
 580 101 l 2
 620 46 627 40 648 36 c 2
 687 30 l 1
 684 -3 l 1
 648 -1 626 0 592 0 c 0
 557 0 534 -1 498 -3 c 1
 490 11 488 14 449 70 c 2
 320 253 l 2
 305 275 286 298 261 328 c 1
 221 100 l 2
 219 88 218 79 218 70 c 0
 218 45 226 37 255 35 c 2
 304 32 l 1
 300 -3 l 1
 172 0 172 0 150 0 c 0
 130 0 130 0 -10 -3 c 1
 -6 32 l 1
 43 35 l 2
 76 37 81 47 97 132 c 1
 169 541 l 2
 175 575 178 599 178 613 c 0
 178 632 166 641 140 643 c 2
 88 646 l 1
 92 681 l 1
 222 678 222 678 244 678 c 0
 266 678 266 678 403 681 c 1
 399 646 l 1
424 -40 m 1
 436 -53 l 1
 383 -156 344 -216 292 -275 c 1
 247 -300 l 1
 233 -290 l 1
 275 -218 301 -149 315 -68 c 1
 340 -66 341 -65 391 -50 c 2
 424 -40 l 1
EndSplineSet
Ligature: 0 0 'liga' K uni0327
EndChar
StartChar: Lcommaaccent
Encoding: 315 315 209
Width: 611
Flags: W
HStem: -3 53<259 372> 0 174<542 545>
DStem: 186 541 325 599 104 92 226 56
Fore
416 646 m 1x80
 371 643 l 2
 338 641 332 635 325 599 c 1
 226 56 l 1
 251 51 263 50 294 50 c 0x80
 334 50 426 53 462 56 c 0
 496 59 510 70 519 98 c 1
 542 174 l 1
 578 174 l 1
 559 81 552 50 544 0 c 1x40
 402 -3 402 -3 372 -3 c 0x80
 360 -3 357 -3 258 -1 c 2
 171 0 l 2x40
 128 0 126 0 26 -3 c 1
 30 29 l 1
 58 32 l 2
 87 35 95 46 104 92 c 1
 186 541 l 2
 192 573 195 599 195 615 c 0
 195 632 183 642 157 643 c 2
 105 646 l 1
 109 681 l 1
 239 678 239 678 261 678 c 0
 283 678 283 678 420 681 c 1
 416 646 l 1x80
349 -40 m 1
 361 -53 l 1
 308 -156 269 -216 217 -275 c 1
 172 -300 l 1
 158 -290 l 1
 200 -218 226 -149 240 -68 c 1
 265 -66 266 -65 316 -50 c 2
 349 -40 l 1
EndSplineSet
Ligature: 0 0 'liga' L uni0327
EndChar
StartChar: Ncommaaccent
Encoding: 316 325 210
Width: 778
Flags: W
HStem: -3 21G<535 620>
DStem: 185 578 225 534 88 91 152 138 225 534 282 681 535 -3 596 142 670 542 722 528 596 142 636 100
Fore
620 -3 m 1
 535 -3 l 1
 225 534 l 1
 152 138 l 2
 147 111 144 88 144 76 c 0
 144 50 156 36 180 35 c 2
 231 32 l 1
 226 -3 l 1
 133 0 133 0 114 0 c 0
 95 0 95 0 -2 -3 c 1
 0 32 l 1
 48 35 l 2
 70 36 80 50 88 91 c 2
 185 578 l 1
 186 582 l 2
 188 592 171 617 153 629 c 0
 139 638 119 645 103 646 c 2
 64 649 l 1
 67 681 l 1
 112 679 156 678 174 678 c 0
 192 678 192 678 282 681 c 1
 596 142 l 1
 670 542 l 1
 673 561 676 590 676 612 c 0
 676 633 661 644 630 646 c 2
 588 649 l 1
 593 681 l 1
 691 678 691 678 711 678 c 0
 731 678 731 678 829 681 c 1
 823 649 l 1
 786 646 l 2
 767 644 760 642 752 636 c 0
 744 629 739 612 722 528 c 2
 636 100 l 1
 629 67 625 37 620 -3 c 1
412 -40 m 1
 424 -53 l 1
 371 -156 332 -216 280 -275 c 1
 235 -300 l 1
 221 -290 l 1
 263 -218 289 -149 303 -68 c 1
 328 -66 329 -65 379 -50 c 2
 412 -40 l 1
EndSplineSet
Ligature: 0 0 'liga' N uni0327
EndChar
StartChar: Omacron
Encoding: 317 332 211
Width: 833
Flags: W
HStem: -17 43<365 390> 652 43<475 495> 750 70<342 652>
VStem: 76 138<238 272> 656 138<412 437>
Fore
493 695 m 0
 588 695 667 666 721 612 c 0
 770 563 794 499 794 414 c 0
 794 170 608 -17 365 -17 c 0
 182 -17 76 87 76 268 c 0
 76 518 249 695 493 695 c 0
480 652 m 0
 394 652 332 616 285 537 c 0
 243 467 214 346 214 239 c 0
 214 99 274 26 388 26 c 0
 473 26 541 69 589 153 c 0
 631 226 656 332 656 435 c 0
 656 579 596 652 480 652 c 0
668 820 m 1
 652 750 l 1
 326 750 l 1
 343 820 l 1
 668 820 l 1
EndSplineSet
Ligature: 0 0 'liga' O uni0304
EndChar
StartChar: Rcommaaccent
Encoding: 318 342 212
Width: 722
Flags: W
HStem: -20 20G<152.5 168.5> 638 40<277 390>
VStem: 527 132<527 549>
DStem: 192 594 328 635 111 132 235 100 370 258 454 353 515 -3 610 86
Fore
8 32 m 1
 57 35 l 2
 90 37 95 47 111 132 c 1
 192 594 l 1
 193 601 194 609 194 614 c 0
 194 637 184 644 148 646 c 2
 102 649 l 1
 107 681 l 1
 240 678 240 678 277 678 c 2
 377 679 l 2
 403 680 449 681 460 681 c 0
 592 681 659 633 659 538 c 0
 659 480 632 430 582 398 c 0
 548 376 518 365 454 353 c 1
 610 86 l 2
 624 61 649 35 660 34 c 2
 697 27 l 1
 697 -3 l 1
 660 -1 650 -1 599 0 c 1
 515 -3 l 1
 370 258 l 2
 363 270 347 296 322 334 c 0
 317 340 313 347 309 353 c 1
 314 370 l 1
 369 370 l 2
 461 370 527 437 527 529 c 0
 527 606 487 638 390 638 c 0
 371 638 354 637 328 635 c 1
 235 100 l 2
 233 89 232 77 232 66 c 0
 232 45 242 36 269 35 c 2
 328 32 l 1
 324 -3 l 1
 176 0 176 0 161 0 c 0
 144 0 144 0 4 -3 c 1
 8 32 l 1
424 -40 m 1
 436 -53 l 1
 383 -156 344 -216 292 -275 c 1
 247 -300 l 1
 233 -290 l 1
 275 -218 301 -149 315 -68 c 1
 340 -66 341 -65 391 -50 c 2
 424 -40 l 1
EndSplineSet
Ligature: 0 0 'liga' R uni0327
EndChar
StartChar: Gcommaaccent
Encoding: 319 290 213
Width: 778
Flags: W
HStem: -17 47<368 398> 633 62<482 523>
VStem: 72 138<243 287>
Fore
517 59 m 1
 549 200 l 2
 551 208 552 217 552 223 c 0
 552 242 540 250 508 251 c 2
 448 253 l 1
 453 286 l 1
 578 283 578 283 602 283 c 0
 628 283 628 283 750 286 c 1
 745 253 l 1
 720 251 l 2
 693 248 683 238 675 206 c 1
 655 110 l 2
 651 91 649 77 649 64 c 1
 652 48 l 1
 508 -4 452 -17 368 -17 c 0
 269 -17 191 9 140 60 c 0
 94 105 72 170 72 256 c 0
 72 440 177 592 352 661 c 0
 411 684 466 695 523 695 c 0
 596 695 653 683 722 652 c 1
 696 560 689 531 684 484 c 1
 649 484 l 1
 653 562 l 1
 654 568 654 572 654 574 c 0
 654 605 574 633 482 633 c 0
 418 633 354 613 316 580 c 0
 253 526 210 395 210 259 c 0
 210 111 276 30 396 30 c 0
 443 30 483 40 517 59 c 1
452 -40 m 1
 464 -53 l 1
 411 -156 372 -216 320 -275 c 1
 275 -300 l 1
 261 -290 l 1
 303 -218 329 -149 343 -68 c 1
 368 -66 369 -65 419 -50 c 2
 452 -40 l 1
EndSplineSet
Ligature: 0 0 'liga' G uni0327
EndChar
StartChar: Umacron
Encoding: 320 362 214
Width: 778
Flags: W
HStem: -17 80<271 327> 750 70<315 625>
VStem: 94 130<156 182>
DStem: 160 541 313 674 102 234 227 214 586 541 725 599 521 182 635 100
Fore
497 -3 m 1
 492 5 l 1
 501 45 506 68 519 133 c 1
 461 72 438 50 403 26 c 0
 364 -2 317 -17 271 -17 c 0
 209 -17 155 8 124 51 c 0
 104 77 94 112 94 156 c 0
 94 180 97 206 102 234 c 1
 160 541 l 1
 161 548 l 1
 162 550 162 552 162 555 c 0
 168 582 171 605 171 617 c 0
 171 633 159 642 134 643 c 2
 83 646 l 1
 88 681 l 1
 142 680 l 2
 182 679 209 678 220 678 c 0
 246 678 260 678 307 681 c 1
 313 674 l 1
 227 214 l 2
 225 203 224 192 224 178 c 0
 224 150 229 124 238 110 c 0
 255 81 290 63 327 63 c 0
 356 63 385 72 421 93 c 0
 469 121 518 164 521 182 c 1
 586 541 l 1
 586 543 587 546 588 550 c 0
 589 561 591 568 591 571 c 0
 595 590 597 606 597 617 c 0
 597 633 585 642 560 643 c 2
 509 646 l 1
 514 681 l 1
 644 678 644 678 666 678 c 0
 688 678 688 678 825 681 c 1
 820 646 l 1
 774 643 l 2
 739 641 732 635 725 599 c 1
 635 100 l 1
 632 85 631 74 631 65 c 0
 631 44 641 36 667 35 c 2
 726 32 l 1
 721 -3 l 1
 619 0 619 0 603 0 c 0
 585 0 585 0 497 -3 c 1
641 820 m 1
 625 750 l 1
 299 750 l 1
 316 820 l 1
 641 820 l 1
EndSplineSet
Ligature: 0 0 'liga' U uni0304
EndChar
StartChar: Uogonek
Encoding: 321 370 215
Width: 778
Flags: W
HStem: -189 55<635 687> -17 80<271 327>
VStem: 94 130<156 182> 568 70<-124 -88>
DStem: 160 541 313 674 102 234 227 214 586 541 725 599 521 182 635 100
Fore
509 646 m 1
 514 681 l 1
 644 678 644 678 666 678 c 0
 688 678 688 678 825 681 c 1
 820 646 l 1
 774 643 l 2
 739 641 732 635 725 599 c 1
 635 100 l 1
 632 85 631 74 631 65 c 0
 631 44 641 36 667 35 c 2
 726 32 l 1
 721 -3 l 1
 705 -3 l 1
 702 -2 l 2
 700 -2 693 -7 677 -22 c 0
 650 -48 638 -68 638 -88 c 0
 638 -112 661 -134 687 -134 c 0
 708 -134 726 -124 750 -99 c 1
 774 -112 l 1
 720 -168 681 -189 635 -189 c 0
 594 -189 568 -163 568 -124 c 0
 568 -85 583 -64 657 -1 c 1
 627 0 618 0 604 0 c 0
 586 0 564 -1 497 -3 c 1
 492 5 l 1
 501 45 506 68 519 133 c 1
 461 72 438 50 403 26 c 0
 364 -2 317 -17 271 -17 c 0
 210 -17 155 8 124 51 c 0
 104 77 94 112 94 156 c 0
 94 180 97 206 102 234 c 1
 160 541 l 1
 161 548 l 1
 162 550 162 552 162 555 c 0
 168 582 171 605 171 617 c 0
 171 633 159 642 134 643 c 2
 83 646 l 1
 88 681 l 1
 142 680 l 2
 182 679 209 678 220 678 c 0
 246 678 260 678 307 681 c 1
 313 674 l 1
 227 214 l 2
 225 203 224 192 224 178 c 0
 224 150 229 124 238 110 c 0
 255 81 290 63 327 63 c 0
 356 63 385 72 421 93 c 0
 469 121 518 164 521 182 c 1
 586 541 l 1
 586 543 587 546 588 550 c 0
 589 561 591 568 591 571 c 0
 595 590 597 606 597 617 c 0
 597 633 585 642 560 643 c 2
 509 646 l 1
EndSplineSet
Ligature: 0 0 'liga' U uni0328
EndChar
StartChar: adieresis
Encoding: 322 228 216
Width: 556
Flags: W
HStem: -17 82<98 174> 417 52<296 342> 537 131<256 269 469 482>
VStem: 44 112<58 102> 202 123<594 608> 415 123<594 608>
DStem: 357 234 473 353 320 83 428 139
Fore
444 443 m 1
 489 470 l 1
 505 458 l 1
 487 409 480 384 473 353 c 1
 428 139 l 2
 422 110 418 90 418 89 c 0
 421 71 424 66 432 66 c 0
 440 66 469 82 487 96 c 2
 507 112 l 1
 519 82 l 1
 444 15 387 -17 345 -17 c 0
 325 -17 313 0 313 28 c 0
 313 45 315 64 320 83 c 1
 357 234 l 1
 264 71 173 -17 98 -17 c 0
 67 -17 44 14 44 58 c 0
 44 138 80 274 115 327 c 0
 131 353 200 411 253 446 c 0
 280 463 304 469 342 469 c 0
 374 469 397 463 444 443 c 1
377 395 m 1
 342 412 323 417 296 417 c 0
 253 417 225 387 203 318 c 0
 178 241 156 139 156 102 c 0
 156 82 164 65 174 65 c 0
 195 65 233 99 274 153 c 0
 330 228 363 305 377 395 c 1
482 668 m 0
 515 668 538 643 538 608 c 0
 538 567 509 537 469 537 c 0
 436 537 415 559 415 594 c 0
 415 635 445 668 482 668 c 0
269 668 m 0
 302 668 325 643 325 608 c 0
 325 567 296 537 256 537 c 0
 223 537 202 559 202 594 c 0
 202 635 232 668 269 668 c 0
EndSplineSet
KernsSLIF: 121 4 0 0 119 -6 0 0 118 -2 0 0
Ligature: 0 0 'liga' a uni0308
EndChar
StartChar: aacute
Encoding: 323 225 217
Width: 556
Flags: W
HStem: -17 82<98 174> 417 52<296 342> 679 20G<463 484>
VStem: 44 112<58 102>
DStem: 357 234 473 353 320 83 428 139
Fore
444 443 m 1
 489 470 l 1
 505 458 l 1
 487 409 480 384 473 353 c 1
 428 139 l 2
 422 110 418 90 418 89 c 0
 421 71 424 66 432 66 c 0
 440 66 469 82 487 96 c 2
 507 112 l 1
 519 82 l 1
 444 15 387 -17 345 -17 c 0
 325 -17 313 0 313 28 c 0
 313 45 315 64 320 83 c 1
 357 234 l 1
 264 71 173 -17 98 -17 c 0
 67 -17 44 14 44 58 c 0
 44 138 80 274 115 327 c 0
 131 353 200 411 253 446 c 0
 280 463 304 469 342 469 c 0
 374 469 397 463 444 443 c 1
377 395 m 1
 342 412 323 417 296 417 c 0
 253 417 225 387 203 318 c 0
 178 241 156 139 156 102 c 0
 156 82 164 65 174 65 c 0
 195 65 233 99 274 153 c 0
 330 228 363 305 377 395 c 1
279 518 m 1
 420 669 l 2
 440 690 455 699 471 699 c 0
 497 699 518 679 518 654 c 0
 518 634 510 623 482 607 c 2
 328 518 l 1
 279 518 l 1
EndSplineSet
KernsSLIF: 121 4 0 0 119 -5 0 0 118 -2 0 0
Ligature: 0 0 'liga' a acutecomb
EndChar
StartChar: agrave
Encoding: 324 224 218
Width: 556
Flags: W
HStem: -17 82<98 174> 417 52<296 342> 679 20G<249 270.5>
VStem: 44 112<58 102>
DStem: 357 234 473 353 320 83 428 139
Fore
444 443 m 1
 489 470 l 1
 505 458 l 1
 487 409 480 384 473 353 c 1
 428 139 l 2
 422 110 418 90 418 89 c 0
 421 71 424 66 432 66 c 0
 440 66 469 82 487 96 c 2
 507 112 l 1
 519 82 l 1
 444 15 387 -17 345 -17 c 0
 325 -17 313 0 313 28 c 0
 313 45 315 64 320 83 c 1
 357 234 l 1
 264 71 173 -17 98 -17 c 0
 67 -17 44 14 44 58 c 0
 44 138 80 274 115 327 c 0
 131 353 200 411 253 446 c 0
 280 463 304 469 342 469 c 0
 374 469 397 463 444 443 c 1
377 395 m 1
 342 412 323 417 296 417 c 0
 253 417 225 387 203 318 c 0
 178 241 156 139 156 102 c 0
 156 82 164 65 174 65 c 0
 195 65 233 99 274 153 c 0
 330 228 363 305 377 395 c 1
381 518 m 1
 258 600 l 2
 223 623 214 635 214 656 c 0
 214 678 237 699 261 699 c 0
 280 699 299 686 322 655 c 2
 426 518 l 1
 381 518 l 1
EndSplineSet
KernsSLIF: 121 4 0 0 119 -5 0 0 118 -2 0 0
Ligature: 0 0 'liga' a gravecomb
EndChar
StartChar: acircumflex
Encoding: 325 226 219
Width: 556
Flags: W
HStem: -17 82<98 174> 417 52<296 342> 664 20G<360 441>
VStem: 44 112<58 102>
DStem: 357 234 473 353 320 83 428 139
Fore
444 443 m 1
 489 470 l 1
 505 458 l 1
 487 409 480 384 473 353 c 1
 428 139 l 2
 422 110 418 90 418 89 c 0
 421 71 424 66 432 66 c 0
 440 66 469 82 487 96 c 2
 507 112 l 1
 519 82 l 1
 444 15 387 -17 345 -17 c 0
 325 -17 313 0 313 28 c 0
 313 45 315 64 320 83 c 1
 357 234 l 1
 264 71 173 -17 98 -17 c 0
 67 -17 44 14 44 58 c 0
 44 138 80 274 115 327 c 0
 131 353 200 411 253 446 c 0
 280 463 304 469 342 469 c 0
 374 469 397 463 444 443 c 1
377 395 m 1
 342 412 323 417 296 417 c 0
 253 417 225 387 203 318 c 0
 178 241 156 139 156 102 c 0
 156 82 164 65 174 65 c 0
 195 65 233 99 274 153 c 0
 330 228 363 305 377 395 c 1
441 684 m 1
 527 510 l 1
 476 510 l 1
 388 605 l 1
 257 510 l 1
 200 510 l 1
 360 684 l 1
 441 684 l 1
EndSplineSet
Ligature: 0 0 'liga' a uni0302
EndChar
StartChar: abreve
Encoding: 326 259 220
Width: 556
Flags: W
HStem: -17 82<98 174> 417 52<296 342> 519 72<338 359> 661 20G<208 251 485 524>
VStem: 44 112<58 102>
DStem: 357 234 473 353 320 83 428 139
Fore
444 443 m 1
 489 470 l 1
 505 458 l 1
 487 409 480 384 473 353 c 1
 428 139 l 2
 422 110 418 90 418 89 c 0
 421 71 424 66 432 66 c 0
 440 66 469 82 487 96 c 2
 507 112 l 1
 519 82 l 1
 444 15 387 -17 345 -17 c 0
 325 -17 313 0 313 28 c 0
 313 45 315 64 320 83 c 1
 357 234 l 1
 264 71 173 -17 98 -17 c 0
 67 -17 44 14 44 58 c 0
 44 138 80 274 115 327 c 0
 131 353 200 411 253 446 c 0
 280 463 304 469 342 469 c 0
 374 469 397 463 444 443 c 1
377 395 m 1
 342 412 323 417 296 417 c 0
 253 417 225 387 203 318 c 0
 178 241 156 139 156 102 c 0
 156 82 164 65 174 65 c 0
 195 65 233 99 274 153 c 0
 330 228 363 305 377 395 c 1
208 681 m 1
 251 681 l 1
 256 619 288 591 355 591 c 0
 419 591 456 617 485 681 c 1
 524 681 l 1
 514 633 505 610 486 585 c 0
 454 543 402 519 340 519 c 0
 293 519 261 532 239 561 c 0
 217 589 209 620 208 681 c 1
EndSplineSet
Ligature: 0 0 'liga' a uni0306
EndChar
StartChar: atilde
Encoding: 327 227 221
Width: 556
Flags: W
HStem: -17 82<98 174> 417 52<296 342> 535 77<438 463> 579 75<280 312>
VStem: 44 112<58 102>
DStem: 357 234 473 353 320 83 428 139
Fore
444 443 m 1xc8
 489 470 l 1
 505 458 l 1
 487 409 480 384 473 353 c 1
 428 139 l 2
 422 110 418 90 418 89 c 0
 421 71 424 66 432 66 c 0
 440 66 469 82 487 96 c 2
 507 112 l 1
 519 82 l 1
 444 15 387 -17 345 -17 c 0
 325 -17 313 0 313 28 c 0
 313 45 315 64 320 83 c 1
 357 234 l 1
 264 71 173 -17 98 -17 c 0
 67 -17 44 14 44 58 c 0
 44 138 80 274 115 327 c 0
 131 353 200 411 253 446 c 0
 280 463 304 469 342 469 c 0
 374 469 397 463 444 443 c 1xc8
377 395 m 1
 342 412 323 417 296 417 c 0
 253 417 225 387 203 318 c 0
 178 241 156 139 156 102 c 0
 156 82 164 65 174 65 c 0
 195 65 233 99 274 153 c 0
 330 228 363 305 377 395 c 1
234 535 m 1xe8
 194 535 l 1xe8
 212 614 252 654 312 654 c 0xd8
 338 654 355 650 388 635 c 0
 421 620 446 612 463 612 c 0xe8
 485 612 498 623 512 654 c 1
 553 654 l 1xd8
 532 573 495 535 438 535 c 0xe8
 415 535 402 539 356 557 c 0
 314 574 297 579 280 579 c 0xd8
 260 579 249 569 234 535 c 1xe8
EndSplineSet
Ligature: 0 0 'liga' a tildecomb
EndChar
StartChar: aring
Encoding: 328 229 222
Width: 556
Flags: W
HStem: -17 82<98 174> 417 52<296 342> 514 50<366.788 382> 664 50<375 381>
VStem: 44 112<58 102> 277 50<606 624> 427 50<614 624>
DStem: 357 234 473 353 320 83 428 139
Fore
444 443 m 1
 489 470 l 1
 505 458 l 1
 487 409 480 384 473 353 c 1
 428 139 l 2
 422 110 418 90 418 89 c 0
 421 71 424 66 432 66 c 0
 440 66 469 82 487 96 c 2
 507 112 l 1
 519 82 l 1
 444 15 387 -17 345 -17 c 0
 325 -17 313 0 313 28 c 0
 313 45 315 64 320 83 c 1
 357 234 l 1
 264 71 173 -17 98 -17 c 0
 67 -17 44 14 44 58 c 0
 44 138 80 274 115 327 c 0
 131 353 200 411 253 446 c 0
 280 463 304 469 342 469 c 0
 374 469 397 463 444 443 c 1
377 395 m 1
 342 412 323 417 296 417 c 0
 253 417 225 387 203 318 c 0
 178 241 156 139 156 102 c 0
 156 82 164 65 174 65 c 0
 195 65 233 99 274 153 c 0
 330 228 363 305 377 395 c 1
379 714 m 0
 432 714 477 668 477 614 c 0
 477 559 432 514 377 514 c 0
 322 514 277 559 277 615 c 0
 277 670 322 714 379 714 c 0
378 664 m 0
 349 664 327 642 327 614 c 0
 327 586 349 564 377 564 c 0
 405 564 427 586 427 614 c 0
 427 641 405 664 378 664 c 0
EndSplineSet
KernsSLIF: 121 4 0 0 119 -5 0 0 118 -2 0 0
Ligature: 0 0 'liga' a uni030A
EndChar
StartChar: aogonek
Encoding: 329 261 223
Width: 556
Flags: W
HStem: -189 56<350 402> -17 82<98 174> 417 52<296 342>
VStem: 44 112<58 102> 283 71<-124 -87>
DStem: 357 234 473 353 320 83 428 139
Fore
507 112 m 1
 519 82 l 1
 436 13 l 1
 368 -40 354 -57 354 -87 c 0
 354 -113 374 -133 402 -133 c 0
 424 -133 440 -124 466 -99 c 1
 490 -112 l 1
 435 -168 397 -189 350 -189 c 0
 310 -189 283 -163 283 -124 c 0
 283 -88 299 -64 354 -16 c 1
 350 -17 347 -17 345 -17 c 0
 325 -17 313 0 313 28 c 0
 313 45 315 64 320 83 c 1
 357 234 l 1
 264 71 173 -17 98 -17 c 0
 67 -17 44 14 44 58 c 0
 44 138 80 274 115 327 c 0
 131 353 200 411 253 446 c 0
 280 463 304 469 342 469 c 0
 374 469 397 463 444 443 c 1
 489 470 l 1
 505 458 l 1
 487 409 480 384 473 353 c 1
 428 139 l 2
 422 110 418 90 418 89 c 0
 421 71 424 66 432 66 c 0
 440 66 469 82 487 96 c 2
 507 112 l 1
377 395 m 1
 342 412 323 417 296 417 c 0
 253 417 225 387 203 318 c 0
 178 241 156 139 156 102 c 0
 156 82 164 65 174 65 c 0
 195 65 233 99 274 153 c 0
 330 228 363 305 377 395 c 1
EndSplineSet
Ligature: 0 0 'liga' a uni0328
EndChar
StartChar: cacute
Encoding: 330 263 224
Width: 444
Flags: W
HStem: -17 67<159 225> 407 62<278 323> 679 20G<413 434>
VStem: 32 114<119 144>
Fore
391 120 m 1
 401 90 l 1
 283 8 227 -17 159 -17 c 0
 81 -17 32 36 32 119 c 0
 32 191 56 286 85 332 c 0
 103 360 137 389 190 420 c 0
 254 459 283 469 323 469 c 0
 357 469 383 464 436 445 c 1
 422 408 417 388 401 304 c 1
 368 304 l 1
 374 360 l 1
 370 374 l 1
 338 397 309 407 278 407 c 0
 238 407 206 383 186 339 c 0
 165 292 146 198 146 140 c 0
 146 85 177 50 225 50 c 0
 272 50 312 67 391 120 c 1
229 518 m 1
 370 669 l 2
 390 690 405 699 421 699 c 0
 447 699 468 679 468 654 c 0
 468 634 460 623 432 607 c 2
 278 518 l 1
 229 518 l 1
EndSplineSet
Ligature: 0 0 'liga' c acutecomb
EndChar
StartChar: ccaron
Encoding: 331 269 225
Width: 444
Flags: W
HStem: -17 67<159 225> 407 62<278 323> 664 20G<172 222 448 504>
VStem: 32 114<119 144>
Fore
391 120 m 1
 401 90 l 1
 283 8 227 -17 159 -17 c 0
 81 -17 32 36 32 119 c 0
 32 191 56 286 85 332 c 0
 103 360 137 389 190 420 c 0
 254 459 283 469 323 469 c 0
 357 469 383 464 436 445 c 1
 422 408 417 388 401 304 c 1
 368 304 l 1
 374 360 l 1
 370 374 l 1
 338 397 309 407 278 407 c 0
 238 407 206 383 186 339 c 0
 165 292 146 198 146 140 c 0
 146 85 177 50 225 50 c 0
 272 50 312 67 391 120 c 1
260 510 m 1
 172 684 l 1
 222 684 l 1
 313 587 l 1
 448 684 l 1
 504 684 l 1
 342 510 l 1
 260 510 l 1
EndSplineSet
Ligature: 0 0 'liga' c uni030C
EndChar
StartChar: ccedilla
Encoding: 332 231 226
Width: 444
Flags: W
HStem: -218 41<155 181> -100 41<164 214> -17 67<159 225> 407 62<278 323>
VStem: 32 114<119 142> 212 92<-139 -129>
DStem: 175 -16 226 -7 122 -92 188 -62
Fore
226 -7 m 1
 188 -62 l 1
 198 -60 205 -59 214 -59 c 0
 267 -59 304 -89 304 -131 c 0
 304 -182 252 -218 181 -218 c 0
 142 -218 113 -212 68 -193 c 1
 90 -160 l 1
 119 -173 135 -177 157 -177 c 0
 191 -177 212 -162 212 -137 c 0
 212 -113 195 -100 164 -100 c 0
 154 -100 147 -101 135 -104 c 1
 122 -92 l 1
 175 -16 l 1
 168 -17 164 -17 159 -17 c 0
 81 -17 32 36 32 119 c 0
 32 191 56 286 85 332 c 0
 103 360 137 389 190 420 c 0
 254 459 283 469 323 469 c 0
 357 469 383 464 436 445 c 1
 422 408 417 388 401 304 c 1
 368 304 l 1
 374 360 l 1
 370 374 l 1
 338 397 309 407 278 407 c 0
 238 407 206 383 186 339 c 0
 165 292 146 198 146 140 c 0
 146 85 177 50 225 50 c 0
 272 50 312 67 391 120 c 1
 401 90 l 1
 319 33 275 8 226 -7 c 1
EndSplineSet
Ligature: 0 0 'liga' c uni0327
EndChar
StartChar: dcaron
Encoding: 333 271 227
Width: 667
Flags: W
HStem: -17 82<101 176> 419 50<299 331>
VStem: 38 114<70 96>
Fore
396 460 m 1
 414 572 l 1
 417 593 418 599 418 610 c 0
 418 639 407 652 380 652 c 2
 335 652 l 1
 342 680 l 1
 442 695 491 706 540 726 c 1
 550 717 l 1
 547 704 546 698 544 693 c 0
 544 690 542 684 536 652 c 1
 429 121 l 1
 426 105 424 91 424 81 c 0
 424 73 430 65 438 65 c 0
 443 65 453 71 487 93 c 2
 513 110 l 1
 522 82 l 1
 486 56 l 2
 428 13 372 -17 350 -17 c 0
 331 -17 315 1 315 24 c 0
 315 38 317 55 322 74 c 1
 362 238 l 1
 297 130 264 86 217 45 c 0
 168 3 132 -17 101 -17 c 0
 65 -17 38 20 38 70 c 0
 38 168 72 297 112 348 c 0
 137 381 199 426 256 452 c 0
 282 464 304 469 331 469 c 0
 351 469 367 467 396 460 c 1
360 306 m 2
 384 401 l 1
 347 415 327 419 299 419 c 0
 249 419 231 406 208 353 c 0
 179 287 152 159 152 92 c 0
 152 76 162 65 176 65 c 0
 195 65 225 87 254 124 c 0
 307 190 349 262 360 306 c 2
715 720 m 1
 727 707 l 1
 674 604 635 544 583 485 c 1
 538 460 l 1
 524 470 l 1
 566 542 592 611 606 692 c 1
 631 694 632 695 682 710 c 2
 715 720 l 1
EndSplineSet
Ligature: 0 0 'liga' d uni030C
EndChar
StartChar: edieresis
Encoding: 334 235 228
Width: 444
Flags: W
HStem: -17 64<149 215> 421 48<276 325> 537 131<200 213 413 426>
VStem: 28 114<100 129> 146 123<594 608> 324 94<366 381> 359 123<594 608>
Fore
377 114 m 1xfc
 387 86 l 1
 382 83 377 80 373 77 c 2
 358 68 l 2
 259 3 209 -17 149 -17 c 0
 74 -17 28 27 28 100 c 0
 28 168 55 273 88 331 c 0
 127 400 246 469 325 469 c 0
 382 469 418 435 418 381 c 0
 418 323 382 277 311 243 c 0
 269 223 232 212 147 193 c 1
 143 164 142 149 142 129 c 0
 142 77 169 47 215 47 c 0
 256 47 302 66 377 114 c 1xfc
151 219 m 1
 192 231 l 2
 273 255 324 307 324 368 c 0
 324 401 306 421 276 421 c 0
 227 421 187 370 165 277 c 2
 151 219 l 1
426 668 m 0
 459 668 482 643 482 608 c 0
 482 567 453 537 413 537 c 0
 380 537 359 559 359 594 c 0xfa
 359 635 389 668 426 668 c 0
213 668 m 0
 246 668 269 643 269 608 c 0
 269 567 240 537 200 537 c 0
 167 537 146 559 146 594 c 0
 146 635 176 668 213 668 c 0
EndSplineSet
Ligature: 0 0 'liga' e uni0308
EndChar
StartChar: eacute
Encoding: 335 233 229
Width: 444
Flags: W
HStem: -17 64<149 215> 421 48<276 325> 679 20G<393 414>
VStem: 28 114<100 129> 324 94<366 381>
Fore
377 114 m 1
 387 86 l 1
 382 83 377 80 373 77 c 2
 358 68 l 2
 259 3 209 -17 149 -17 c 0
 74 -17 28 27 28 100 c 0
 28 168 55 273 88 331 c 0
 127 400 246 469 325 469 c 0
 382 469 418 435 418 381 c 0
 418 323 382 277 311 243 c 0
 269 223 232 212 147 193 c 1
 143 164 142 149 142 129 c 0
 142 77 169 47 215 47 c 0
 256 47 302 66 377 114 c 1
151 219 m 1
 192 231 l 2
 273 255 324 307 324 368 c 0
 324 401 306 421 276 421 c 0
 227 421 187 370 165 277 c 2
 151 219 l 1
209 518 m 1
 350 669 l 2
 370 690 385 699 401 699 c 0
 427 699 448 679 448 654 c 0
 448 634 440 623 412 607 c 2
 258 518 l 1
 209 518 l 1
EndSplineSet
KernsSLIF: 121 30 0 0 119 20 0 0 118 24 0 0
Ligature: 0 0 'liga' e acutecomb
EndChar
StartChar: egrave
Encoding: 336 232 230
Width: 444
Flags: W
HStem: -17 64<149 215> 421 48<276 325> 679 20G<200 221.5>
VStem: 28 114<100 129> 324 94<366 381>
Fore
377 114 m 1
 387 86 l 1
 382 83 377 80 373 77 c 2
 358 68 l 2
 259 3 209 -17 149 -17 c 0
 74 -17 28 27 28 100 c 0
 28 168 55 273 88 331 c 0
 127 400 246 469 325 469 c 0
 382 469 418 435 418 381 c 0
 418 323 382 277 311 243 c 0
 269 223 232 212 147 193 c 1
 143 164 142 149 142 129 c 0
 142 77 169 47 215 47 c 0
 256 47 302 66 377 114 c 1
151 219 m 1
 192 231 l 2
 273 255 324 307 324 368 c 0
 324 401 306 421 276 421 c 0
 227 421 187 370 165 277 c 2
 151 219 l 1
332 518 m 1
 209 600 l 2
 174 623 165 635 165 656 c 0
 165 678 188 699 212 699 c 0
 231 699 250 686 273 655 c 2
 377 518 l 1
 332 518 l 1
EndSplineSet
Ligature: 0 0 'liga' e gravecomb
EndChar
StartChar: ecircumflex
Encoding: 337 234 231
Width: 444
Flags: W
HStem: -17 64<149 215> 421 48<276 325> 664 20G<304 385>
VStem: 28 114<100 129> 324 94<366 381>
Fore
377 114 m 1
 387 86 l 1
 382 83 377 80 373 77 c 2
 358 68 l 2
 259 3 209 -17 149 -17 c 0
 74 -17 28 27 28 100 c 0
 28 168 55 273 88 331 c 0
 127 400 246 469 325 469 c 0
 382 469 418 435 418 381 c 0
 418 323 382 277 311 243 c 0
 269 223 232 212 147 193 c 1
 143 164 142 149 142 129 c 0
 142 77 169 47 215 47 c 0
 256 47 302 66 377 114 c 1
151 219 m 1
 192 231 l 2
 273 255 324 307 324 368 c 0
 324 401 306 421 276 421 c 0
 227 421 187 370 165 277 c 2
 151 219 l 1
385 684 m 1
 471 510 l 1
 420 510 l 1
 332 605 l 1
 201 510 l 1
 144 510 l 1
 304 684 l 1
 385 684 l 1
EndSplineSet
KernsSLIF: 121 30 0 0 119 20 0 0 118 24 0 0
Ligature: 0 0 'liga' e uni0302
EndChar
StartChar: ecaron
Encoding: 338 283 232
Width: 444
Flags: W
HStem: -17 64<149 215> 421 48<276 325> 664 20G<169 219 445 501>
VStem: 28 114<100 129> 324 94<366 381>
Fore
377 114 m 1
 387 86 l 1
 382 83 377 80 373 77 c 2
 358 68 l 2
 259 3 209 -17 149 -17 c 0
 74 -17 28 27 28 100 c 0
 28 168 55 273 88 331 c 0
 127 400 246 469 325 469 c 0
 382 469 418 435 418 381 c 0
 418 323 382 277 311 243 c 0
 269 223 232 212 147 193 c 1
 143 164 142 149 142 129 c 0
 142 77 169 47 215 47 c 0
 256 47 302 66 377 114 c 1
151 219 m 1
 192 231 l 2
 273 255 324 307 324 368 c 0
 324 401 306 421 276 421 c 0
 227 421 187 370 165 277 c 2
 151 219 l 1
257 510 m 1
 169 684 l 1
 219 684 l 1
 310 587 l 1
 445 684 l 1
 501 684 l 1
 339 510 l 1
 257 510 l 1
EndSplineSet
Ligature: 0 0 'liga' e uni030C
EndChar
StartChar: edotaccent
Encoding: 339 279 233
Width: 444
Flags: W
HStem: -17 64<149 215> 421 48<276 325> 537 131<311 324>
VStem: 28 114<100 129> 257 123<594 608> 324 94<366 381>
Fore
377 114 m 1xf4
 387 86 l 1
 382 83 377 80 373 77 c 2
 358 68 l 2
 259 3 209 -17 149 -17 c 0
 74 -17 28 27 28 100 c 0
 28 168 55 273 88 331 c 0
 127 400 246 469 325 469 c 0
 382 469 418 435 418 381 c 0
 418 323 382 277 311 243 c 0
 269 223 232 212 147 193 c 1
 143 164 142 149 142 129 c 0
 142 77 169 47 215 47 c 0
 256 47 302 66 377 114 c 1xf4
151 219 m 1
 192 231 l 2
 273 255 324 307 324 368 c 0
 324 401 306 421 276 421 c 0
 227 421 187 370 165 277 c 2
 151 219 l 1
324 668 m 0
 357 668 380 643 380 608 c 0
 380 567 351 537 311 537 c 0
 278 537 257 559 257 594 c 0xf8
 257 635 287 668 324 668 c 0
EndSplineSet
Ligature: 0 0 'liga' e uni0307
EndChar
StartChar: eogonek
Encoding: 340 281 234
Width: 444
Flags: W
HStem: -189 56<188 240> -17 64<150 215> 421 48<276 325>
VStem: 28 114<99 129> 121 71<-124 -87> 324 94<366 381>
Fore
377 114 m 1xf4
 387 86 l 1
 312 39 256 1 240 -13 c 0
 209 -39 192 -65 192 -87 c 0
 192 -113 212 -133 240 -133 c 0
 262 -133 278 -124 303 -99 c 1
 327 -112 l 1
 273 -168 234 -189 188 -189 c 0
 147 -189 121 -163 121 -124 c 0xec
 121 -88 138 -62 197 -12 c 1
 176 -16 165 -17 150 -17 c 0
 74 -17 28 27 28 99 c 0
 28 169 55 273 88 331 c 0
 127 400 246 469 325 469 c 0
 382 469 418 435 418 381 c 0
 418 323 382 277 311 243 c 0
 269 223 232 212 147 193 c 1
 143 164 142 149 142 129 c 0
 142 77 169 47 215 47 c 0
 256 47 302 66 377 114 c 1xf4
151 219 m 1
 192 231 l 2
 273 255 324 307 324 368 c 0
 324 401 306 421 276 421 c 0
 227 421 187 370 165 277 c 2
 151 219 l 1
EndSplineSet
Ligature: 0 0 'liga' e uni0328
EndChar
StartChar: gbreve
Encoding: 341 287 235
Width: 500
Flags: W
HStem: -271 36<156 189> 137 35<212 230> 425 44<266 290> 519 72<307 334> 661 20G<180 223 457 496>
VStem: -50 89<-146 -131> 54 103<254 274> 309 104<-144 -105> 334 108<320 354>
DStem: 524 449 524 449 453 446 529 440
Fore
519 390 m 1xff
 431 394 l 1
 439 370 442 355 442 335 c 0xfe80
 442 272 413 219 360 185 c 0
 342 173 321 163 285 149 c 0
 244 134 227 121 227 103 c 0
 227 92 236 79 250 69 c 2
 335 9 l 2
 390 -30 413 -63 413 -105 c 0
 413 -201 306 -271 159 -271 c 0
 33 -271 -50 -222 -50 -146 c 0
 -50 -109 -30 -75 9 -47 c 0
 39 -25 73 -10 142 12 c 1
 127 23 117 42 116 61 c 1
 120 81 l 1
 212 137 l 1
 148 138 117 146 90 169 c 0
 65 191 54 220 54 266 c 0
 54 326 76 371 120 404 c 0
 169 440 245 469 290 469 c 0
 317 469 352 461 380 449 c 1
 398 447 428 446 453 446 c 2
 524 449 l 1
 529 440 l 1
 519 390 l 1xff
266 425 m 0
 232 425 205 409 187 379 c 0
 170 352 157 296 157 256 c 0
 157 204 185 172 230 172 c 0
 292 172 334 240 334 340 c 0
 334 394 310 425 266 425 c 0
163 -5 m 1
 135 -18 l 2
 69 -49 39 -84 39 -131 c 0
 39 -193 95 -235 178 -235 c 0
 252 -235 309 -196 309 -144 c 0xff
 309 -114 292 -92 245 -60 c 2
 163 -5 l 1
180 681 m 1
 223 681 l 1
 228 619 260 591 327 591 c 0
 391 591 428 617 457 681 c 1
 496 681 l 1
 486 633 477 610 458 585 c 0
 426 543 374 519 312 519 c 0
 265 519 233 532 211 561 c 0
 189 589 181 620 180 681 c 1
EndSplineSet
Ligature: 0 0 'liga' g uni0306
EndChar
StartChar: idieresis
Encoding: 342 239 236
Width: 333
Flags: W
HStem: -17 82<99 193> 370 99<130 238> 557 131<144 157 357 370>
VStem: 90 123<614 628> 303 123<614 628>
DStem: 132 319 255 365 73 78 201 169
Fore
26 346 m 1
 89 393 l 2
 150 439 210 469 238 469 c 0
 253 469 264 454 264 432 c 0
 264 413 260 383 255 365 c 2
 201 169 l 2
 188 122 181 89 181 77 c 0
 181 71 187 65 193 65 c 0
 202 65 220 74 254 95 c 2
 281 112 l 1
 293 84 l 1
 282 76 278 74 265 64 c 0
 184 6 137 -17 99 -17 c 0
 80 -17 67 0 67 26 c 0
 67 41 70 64 73 78 c 1
 132 319 l 2
 138 343 140 354 140 359 c 0
 140 366 136 370 130 370 c 0
 121 370 80 350 61 336 c 2
 39 320 l 1
 26 346 l 1
370 688 m 0
 403 688 426 663 426 628 c 0
 426 587 397 557 357 557 c 0
 324 557 303 579 303 614 c 0
 303 655 333 688 370 688 c 0
157 688 m 0
 190 688 213 663 213 628 c 0
 213 587 184 557 144 557 c 0
 111 557 90 579 90 614 c 0
 90 655 120 688 157 688 c 0
EndSplineSet
Ligature: 0 0 'liga' i uni0308
EndChar
StartChar: iacute
Encoding: 343 237 237
Width: 333
Flags: W
HStem: -17 82<99 193> 370 99<130 238> 679 20G<337 358>
VStem: 67 114<26 77>
DStem: 132 319 255 365 73 78 201 169
Fore
26 346 m 1
 89 393 l 2
 150 439 210 469 238 469 c 0
 253 469 264 454 264 432 c 0
 264 413 260 383 255 365 c 2
 201 169 l 2
 188 122 181 89 181 77 c 0
 181 71 187 65 193 65 c 0
 202 65 220 74 254 95 c 2
 281 112 l 1
 293 84 l 1
 282 76 278 74 265 64 c 0
 184 6 137 -17 99 -17 c 0
 80 -17 67 0 67 26 c 0
 67 41 70 64 73 78 c 1
 132 319 l 2
 138 343 140 354 140 359 c 0
 140 366 136 370 130 370 c 0
 121 370 80 350 61 336 c 2
 39 320 l 1
 26 346 l 1
153 518 m 1
 294 669 l 2
 314 690 329 699 345 699 c 0
 371 699 392 679 392 654 c 0
 392 634 384 623 356 607 c 2
 202 518 l 1
 153 518 l 1
EndSplineSet
Ligature: 0 0 'liga' i acutecomb
EndChar
StartChar: igrave
Encoding: 344 236 238
Width: 333
Flags: W
HStem: -17 82<99 193> 370 99<130 238> 679 20G<145 166.5>
VStem: 67 114<26 77>
DStem: 132 319 255 365 73 78 201 169
Fore
26 346 m 1
 89 393 l 2
 150 439 210 469 238 469 c 0
 253 469 264 454 264 432 c 0
 264 413 260 383 255 365 c 2
 201 169 l 2
 188 122 181 89 181 77 c 0
 181 71 187 65 193 65 c 0
 202 65 220 74 254 95 c 2
 281 112 l 1
 293 84 l 1
 282 76 278 74 265 64 c 0
 184 6 137 -17 99 -17 c 0
 80 -17 67 0 67 26 c 0
 67 41 70 64 73 78 c 1
 132 319 l 2
 138 343 140 354 140 359 c 0
 140 366 136 370 130 370 c 0
 121 370 80 350 61 336 c 2
 39 320 l 1
 26 346 l 1
277 518 m 1
 154 600 l 2
 119 623 110 635 110 656 c 0
 110 678 133 699 157 699 c 0
 176 699 195 686 218 655 c 2
 322 518 l 1
 277 518 l 1
EndSplineSet
Ligature: 0 0 'liga' i gravecomb
EndChar
StartChar: icircumflex
Encoding: 345 238 239
Width: 333
Flags: W
HStem: -17 82<99 193> 370 99<130 238> 664 20G<236 317>
VStem: 67 114<26 77>
DStem: 132 319 255 365 73 78 201 169
Fore
26 346 m 1
 89 393 l 2
 150 439 210 469 238 469 c 0
 253 469 264 454 264 432 c 0
 264 413 260 383 255 365 c 2
 201 169 l 2
 188 122 181 89 181 77 c 0
 181 71 187 65 193 65 c 0
 202 65 220 74 254 95 c 2
 281 112 l 1
 293 84 l 1
 282 76 278 74 265 64 c 0
 184 6 137 -17 99 -17 c 0
 80 -17 67 0 67 26 c 0
 67 41 70 64 73 78 c 1
 132 319 l 2
 138 343 140 354 140 359 c 0
 140 366 136 370 130 370 c 0
 121 370 80 350 61 336 c 2
 39 320 l 1
 26 346 l 1
317 684 m 1
 403 510 l 1
 352 510 l 1
 264 605 l 1
 133 510 l 1
 76 510 l 1
 236 684 l 1
 317 684 l 1
EndSplineSet
Ligature: 0 0 'liga' i uni0302
EndChar
